<svg xmlns="http://www.w3.org/2000/svg" xmlns:xlink="http://www.w3.org/1999/xlink" width="1080" zoomAndPan="magnify" viewBox="0 0 810 809.999993" height="1080" preserveAspectRatio="xMidYMid meet" version="1.2"><defs><clipPath id="bec4d782b2"><path d="M 199 180.199219 L 611 180.199219 L 611 629.449219 L 199 629.449219 Z M 199 180.199219 "/></clipPath></defs><g id="f4ee884337"><g clip-rule="nonzero" clip-path="url(#bec4d782b2)"><path style=" stroke:none;fill-rule:nonzero;fill:#4b0e82;fill-opacity:1;" d="M 227.828125 217.84375 L 305.320312 217.84375 L 305.320312 233.273438 C 305.320312 252.460938 321.011719 268.152344 340.199219 268.152344 C 359.390625 268.152344 375.085938 252.460938 375.085938 233.273438 L 375.085938 217.84375 L 434.800781 217.84375 L 434.800781 233.273438 C 434.800781 252.460938 450.492188 268.152344 469.675781 268.152344 C 488.871094 268.152344 504.570312 252.460938 504.570312 233.273438 L 504.570312 217.84375 L 582.0625 217.84375 C 589.976562 217.84375 597.175781 221.078125 602.378906 226.289062 C 607.59375 231.492188 610.832031 238.695312 610.832031 246.617188 L 610.832031 327.121094 L 199.054688 327.121094 L 199.054688 246.617188 C 199.054688 238.695312 202.296875 231.492188 207.503906 226.289062 C 212.714844 221.078125 219.902344 217.84375 227.828125 217.84375 Z M 610.832031 359.324219 L 610.832031 600.847656 C 610.832031 608.769531 607.59375 615.980469 602.378906 621.171875 C 597.175781 626.382812 589.976562 629.621094 582.0625 629.621094 L 227.828125 629.621094 C 219.902344 629.621094 212.714844 626.382812 207.503906 621.171875 C 202.296875 615.980469 199.054688 608.769531 199.054688 600.847656 L 199.054688 359.324219 L 224.417969 359.324219 L 224.417969 600.847656 C 224.417969 601.769531 224.800781 602.621094 225.417969 603.246094 C 226.050781 603.882812 226.902344 604.273438 227.828125 604.273438 L 582.0625 604.273438 C 582.984375 604.273438 583.835938 603.882812 584.460938 603.246094 C 585.082031 602.621094 585.480469 601.769531 585.480469 600.847656 L 585.480469 359.324219 Z M 365.238281 359.324219 L 439.597656 359.324219 L 439.597656 404.480469 L 365.238281 404.480469 Z M 261.59375 528.691406 L 335.960938 528.691406 L 335.960938 573.816406 L 261.59375 573.816406 Z M 468.890625 528.691406 L 543.257812 528.691406 L 543.257812 573.816406 L 468.890625 573.816406 Z M 365.238281 528.691406 L 439.597656 528.691406 L 439.597656 573.816406 L 365.238281 573.816406 Z M 261.59375 444.011719 L 335.960938 444.011719 L 335.960938 489.148438 L 261.59375 489.148438 Z M 468.890625 444.011719 L 543.257812 444.011719 L 543.257812 489.148438 L 468.890625 489.148438 Z M 365.238281 444.011719 L 439.597656 444.011719 L 439.597656 489.148438 L 365.238281 489.148438 Z M 261.59375 359.324219 L 335.960938 359.324219 L 335.960938 404.480469 L 261.59375 404.480469 Z M 468.890625 359.324219 L 543.257812 359.324219 L 543.257812 404.480469 L 468.890625 404.480469 Z M 340.199219 180.199219 C 328.003906 180.199219 317.992188 190.230469 317.992188 202.410156 L 317.992188 233.273438 C 317.992188 245.460938 328.003906 255.476562 340.199219 255.476562 C 352.386719 255.476562 362.40625 245.460938 362.40625 233.273438 L 362.40625 202.410156 C 362.40625 190.230469 352.386719 180.199219 340.199219 180.199219 Z M 469.675781 180.199219 C 457.492188 180.199219 447.472656 190.230469 447.472656 202.410156 L 447.472656 233.273438 C 447.472656 245.460938 457.492188 255.476562 469.675781 255.476562 C 481.859375 255.476562 491.890625 245.460938 491.890625 233.273438 L 491.890625 202.410156 C 491.890625 190.230469 481.859375 180.199219 469.675781 180.199219 Z M 469.675781 180.199219 "/></g></g></svg>