<svg xmlns="http://www.w3.org/2000/svg" xmlns:xlink="http://www.w3.org/1999/xlink" width="1080" zoomAndPan="magnify" viewBox="0 0 810 809.999993" height="1080" preserveAspectRatio="xMidYMid meet" version="1.2"><defs><clipPath id="74d18ae46d"><path d="M 129.539062 129.539062 L 680.789062 129.539062 L 680.789062 680.789062 L 129.539062 680.789062 Z M 129.539062 129.539062 "/></clipPath></defs><g id="d389334230"><rect x="0" width="810" y="0" height="809.999993" style="fill:#ffffff;fill-opacity:1;stroke:none;"/><rect x="0" width="810" y="0" height="809.999993" style="fill:#ffffff;fill-opacity:1;stroke:none;"/><g clip-rule="nonzero" clip-path="url(#74d18ae46d)"><path style=" stroke:none;fill-rule:nonzero;fill:#4b0e82;fill-opacity:1;" d="M 639.324219 260.039062 C 639.34375 259.988281 639.367188 259.945312 639.378906 259.910156 C 639.707031 259.035156 639.265625 258.058594 638.390625 257.722656 C 638.210938 257.65625 638.039062 257.753906 637.847656 257.742188 C 588.90625 180.859375 502.984375 129.707031 405.285156 129.707031 C 342.628906 129.707031 284.820312 150.769531 238.46875 186.128906 C 237.933594 186.230469 237.550781 186.558594 237.316406 187.035156 C 171.9375 237.476562 129.707031 316.523438 129.707031 405.296875 C 129.707031 557.25 253.332031 680.867188 405.285156 680.867188 C 557.230469 680.867188 680.855469 557.242188 680.855469 405.296875 C 680.855469 352.003906 665.613281 302.246094 639.324219 260.039062 Z M 633.304688 540.910156 C 617.609375 550.367188 598.609375 558.617188 577.074219 565.496094 C 583.054688 539.027344 586.675781 513.96875 588.328125 490.246094 C 611.167969 482.679688 631.007812 473.601562 646.96875 463.328125 C 647.570312 482.082031 647.101562 500.128906 645.941406 517.039062 C 642.125 525.222656 637.917969 533.195312 633.304688 540.910156 Z M 293.617188 644.070312 C 287.394531 637.75 281.601562 631.285156 276.203125 624.675781 C 293.3125 629.347656 313.433594 633.84375 335.714844 637.277344 C 342.070312 647.613281 349.46875 657.382812 358.058594 666.402344 C 335.515625 662.34375 313.960938 655.441406 293.765625 646.0625 C 294.136719 645.40625 294.160156 644.617188 293.617188 644.070312 Z M 288.460938 643.53125 C 271.765625 635.308594 256.078125 625.363281 241.582031 613.957031 C 249.675781 616.800781 259.492188 619.960938 270.695312 623.132812 C 276.167969 630.082031 282.082031 636.882812 288.460938 643.53125 Z M 272.675781 620.175781 C 259.953125 603.917969 249.6875 586.882812 241.871094 569.074219 C 263.421875 575.84375 287.492188 581.226562 313.144531 585.117188 C 317.96875 602.183594 324.625 618.417969 333.414062 633.484375 C 310.4375 629.835938 289.910156 625.023438 272.675781 620.175781 Z M 159.132812 454.398438 C 159.140625 476.625 161.972656 500.0625 168.339844 524.648438 C 154.730469 497.71875 145.570312 468.203125 141.839844 437.035156 C 146.453125 443.085938 152.261719 448.867188 159.132812 454.398438 Z M 174.324219 533.703125 C 166.398438 506.761719 162.804688 481.21875 162.578125 457.070312 C 177.566406 468.335938 197.09375 478.351562 220.136719 486.773438 C 220.902344 513.613281 226.152344 539.222656 235.820312 563.511719 C 211.335938 555.269531 190.359375 545.238281 174.324219 533.703125 Z M 177.175781 368.949219 C 192.402344 378.902344 211.519531 387.769531 233.539062 395.234375 C 225.835938 420.40625 220.914062 446.253906 220.113281 472.296875 C 220.011719 475.800781 220.011719 479.289062 220.046875 482.75 C 196.792969 474.136719 177.214844 463.960938 162.523438 452.574219 C 162.730469 422.4375 168.207031 394.515625 177.175781 368.949219 Z M 164.621094 293.570312 C 170.332031 284.441406 176.546875 275.835938 183.140625 267.675781 C 189.011719 277.574219 198.734375 286.800781 211.617188 295.136719 C 197.375 315.644531 184.757812 338.570312 175.449219 363.816406 C 163.726562 355.640625 154.644531 346.765625 148.730469 337.347656 C 152.75 322.171875 158.097656 307.542969 164.621094 293.570312 Z M 177.492188 269.261719 C 178.621094 267.378906 179.804688 265.535156 180.976562 263.675781 C 181.105469 263.953125 181.234375 264.230469 181.355469 264.5 C 180.070312 266.078125 178.753906 267.644531 177.492188 269.261719 Z M 266.945312 178.878906 C 267.402344 178.792969 267.984375 178.753906 268.976562 178.707031 C 271.308594 178.589844 269.300781 179.652344 268.976562 180.503906 C 268.667969 181.347656 266.445312 184.101562 265.058594 185.375 C 263.6875 186.644531 262.730469 187.492188 261.777344 190.554688 C 260.832031 193.621094 261.777344 192.886719 262.730469 191.082031 C 263.6875 189.289062 265.691406 187.808594 269.191406 185.160156 C 272.679688 182.519531 271.523438 183.886719 273.324219 183.042969 C 275.121094 182.195312 276.496094 181.355469 278.828125 180.078125 C 281.160156 178.804688 279.992188 179.238281 281.683594 177.320312 C 283.375 175.417969 284.441406 175.632812 286.445312 174.039062 C 288.460938 172.453125 289.511719 172.242188 290.359375 171.394531 C 291.210938 170.554688 291.636719 170.226562 292.597656 168.851562 C 293.542969 167.476562 294.820312 167.273438 295.984375 165.574219 C 297.144531 163.878906 297.78125 163.878906 298.742188 162.605469 C 298.863281 162.445312 298.878906 162.324219 298.953125 162.183594 C 304.089844 159.929688 309.292969 157.78125 314.59375 155.847656 C 315.953125 158.410156 317.898438 160.871094 320.375 163.214844 C 310.726562 167.503906 300.640625 172.375 290.34375 177.855469 C 290.035156 177.917969 289.707031 177.992188 289.3125 178.0625 C 288.382812 178.222656 288.8125 178.164062 288.085938 179.039062 C 284.261719 181.105469 280.398438 183.273438 276.539062 185.515625 C 275.714844 185.753906 274.878906 186.554688 273.640625 186.96875 C 272.363281 187.382812 272.15625 187.808594 270.882812 188.65625 C 270.792969 188.710938 270.839844 188.851562 270.769531 188.925781 C 262.570312 193.839844 254.355469 199.113281 246.199219 204.847656 C 244.300781 202.085938 242.882812 199.234375 241.914062 196.34375 C 249.917969 190.070312 258.246094 184.214844 266.945312 178.878906 Z M 271.066406 192.65625 C 271.207031 193.3125 271.292969 193.9375 271.097656 194.371094 C 270.457031 195.851562 271.097656 194.371094 269.613281 194.578125 C 268.363281 194.757812 267.9375 195.097656 266.34375 195.578125 C 267.925781 194.589844 269.503906 193.609375 271.066406 192.65625 Z M 526.6875 174.554688 C 528.304688 176.183594 529.824219 177.625 530.933594 178.0625 C 533.046875 178.914062 534.734375 180.179688 536.644531 181.660156 C 538.542969 183.15625 549.5625 196.488281 549.5625 196.488281 C 549.5625 196.488281 550.203125 205.382812 557.183594 207.285156 C 561.984375 208.601562 565.101562 209.902344 567.117188 211.070312 C 563.824219 214.457031 559.863281 217.707031 555.273438 220.792969 C 550.863281 216.296875 546.460938 212.039062 542.121094 208.089844 C 524.46875 192.046875 506.496094 179.4375 489.824219 169.472656 C 492.808594 167.671875 495.464844 165.761719 497.707031 163.761719 C 507.5625 167.101562 517.386719 170.710938 526.6875 174.554688 Z M 574.132812 212.578125 C 577.945312 211.519531 577.730469 212.792969 582.167969 215.550781 C 586.621094 218.308594 585.992188 217.035156 587.890625 221.90625 C 589.804688 226.777344 590.21875 223.390625 590.21875 229.734375 C 590.21875 236.089844 594.65625 240.109375 594.027344 244.34375 C 593.402344 248.582031 595.835938 251.339844 594.097656 254.9375 C 592.328125 258.535156 589.578125 259.808594 591.289062 261.925781 C 592.976562 264.046875 592.128906 263.617188 596.160156 264.472656 C 600.171875 265.3125 608.011719 267.21875 610.136719 268.910156 C 612.25 270.601562 612.894531 273.574219 611.824219 275.050781 C 610.761719 276.53125 609.910156 276.320312 604.625 279.921875 C 603.492188 280.683594 602.535156 281.199219 601.632812 281.671875 C 596.539062 272.980469 591.230469 264.804688 585.765625 257.183594 C 586.960938 256.488281 587.996094 255.578125 588.386719 254.386719 C 588.8125 253.105469 587.546875 253.949219 588.386719 251.695312 C 589.238281 249.433594 588.53125 251.269531 589.238281 249.433594 C 589.945312 247.597656 590.078125 246.757812 590.078125 246.757812 C 590.078125 246.757812 591.203125 245.753906 591.484375 245.199219 C 591.777344 244.632812 591.898438 244.355469 591.484375 242.519531 C 591.070312 240.679688 591.484375 241.238281 590.210938 239.832031 C 588.9375 238.421875 588.230469 237.859375 587.109375 237.4375 C 585.984375 237.011719 585.410156 236.730469 584.703125 236.597656 C 584.003906 236.453125 584.003906 237.011719 582.734375 236.171875 C 581.460938 235.324219 581.117188 234.894531 579.597656 234.472656 C 578.078125 234.050781 578.226562 234.191406 576.378906 233.34375 C 574.53125 232.496094 573.839844 232.066406 573.132812 231.785156 C 572.421875 231.507812 574.390625 233.199219 572.421875 231.507812 C 570.453125 229.808594 571.03125 230.511719 570.453125 229.808594 C 569.878906 229.105469 570.300781 230.234375 569.039062 228.117188 C 567.765625 226 567.765625 226 567.765625 226 L 565.921875 225.007812 C 565.921875 225.007812 566.5 224.179688 565.089844 224.445312 C 564.5 224.554688 563.816406 225.007812 562.964844 224.445312 C 562.125 223.886719 561.691406 222.457031 561.265625 223.035156 C 560.910156 223.527344 559.402344 223.972656 559.792969 225.53125 C 559.027344 224.730469 558.273438 223.914062 557.519531 223.125 C 562.238281 219.929688 566.320312 216.570312 569.742188 213.0625 C 570.703125 213.945312 570.816406 213.507812 574.132812 212.578125 Z M 620.300781 271.667969 C 619.449219 269.761719 619.449219 265.3125 623.261719 265.097656 C 625.949219 264.953125 629.523438 266.773438 631.445312 267.875 C 628.9375 271.683594 625.835938 275.402344 622.160156 278.996094 C 621.875 274.1875 621.085938 273.457031 620.300781 271.667969 Z M 623.941406 337.15625 C 624.1875 339.566406 623.679688 342.34375 623.679688 344.085938 C 623.679688 346 621.570312 348.324219 620.722656 352.355469 C 619.871094 356.371094 618.171875 354.257812 618.171875 362.308594 C 618.171875 366.308594 617.925781 372.414062 618.363281 378.378906 C 607.9375 383.457031 596.40625 388.15625 583.878906 392.386719 C 579.125 364.257812 571.632812 338.910156 562.609375 316.300781 C 578.808594 310.628906 593.007812 304.054688 604.78125 296.738281 C 606.042969 298.4375 607.0625 300.089844 607.578125 302.167969 C 608.230469 304.703125 609.066406 306.191406 610.5625 307.042969 C 610.890625 307.226562 611.1875 307.296875 611.503906 307.328125 C 616.175781 317.167969 620.324219 327.132812 623.941406 337.15625 Z M 494.382812 475.675781 C 493.945312 475.519531 493.574219 475.40625 493.039062 475.179688 C 489.4375 473.695312 488.585938 476.226562 488.585938 474.339844 C 488.585938 472.417969 488.585938 473.066406 487.527344 471.582031 C 486.457031 470.097656 484.558594 469.671875 481.804688 468.601562 C 479.046875 467.539062 480.109375 468.398438 479.046875 468.398438 C 477.988281 468.398438 476.722656 469.027344 474.390625 467.125 C 472.058594 465.226562 474.390625 467.125 474.179688 466.5 C 473.964844 465.859375 475.238281 464.574219 475.238281 464.574219 C 475.238281 464.574219 475.238281 464.574219 473.964844 464.574219 C 472.691406 464.574219 472.277344 463.742188 471.425781 462.890625 C 470.585938 462.039062 469.101562 460.765625 467.199219 460.765625 C 465.289062 460.765625 466.128906 461.191406 464.445312 461.835938 C 462.746094 462.464844 456.609375 462.464844 456.609375 462.464844 C 456.609375 462.464844 454.496094 462.464844 452.796875 462.464844 C 451.097656 462.464844 451.515625 462.464844 450.039062 462.464844 C 448.554688 462.464844 445.804688 461.835938 445.804688 461.835938 C 445.804688 461.835938 444.53125 460.984375 442.207031 460.148438 C 439.878906 459.308594 441.144531 458.875 439.023438 458.664062 C 436.910156 458.449219 437.121094 460.148438 436.0625 461.621094 C 435.003906 463.109375 436.0625 461.621094 434.578125 462.464844 C 433.09375 463.316406 433.519531 464.800781 433.738281 465.433594 C 433.9375 466.074219 433.738281 467.972656 433.738281 467.972656 C 433.738281 467.972656 431.613281 468.824219 430.339844 468.183594 C 429.066406 467.546875 430.980469 462.6875 430.980469 460.976562 C 430.980469 459.300781 430.980469 460.976562 431.179688 459.503906 C 431.40625 458.019531 433.09375 457.390625 432.878906 456.746094 C 432.675781 456.109375 429.496094 458.445312 428.652344 458.65625 C 427.800781 458.871094 425.257812 460.570312 422.085938 462.882812 C 418.902344 465.21875 420.175781 463.941406 418.476562 464.367188 C 416.789062 464.792969 416.789062 464.792969 415.316406 466.90625 C 413.820312 469.019531 414.464844 468.394531 413.820312 468.820312 C 413.191406 469.234375 410.859375 474.328125 410.859375 474.328125 L 408.101562 473.488281 C 408.101562 473.488281 408.101562 473.488281 406.410156 471.777344 C 404.71875 470.089844 406.410156 467.121094 405.285156 465.855469 C 405.035156 465.582031 404.46875 465.582031 403.761719 465.722656 C 403.679688 454.882812 403.640625 443.988281 403.65625 433.058594 C 404.019531 433.195312 404.480469 433.328125 405.285156 433.554688 C 408.101562 434.308594 406.410156 434.082031 408.101562 434.308594 C 409.800781 434.519531 408.949219 435.992188 411.273438 434.308594 C 413.609375 432.609375 413.609375 433.667969 413.609375 432.609375 C 413.609375 431.550781 410.855469 429.636719 409.058594 430.496094 C 406.847656 431.53125 404.292969 429.867188 403.664062 430.496094 C 403.664062 427.382812 403.679688 424.265625 403.6875 421.152344 C 404.164062 421.164062 404.640625 421.164062 405.109375 421.164062 C 404.878906 421.480469 404.652344 421.75 405.28125 422.234375 C 406.402344 423.085938 401.804688 422.449219 405.375 424.347656 C 408.949219 426.257812 408.730469 426.257812 411.273438 426.046875 C 413.820312 425.832031 413.8125 427.082031 416.15625 426.148438 C 418.46875 425.207031 420.59375 423.921875 420.59375 423.921875 C 420.59375 423.921875 423.339844 423.507812 419.535156 422.449219 C 416.777344 421.671875 414.925781 421.671875 413.304688 421.1875 C 441.988281 421.007812 469.785156 419.0625 495.945312 415.550781 C 496.308594 434.4375 495.835938 454.5 494.382812 475.675781 Z M 373.796875 440.664062 C 372.109375 440.238281 362.578125 440.238281 360.464844 440.238281 C 358.347656 440.238281 360.890625 435.140625 361.097656 434.089844 C 361.3125 433.039062 361.945312 431.128906 362.375 429.863281 C 362.808594 428.597656 363.429688 427.535156 364.0625 426.050781 C 364.703125 424.578125 364.476562 424.78125 365.132812 423.304688 C 365.761719 421.820312 366.1875 421.394531 366.394531 420.335938 C 366.441406 420.132812 366.476562 419.976562 366.515625 419.828125 C 377.601562 420.535156 388.886719 420.984375 400.324219 421.136719 C 400.253906 436.425781 400.285156 451.710938 400.40625 466.863281 C 398.269531 467.746094 396.019531 468.832031 394.988281 469.03125 C 392.875 469.457031 391.589844 469.246094 390.117188 469.03125 C 388.632812 468.832031 385.667969 467.132812 384.820312 466.285156 C 383.980469 465.433594 382.710938 464.375 382.710938 464.375 C 382.710938 464.375 381.429688 462.464844 380.804688 461.617188 C 380.160156 460.765625 380.382812 460.355469 379.957031 459.71875 C 379.53125 459.078125 380.160156 454.632812 380.160156 453.160156 C 380.160156 451.664062 381.644531 450.398438 381.4375 449.550781 C 381.21875 448.699219 375.496094 441.078125 373.796875 440.664062 Z M 350.933594 427.3125 C 349.867188 428.164062 348.605469 428.371094 345.847656 428.371094 C 343.097656 428.371094 341.398438 428.371094 339.707031 428.171875 C 338.019531 427.957031 337.378906 427.746094 336.316406 427.316406 C 335.261719 426.902344 331.652344 426.476562 329.328125 424.570312 C 327 422.660156 329.328125 424.570312 328.484375 422.449219 C 327.632812 420.335938 327 419.476562 325.300781 417.789062 C 324.546875 417.035156 323.910156 416.28125 323.402344 415.5625 C 334.492188 417.058594 345.871094 418.261719 357.496094 419.171875 C 356.101562 419.835938 356.878906 420.105469 355.59375 420.742188 C 353.890625 421.585938 354.316406 422.441406 351.992188 426.464844 C 349.652344 430.496094 351.992188 426.472656 350.933594 427.3125 Z M 585.554688 256.496094 C 585.554688 256.496094 585.472656 256.589844 585.421875 256.675781 C 583.0625 253.417969 580.691406 250.242188 578.296875 247.175781 C 578.09375 246.28125 577.988281 245.921875 576.972656 245.492188 C 573.84375 241.523438 570.671875 237.695312 567.5 234.050781 C 569.34375 234.566406 569.46875 234.292969 570.308594 234.894531 C 571.3125 235.59375 571.59375 237.148438 572.585938 237.71875 C 573.574219 238.285156 575.261719 238.277344 576.675781 238.558594 C 578.09375 238.84375 578.09375 239.257812 578.65625 239.832031 C 579.222656 240.402344 579.566406 241.667969 579.613281 242.09375 C 579.636719 242.519531 579.929688 243.851562 580.34375 244.316406 C 580.769531 244.769531 580.355469 245.199219 581.476562 246.1875 C 582.601562 247.175781 582.320312 247.277344 583.882812 247.648438 C 585.4375 248.03125 585.4375 248.03125 585.4375 248.03125 C 585.4375 248.03125 585.722656 248.445312 585.4375 250.140625 C 585.140625 251.847656 585.554688 256.496094 585.554688 256.496094 Z M 569.050781 241.0625 C 568.285156 242.253906 567.433594 243.449219 568.058594 244.316406 C 568.910156 245.480469 568.203125 246.332031 569.757812 247.460938 C 571.3125 248.589844 571.042969 248.589844 571.726562 249.441406 C 572.433594 250.28125 571.175781 251.703125 572.578125 253.113281 C 573.996094 254.523438 573.851562 256.082031 575.8125 255.230469 C 577.792969 254.390625 576.6875 256.078125 577.867188 253.53125 C 578.023438 253.1875 578.207031 252.933594 578.363281 252.734375 C 585.863281 262.640625 592.640625 272.800781 598.703125 283.144531 C 597.308594 283.855469 596.675781 284.441406 596.980469 285.855469 C 597.488281 288.027344 600.445312 291.46875 602.523438 293.886719 C 591.011719 300.953125 577.070312 307.324219 561.226562 312.855469 C 551.410156 288.976562 539.945312 268.21875 528.269531 250.558594 C 525.996094 247.101562 523.679688 243.769531 521.367188 240.484375 C 534.25 236.042969 545.429688 230.835938 554.632812 225.042969 C 559.695312 230.28125 564.507812 235.625 569.050781 241.0625 Z M 365.484375 416.375 C 365.472656 416.375 365.449219 416.375 365.433594 416.375 C 350.671875 415.394531 336.261719 413.933594 322.34375 412.046875 C 322.34375 411.964844 322.34375 411.902344 322.34375 411.640625 C 322.34375 411.003906 322.34375 408.671875 322.34375 406.570312 C 322.34375 404.445312 322.765625 403.167969 322.34375 401.054688 C 321.921875 398.941406 323.191406 399.15625 323.617188 398.089844 C 324.03125 397.03125 324.675781 397.464844 327 395.765625 C 329.328125 394.066406 327 392.582031 326.574219 391.953125 C 326.160156 391.316406 326.367188 390.683594 326.367188 389.628906 C 326.367188 388.558594 327.433594 388.777344 327.433594 388.144531 C 327.433594 387.503906 334.628906 383.695312 338.445312 382.421875 C 342.25 381.15625 339.925781 381.582031 342.25 381.367188 C 344.578125 381.15625 345.007812 382.214844 349.710938 384.546875 C 354.398438 386.871094 351.992188 384.746094 353.683594 384.546875 C 355.382812 384.320312 356.652344 384.546875 358.132812 384.546875 C 359.613281 384.546875 360.246094 383.695312 360.460938 383.058594 C 360.671875 382.421875 359.1875 381.574219 359.1875 380.941406 C 359.1875 380.308594 361.945312 380.734375 363.207031 380.734375 C 364.464844 380.734375 366.175781 380.734375 368.5 380.734375 C 370.828125 380.734375 371.890625 380.941406 372.953125 382 C 374.003906 383.066406 374.855469 383.695312 377.394531 384.976562 C 379.933594 386.242188 379.082031 385.179688 380.566406 385.179688 C 382.050781 385.179688 382.050781 385.179688 383.539062 385.179688 C 385.015625 385.179688 384.378906 386.878906 384.597656 388.777344 C 384.808594 390.6875 385.445312 391.960938 385.445312 391.960938 C 385.445312 391.960938 385.445312 391.960938 385.445312 394.492188 C 385.445312 397.039062 386.070312 396.40625 386.722656 396.824219 C 387.347656 397.238281 390.527344 403.398438 393.070312 402.972656 C 395.609375 402.546875 394.335938 402.121094 395.191406 400.84375 C 396.03125 399.578125 396.242188 395.972656 396.242188 395.972656 C 396.242188 395.972656 394.761719 394.066406 394.335938 393.222656 C 393.917969 392.378906 393.070312 389.621094 392.863281 388.34375 C 392.652344 387.066406 392.4375 385.167969 392.011719 384.539062 C 391.585938 383.902344 392.011719 380.9375 391.808594 378.609375 C 391.585938 376.277344 392.652344 376.066406 392.871094 375.21875 C 393.078125 374.378906 394.769531 373.105469 395.195312 372.460938 C 395.617188 371.824219 397.519531 370.5625 398.367188 369.285156 C 398.921875 368.472656 399.851562 367.964844 400.867188 367.460938 C 400.617188 383.257812 400.433594 399.289062 400.351562 415.390625 C 398.441406 414.539062 395.621094 413.074219 395.621094 413.074219 C 395.621094 413.074219 393.496094 411.222656 391.816406 410.800781 C 390.117188 410.375 387.792969 410.800781 385.667969 410.800781 C 383.554688 410.800781 378.890625 411.554688 378.257812 413.074219 C 377.632812 414.605469 376.773438 416.519531 376.773438 416.519531 C 376.773438 416.519531 377.625 416.519531 378.890625 416.519531 C 380.160156 416.519531 380.160156 415.878906 381.429688 415.460938 C 382.707031 415.035156 382.496094 412.9375 384.1875 413.558594 C 385.882812 414.179688 388.210938 412.726562 389.691406 413.558594 C 391.164062 414.394531 393.496094 416.519531 393.496094 416.519531 C 393.496094 416.519531 393.921875 415.460938 394.566406 416.519531 C 394.792969 416.898438 395.429688 417.296875 396.191406 417.675781 C 385.792969 417.484375 375.570312 417.035156 365.484375 416.375 Z M 345.132812 208.136719 C 348.605469 207.714844 348.179688 206.441406 351.558594 205.382812 C 354.957031 204.324219 355.164062 202.839844 356.648438 203.683594 C 358.132812 204.527344 356.222656 206.222656 358.339844 206.65625 C 360.460938 207.074219 360.886719 208.917969 363.210938 208.3125 C 365.546875 207.714844 363.632812 209.195312 365.546875 207.714844 C 367.449219 206.230469 368.082031 208.34375 367.449219 206.230469 C 366.816406 204.117188 364.472656 202.839844 364.058594 200.9375 C 363.632812 199.035156 362.796875 200.875 363.210938 198.261719 C 363.632812 195.648438 363.425781 195.222656 363.84375 193.945312 C 364.269531 192.671875 364.269531 192.257812 364.269531 190.980469 C 364.269531 189.707031 364.898438 190.140625 361.519531 189.707031 C 361.289062 189.683594 361.074219 189.695312 360.855469 189.695312 C 362.351562 187.988281 363.816406 186.363281 365.273438 184.738281 C 368.410156 183.863281 365.675781 184.597656 368.714844 183.785156 C 369.503906 183.578125 369.941406 183.511719 370.210938 183.503906 C 370.332031 183.523438 370.457031 183.558594 370.589844 183.578125 C 370.648438 183.617188 370.6875 183.628906 370.765625 183.605469 C 372.675781 183.945312 374.660156 184.210938 376.628906 184.5 C 376.527344 184.941406 377.089844 184.773438 377.742188 185.417969 C 378.460938 186.109375 376.761719 185.898438 378.460938 186.109375 C 380.148438 186.324219 378.246094 186.109375 380.148438 186.324219 C 382.058594 186.535156 381.632812 187.382812 382.90625 186.324219 C 383.046875 186.203125 383.140625 186.132812 383.257812 186.035156 C 380.722656 191.695312 378.027344 197.882812 375.265625 204.335938 C 374.304688 205.417969 374.472656 205.257812 374.777344 205.5 C 373.148438 209.285156 371.519531 213.21875 369.84375 217.253906 C 369.101562 217.300781 369.5625 216.390625 369.5625 216.390625 C 369.5625 216.390625 369.5625 214.277344 368.292969 213.632812 C 367.027344 213.003906 368.292969 213.632812 366.386719 214.058594 C 364.476562 214.484375 365.128906 214.273438 364.0625 213.847656 C 363.003906 213.421875 361.3125 213.003906 359.394531 211.945312 C 357.496094 210.882812 358.132812 211.519531 356.867188 210.882812 C 355.601562 210.242188 355.382812 209.816406 354.324219 208.335938 C 353.269531 206.863281 351.789062 209.820312 351.144531 210.246094 C 350.515625 210.675781 345.855469 211.945312 345.855469 211.945312 C 345.855469 211.945312 345.855469 211.945312 345.855469 211.09375 C 345.855469 210.253906 344.375 210.253906 344.375 210.253906 C 344.375 210.253906 343.921875 210.355469 343.242188 210.449219 C 343.867188 209.683594 344.507812 208.902344 345.132812 208.136719 Z M 393.714844 173.199219 C 393.492188 175.109375 394.769531 175.734375 395.402344 175.84375 C 396.035156 175.953125 396.035156 178.066406 396.035156 178.066406 C 396.035156 178.066406 391.585938 180.605469 391.152344 179.980469 C 391.003906 179.730469 390.566406 179.4375 390.082031 179.144531 C 391.230469 176.621094 392.347656 174.199219 393.421875 171.886719 C 393.605469 172.339844 393.757812 172.765625 393.714844 173.199219 Z M 412.976562 167.902344 C 413.617188 167.476562 415.089844 163.664062 415.316406 162.605469 C 415.515625 161.546875 415.316406 159.859375 415.316406 158.585938 C 415.316406 157.316406 413.390625 156.886719 411.90625 156.46875 C 411.648438 156.398438 411.421875 156.421875 411.199219 156.433594 C 411.503906 150.199219 411.75 145.382812 411.90625 142.265625 C 414.289062 145.097656 418.125 149.917969 422.855469 156.703125 C 422.304688 157.050781 421.699219 157.492188 421.371094 157.808594 C 420.945312 158.234375 418.414062 158.9375 418.257812 159.503906 C 418.125 160.066406 417.691406 161.339844 417.691406 161.339844 C 417.691406 161.339844 418.816406 162.460938 417.691406 163.175781 C 416.570312 163.871094 416.148438 166.984375 416.703125 167.550781 C 417.265625 168.113281 417.703125 168.390625 417.410156 169.105469 C 417.128906 169.8125 415.441406 171.355469 415.015625 171.644531 C 414.589844 171.925781 413.035156 173.199219 412.890625 174.332031 C 412.757812 175.453125 413.46875 177.152344 413.894531 178.144531 C 414.308594 179.121094 415.285156 177.855469 415.152344 180.253906 C 415.085938 181.425781 415.246094 182.535156 415.707031 183.265625 C 413.785156 183.3125 411.859375 183.371094 409.925781 183.371094 C 410.152344 178.414062 410.351562 173.835938 410.554688 169.597656 C 411.164062 168.988281 412.460938 168.242188 412.976562 167.902344 Z M 409.0625 270.820312 C 409.414062 272.398438 408.042969 273.1875 406.46875 273.871094 C 406.597656 269.746094 406.738281 265.664062 406.871094 261.65625 C 408.207031 262.382812 407.96875 262.773438 409.058594 265.738281 C 410.21875 268.914062 408.523438 268.488281 409.0625 270.820312 Z M 388.628906 182.316406 C 388.742188 182.375 388.816406 182.398438 388.914062 182.441406 C 388.800781 182.4375 388.707031 182.417969 388.597656 182.402344 C 388.605469 182.378906 388.617188 182.34375 388.628906 182.316406 Z M 406.375 186.707031 C 406.292969 188.632812 406.226562 190.589844 406.121094 192.605469 C 405.839844 192.417969 405.585938 192.230469 405.285156 192.039062 C 403.953125 191.191406 400.6875 190.972656 398.15625 190.972656 C 395.617188 190.972656 392.226562 193.511719 390.53125 194.574219 C 388.835938 195.644531 390.53125 194.574219 388.207031 199.867188 C 385.875 205.164062 388.835938 201.566406 389.261719 203.679688 C 389.6875 205.796875 389.261719 203.679688 389.6875 204.738281 C 390.113281 205.804688 391.808594 206.4375 392.871094 208.550781 C 393.921875 210.675781 393.078125 210.035156 392.871094 211.945312 C 392.65625 213.847656 392.019531 214.273438 390.746094 216.171875 C 389.472656 218.082031 389.90625 217.65625 388.210938 218.296875 C 386.507812 218.921875 387.148438 218.082031 387.148438 218.082031 C 387.148438 218.082031 387.574219 213.414062 387.359375 212.785156 C 387.148438 212.160156 387.359375 210.675781 386.507812 211.089844 C 385.667969 211.515625 384.609375 212.359375 383.980469 211.300781 C 383.34375 210.242188 383.554688 209.816406 383.554688 209.816406 C 383.554688 209.816406 381.4375 208.542969 381.011719 207.917969 C 380.589844 207.277344 381.4375 206.011719 381.4375 206.011719 C 381.4375 206.011719 382.714844 204.105469 382.714844 203.464844 C 382.714844 202.832031 382.714844 201.355469 382.714844 201.355469 L 382.289062 198.597656 L 382.289062 196.628906 C 382.445312 196.265625 382.605469 195.886719 382.761719 195.527344 L 384.195312 194.574219 L 387.371094 193.304688 L 388.011719 190.546875 L 389.273438 188.648438 C 389.273438 188.648438 394.574219 188.855469 395.414062 188.855469 C 396.253906 188.855469 401.128906 189.070312 401.988281 189.070312 C 402.777344 189.070312 403.179688 186.9375 403.226562 186.632812 C 404.269531 186.667969 405.320312 186.691406 406.375 186.707031 Z M 409.0625 207.929688 C 410.007812 208.34375 410.433594 209.828125 411.28125 212.164062 C 412.132812 214.492188 411.707031 214.066406 412.339844 214.066406 C 412.976562 214.066406 414.25 215.550781 414.25 215.550781 C 414.25 215.550781 417.421875 218.308594 417.421875 219.996094 C 417.421875 221.679688 416.792969 221.6875 415.734375 222.53125 C 414.664062 223.378906 414.25 224.652344 414.039062 225.921875 C 413.824219 227.195312 414.890625 229.308594 413.621094 229.523438 C 412.339844 229.730469 412.339844 229.730469 409.070312 229.730469 C 408.644531 229.730469 408.292969 229.75 408.015625 229.796875 C 408.292969 222.101562 408.597656 214.761719 408.878906 207.824219 C 408.917969 207.847656 409.015625 207.90625 409.0625 207.929688 Z M 363.25 251.339844 C 363.238281 251.136719 363.210938 251 363.210938 250.699219 C 363.210938 248.589844 364.277344 247.316406 364.902344 244.988281 C 365.546875 242.664062 366.179688 243.503906 370.632812 240.109375 C 375.070312 236.730469 373.164062 239.054688 374.863281 238.632812 C 376.554688 238.207031 376.136719 238.421875 377.1875 236.097656 C 378.246094 233.765625 379.945312 234.816406 382.484375 233.550781 C 385.015625 232.285156 382.484375 233.550781 385.015625 232.285156 C 387.5625 231.011719 385.015625 232.285156 384.808594 229.953125 C 384.597656 227.628906 383.113281 228.261719 385.871094 228.261719 C 388.625 228.261719 387.992188 227.203125 387.992188 227.203125 C 387.992188 227.203125 387.992188 227.203125 388.835938 225.714844 C 389.679688 224.230469 390.320312 226.136719 390.953125 226.136719 C 391.582031 226.136719 392.863281 226.136719 394.761719 225.078125 C 396.664062 224.011719 397.945312 223.386719 398.996094 222.539062 C 400.058594 221.691406 400.273438 221.472656 400.6875 219.359375 C 401.113281 217.25 399.847656 217.457031 399.632812 215.976562 C 399.414062 214.492188 400.265625 214.277344 400.054688 213.003906 C 399.839844 211.734375 399.839844 211.09375 399.839844 211.09375 C 399.839844 211.09375 399.839844 210.035156 400.472656 208.554688 C 401.109375 207.074219 401.539062 208.34375 402.804688 207.714844 C 404.066406 207.082031 404.710938 207.503906 405.28125 206.65625 C 405.328125 206.574219 405.453125 206.609375 405.527344 206.574219 C 404.941406 220.730469 404.335938 236.621094 403.738281 253.808594 C 389.742188 253.625 376.191406 252.785156 363.25 251.339844 Z M 390.300781 186.023438 C 390.277344 187.542969 389.851562 187.382812 388.628906 187.382812 C 387.613281 187.382812 386.917969 187.726562 385.972656 188.257812 C 386.339844 187.394531 386.726562 186.570312 387.101562 185.71875 C 388.179688 185.820312 389.21875 185.941406 390.300781 186.023438 Z M 376.46875 210.148438 C 376.800781 210.457031 377.113281 210.75 377.195312 211.3125 C 377.40625 212.796875 377.195312 211.3125 376.5625 212.371094 C 375.925781 213.425781 375.703125 213.851562 374.492188 214.882812 C 375.144531 213.289062 375.808594 211.699219 376.46875 210.148438 Z M 403.636719 257.195312 C 403.433594 263.175781 403.230469 269.296875 403.03125 275.550781 C 402.0625 276.238281 401.863281 276.957031 401.546875 278.863281 C 401.121094 281.394531 402.605469 280.34375 402.398438 284.152344 C 402.171875 287.964844 402.171875 286.066406 400.480469 288.175781 C 398.789062 290.289062 397.945312 289.238281 396.664062 289.019531 C 395.398438 288.8125 394.136719 284.78125 393.710938 282.027344 C 393.285156 279.277344 394.128906 279.277344 393.910156 276.527344 C 393.710938 273.773438 392.859375 273.992188 390.734375 272.5 C 388.621094 271.015625 387.988281 271.660156 385.863281 271.015625 C 383.746094 270.390625 383.539062 270.597656 380.785156 269.328125 C 378.027344 268.058594 380.367188 267.632812 378.875 265.9375 C 377.394531 264.246094 375.90625 263.820312 374 262.761719 C 372.097656 261.703125 370.621094 260.855469 369.34375 260.433594 C 368.070312 260.007812 367.863281 258.738281 367.644531 256.625 C 367.574219 255.949219 367.355469 255.5 367.074219 255.117188 C 378.847656 256.320312 391.066406 257.027344 403.636719 257.195312 Z M 368.925781 304.277344 C 369.78125 304.277344 372.3125 302.375 375.714844 300.167969 C 375.714844 300.167969 375.714844 300.167969 376.980469 300.886719 C 378.253906 301.601562 376.980469 300.886719 376.769531 301.519531 C 376.5625 302.15625 377.828125 302.15625 378.886719 303.851562 C 379.953125 305.546875 385.453125 309.144531 385.023438 310.207031 C 384.601562 311.269531 385.023438 310.207031 377.820312 311.269531 C 370.632812 312.328125 377.820312 311.269531 375.714844 311.054688 C 373.585938 310.847656 373.585938 309.363281 372.3125 308.941406 C 371.046875 308.515625 371.253906 307.457031 368.714844 307.242188 C 366.179688 307.035156 368.714844 307.242188 366.386719 307.457031 C 364.0625 307.667969 365.328125 307.882812 363.425781 307.457031 C 361.523438 307.035156 361.523438 306.398438 361.523438 306.398438 C 361.523438 306.398438 368.085938 304.277344 368.925781 304.277344 Z M 441.164062 252.652344 C 440.464844 251.484375 439.839844 250.460938 439.015625 249.640625 C 437.753906 248.371094 439.015625 249.640625 437.542969 251.765625 C 436.058594 253.878906 437.542969 251.765625 437.871094 252.605469 C 437.90625 252.675781 437.871094 252.777344 437.835938 252.867188 C 434.855469 253.078125 431.832031 253.222656 428.796875 253.367188 C 427.921875 252.886719 427.007812 252.238281 426.109375 251.335938 C 424.410156 249.636719 425.894531 249.210938 425.46875 247.097656 C 425.054688 244.984375 425.257812 246.039062 423.773438 245.40625 C 422.296875 244.769531 421.871094 244.769531 421.246094 243.710938 C 420.605469 242.652344 418.90625 242.226562 417.648438 241.804688 C 416.363281 241.378906 414.890625 241.378906 411.710938 240.960938 C 408.527344 240.535156 410.011719 241.59375 409.070312 242.867188 C 408.539062 243.566406 407.921875 244.660156 407.40625 246.335938 C 407.527344 242.976562 407.636719 239.671875 407.761719 236.429688 C 408.1875 236.394531 408.625 236.292969 409.0625 236.089844 C 410.433594 235.449219 412.132812 233.546875 412.132812 233.546875 C 412.132812 233.546875 414.246094 234.609375 416.570312 236.730469 C 418.894531 238.84375 420.394531 240.109375 421.867188 242.019531 C 423.339844 243.925781 424.625 244.777344 428.847656 242.867188 C 433.085938 240.960938 430.132812 242.660156 433.085938 242.019531 C 436.058594 241.386719 433.925781 240.109375 433.085938 239.054688 C 432.246094 237.996094 430.761719 237.78125 428.648438 236.9375 C 426.523438 236.097656 426.738281 235.449219 428.648438 235.664062 C 430.546875 235.878906 432.875 235.878906 435.632812 235.023438 C 438.386719 234.183594 436.691406 232.710938 436.691406 232.710938 C 436.691406 232.710938 433.304688 231.425781 429.921875 228.679688 C 426.523438 225.929688 427.796875 226.351562 427.382812 225.082031 C 426.957031 223.8125 430.140625 224.449219 430.980469 224.449219 C 431.820312 224.449219 432.878906 225.933594 435.003906 227.839844 C 437.117188 229.742188 436.265625 227.421875 436.265625 226.777344 C 436.265625 226.140625 435.421875 222.542969 434.578125 220.207031 C 433.738281 217.882812 430.765625 219.148438 429.707031 218.519531 C 428.648438 217.882812 424.410156 214.070312 423.984375 213.425781 C 423.570312 212.796875 423.347656 204.957031 421.871094 203.902344 C 420.398438 202.839844 418.476562 202.417969 417.214844 201.367188 C 415.929688 200.304688 414.246094 199.242188 412.976562 198.1875 C 411.832031 197.226562 410.515625 195.808594 409.414062 194.910156 C 409.535156 192.113281 409.652344 189.390625 409.773438 186.773438 C 417.191406 186.761719 424.398438 186.378906 431.371094 185.722656 C 432.929688 187.253906 434.507812 188.894531 435.632812 189.863281 C 437.460938 191.417969 439.597656 191.6875 439.867188 195.785156 C 440.148438 199.878906 441.421875 199.460938 443.386719 199.460938 C 445.367188 199.460938 446.914062 200.304688 447.347656 200.589844 C 447.761719 200.875 446.367188 202.148438 445.941406 203.125 C 445.515625 204.117188 443.960938 205.25 445.367188 207.503906 C 446.78125 209.765625 444.253906 211.179688 447.421875 210.75 C 449.699219 210.445312 451.054688 208.769531 451.90625 207.898438 C 452.257812 208.675781 452.625 209.488281 452.988281 210.277344 C 452.90625 211.070312 452.808594 211.910156 452.707031 212.730469 C 452.421875 215.125 450.109375 219.085938 453.097656 221.628906 C 456.097656 224.167969 456.660156 225.296875 459.054688 226.425781 C 459.503906 226.625 459.84375 226.851562 460.1875 227.0625 C 463.054688 234.136719 465.855469 241.664062 468.554688 249.613281 C 459.742188 250.925781 450.585938 251.9375 441.164062 252.652344 Z M 419.410156 183.140625 C 421.542969 181.941406 423.804688 180.324219 425.46875 180.679688 C 427.15625 181.039062 426.695312 181.457031 427.921875 182.617188 C 425.109375 182.839844 422.273438 183.023438 419.410156 183.140625 Z M 466.6875 234.347656 C 468.273438 235.722656 468.484375 236.308594 470.792969 237.148438 C 473.46875 238.140625 472.480469 238.984375 474.027344 240.257812 C 475.582031 241.535156 476.71875 241.378906 479.113281 241.378906 C 481.519531 241.378906 482.507812 243.648438 483.78125 243.917969 C 485.042969 244.207031 485.480469 244.632812 486.457031 243.917969 C 487.449219 243.21875 487.449219 244.914062 487.449219 242.226562 C 487.449219 239.542969 488.023438 241.105469 487.449219 237.996094 C 486.882812 234.886719 484.769531 226.984375 482.789062 223.460938 C 480.808594 219.929688 481.800781 220.074219 483.5 218.519531 C 485.183594 216.964844 487.015625 217.390625 487.015625 214.710938 C 487.015625 212.019531 485.460938 211.460938 487.015625 207.929688 C 487.644531 206.511719 488.300781 206 488.824219 205.542969 C 497.894531 215.5 507.09375 226.515625 516.011719 238.8125 C 502.789062 243.050781 487.984375 246.53125 471.984375 249.066406 C 470.253906 243.976562 468.492188 239.070312 466.6875 234.347656 Z M 406.535156 183.3125 C 401.78125 183.265625 397.101562 183.074219 392.523438 182.738281 C 391.734375 181.535156 396.097656 182.050781 397.089844 181.453125 C 398.15625 180.8125 401.746094 182.082031 401.746094 182.082031 C 401.746094 182.082031 403.664062 182.507812 405.285156 182.292969 C 406.03125 182.191406 406.242188 182.28125 406.3125 182.398438 C 406.390625 182.195312 406.5 181.855469 406.621094 181.488281 C 406.59375 182.109375 406.566406 182.695312 406.535156 183.3125 Z M 389.886719 171.480469 C 388.460938 170.699219 387.652344 170.046875 386.675781 170.035156 C 385.449219 170.019531 386.929688 170.441406 385.449219 170.019531 C 383.96875 169.597656 382.273438 170.035156 382.273438 170.035156 C 381.425781 171.085938 381.84375 169.8125 381.425781 171.085938 C 381 172.355469 381 174.636719 381.84375 174.5625 C 382.699219 174.46875 381.425781 173.835938 382.699219 174.46875 C 383.96875 175.109375 382.898438 175.109375 383.96875 175.109375 C 385.023438 175.109375 384.890625 174.429688 385.703125 174.554688 C 386.503906 174.675781 384.816406 173.625 386.503906 174.675781 C 387.246094 175.136719 387.671875 175.351562 388.023438 175.5 C 387.097656 177.515625 386.117188 179.703125 385.144531 181.84375 C 385.117188 181.832031 385.0625 181.785156 385.0625 181.785156 C 385.0625 181.785156 384.972656 181.894531 384.875 182.035156 C 384.429688 181.976562 383.988281 181.941406 383.550781 181.894531 C 383.550781 181.855469 383.539062 181.832031 383.550781 181.785156 C 383.757812 179.335938 383.757812 179.335938 383.757812 179.335938 L 382.910156 178.253906 C 382.910156 178.253906 382.3125 178.027344 381.132812 178.253906 C 379.953125 178.492188 378.265625 179.980469 378.367188 180.605469 C 378.449219 181.136719 379.109375 180.59375 378.703125 181.261719 C 377.316406 181.066406 375.898438 180.878906 374.523438 180.664062 C 374.574219 180.449219 374.621094 180.265625 374.65625 179.945312 C 374.867188 178.066406 374.65625 175.988281 374.65625 175.988281 C 374.65625 175.988281 374.960938 174.816406 375.761719 173.230469 C 386.855469 161.292969 396.03125 152.140625 401.878906 146.484375 C 399 152.242188 394.828125 160.816406 389.886719 171.480469 Z M 421.445312 335.40625 C 422.730469 333.707031 424.417969 336.257812 428.855469 333.078125 C 433.304688 329.898438 430.554688 331.800781 430.980469 330.753906 C 431.40625 329.6875 430.980469 329.476562 430.980469 328.429688 C 430.980469 327.363281 431.820312 325.671875 431.820312 325.03125 C 431.820312 324.394531 433.09375 323.546875 434.359375 322.492188 C 435.625 321.441406 436.058594 321.652344 437.96875 320.796875 C 439.867188 319.953125 440.714844 319.101562 441.339844 318.695312 C 441.992188 318.269531 442.625 316.78125 446.648438 314.238281 C 450.660156 311.699219 446.851562 315.71875 446.425781 316.78125 C 446.011719 317.84375 442.414062 320.796875 443.039062 323.769531 C 443.679688 326.730469 444.097656 324.613281 446.425781 324.191406 C 448.75 323.769531 452.359375 320.167969 452.992188 319.101562 C 453.632812 318.039062 458.929688 314.023438 458.714844 313.183594 C 458.503906 312.332031 458.503906 311.273438 458.503906 311.273438 C 458.503906 311.273438 456.601562 310.640625 454.0625 309.367188 C 451.515625 308.097656 454.0625 309.367188 450.253906 308.304688 C 446.429688 307.242188 450.253906 308.304688 448.554688 306.402344 C 446.855469 304.503906 448.554688 306.402344 446.230469 305.558594 C 443.902344 304.710938 446.230469 305.558594 446.230469 304.078125 C 446.230469 302.59375 448.351562 303.007812 450.039062 300.175781 C 451.738281 297.332031 451.097656 298.136719 450.039062 296.871094 C 448.980469 295.605469 448.757812 296.664062 446.429688 296.664062 C 444.105469 296.664062 443.902344 296.871094 440.304688 297.929688 C 436.695312 299 440.304688 297.929688 438.820312 300.179688 C 437.335938 302.425781 437.761719 301.746094 436.695312 302.597656 C 435.636719 303.4375 434.582031 304.082031 430.558594 304.507812 C 426.535156 304.921875 430.558594 304.507812 431.1875 303.226562 C 431.824219 301.953125 431.1875 303.226562 433.3125 300.179688 C 435.421875 297.125 435.222656 298.359375 436.269531 296.875 C 437.339844 295.390625 439.453125 294.976562 440.9375 293.910156 C 442.425781 292.847656 443.476562 293.277344 445.597656 292.847656 C 447.71875 292.429688 452.175781 292.847656 456.402344 292.640625 C 460.625 292.429688 460 292.003906 461.058594 290.734375 C 462.117188 289.460938 463.382812 286.921875 463.816406 285.4375 C 464.246094 283.953125 465.300781 284.164062 465.726562 283.539062 C 466.140625 282.898438 468.472656 280.78125 468.265625 279.507812 C 468.042969 278.242188 467.839844 276.976562 466.78125 276.328125 C 465.722656 275.703125 464.667969 275.703125 462.542969 274.851562 C 460.429688 274.011719 460.855469 274.425781 460.855469 271.886719 C 460.855469 269.347656 460.855469 271.886719 460.21875 271.671875 C 459.589844 271.460938 456.40625 269.980469 453.863281 268.914062 C 451.324219 267.855469 452.601562 268.707031 449.851562 268.074219 C 447.097656 267.441406 447.300781 262.992188 446.242188 261.933594 C 445.332031 261.027344 444.261719 258.160156 443.058594 255.875 C 452.1875 255.132812 461.117188 254.121094 469.695312 252.820312 C 471.265625 257.539062 472.820312 262.386719 474.304688 267.414062 C 476.925781 276.191406 479.421875 285.683594 481.769531 295.804688 C 480.984375 295 480.863281 295.039062 480.121094 294.234375 C 479.175781 293.175781 481.816406 293.277344 478.75 292.644531 C 475.679688 292.011719 474.621094 291.796875 473.78125 292.011719 C 472.929688 292.222656 472.398438 292.121094 472.398438 292.121094 C 472.398438 292.121094 472.082031 292.011719 471.65625 291.585938 C 471.230469 291.171875 470.699219 290.101562 470.699219 289.257812 C 470.699219 288.417969 470.699219 287.359375 470.699219 286.722656 C 470.699219 286.09375 471.128906 285.34375 470.597656 285.449219 C 470.066406 285.5625 469.539062 285.449219 469.539062 285.449219 C 467.839844 287.890625 465.941406 288.941406 466.03125 289.6875 C 466.148438 290.429688 465.820312 291.585938 466.03125 292.121094 C 466.257812 292.648438 466.101562 293.285156 465.953125 294.128906 C 465.832031 294.980469 465.398438 294.871094 465.101562 296.46875 C 464.773438 298.050781 464.132812 299.222656 464.132812 299.640625 C 464.132812 300.066406 463.707031 300.277344 464.132812 301.433594 C 464.558594 302.605469 461.277344 302.074219 464.558594 302.605469 C 467.839844 303.132812 466.785156 302.390625 470.171875 302.605469 C 473.554688 302.8125 472.613281 302.28125 475.570312 301.859375 C 478.542969 301.433594 479.382812 300.691406 480.019531 300.796875 C 480.648438 300.90625 479.277344 301.925781 478.75 302.792969 C 478.21875 303.664062 480.117188 303.65625 481.507812 303.65625 C 482.496094 303.65625 482.992188 304.082031 483.597656 304.007812 C 485.375 312.292969 487.015625 320.996094 488.488281 330.117188 C 467.269531 333.222656 444.699219 335.128906 421.332031 335.625 C 421.367188 335.527344 421.390625 335.488281 421.445312 335.40625 Z M 486.445312 301.175781 C 486.515625 300.921875 486.457031 300.652344 486.257812 300.308594 C 483.566406 288.109375 480.621094 276.808594 477.550781 266.445312 C 476.101562 261.558594 474.59375 256.867188 473.066406 252.253906 C 489.371094 249.625 504.457031 245.996094 517.941406 241.582031 C 520.503906 245.164062 523.046875 248.765625 525.539062 252.546875 C 537.019531 269.957031 548.34375 290.429688 558.023438 313.960938 C 538.429688 320.554688 516.054688 325.867188 491.824219 329.601562 C 490.199219 319.625 488.402344 310.15625 486.445312 301.175781 Z M 519.398438 237.742188 C 509.773438 224.386719 499.8125 212.390625 489.996094 201.75 C 489.984375 201.492188 489.996094 201.296875 489.984375 201.007812 C 489.691406 195.5 490.976562 197.480469 491.816406 195.925781 C 492.667969 194.363281 490.421875 192.109375 488.148438 190.703125 C 485.886719 189.289062 480.941406 185.898438 479.398438 183.785156 C 478.511719 182.582031 476.015625 179.546875 473.632812 176.945312 C 478.316406 175.269531 482.59375 173.394531 486.417969 171.355469 C 503.382812 181.359375 521.78125 194.179688 539.835938 210.585938 C 544.1875 214.546875 548.3125 218.589844 552.335938 222.683594 C 543.28125 228.339844 532.207031 233.425781 519.398438 237.742188 Z M 470.984375 174.25 C 470.21875 173.542969 469.542969 172.980469 469.09375 172.765625 C 466.980469 171.789062 468.398438 174.324219 464.859375 170.226562 C 461.339844 166.144531 459.640625 166.558594 458.078125 165.996094 C 456.535156 165.4375 455.265625 164.730469 453.417969 163.179688 C 451.589844 161.621094 452.867188 162.476562 450.878906 161.34375 C 448.898438 160.214844 448.496094 159.519531 444.957031 157.113281 C 442.867188 155.691406 441.054688 155.71875 439.875 155.960938 C 431.800781 149.808594 424.976562 145.121094 420.019531 141.910156 C 420.941406 142.128906 422.0625 142.394531 423.097656 142.644531 C 434.613281 146.257812 456.796875 154.328125 482.96875 169.351562 C 479.359375 171.113281 475.371094 172.765625 470.984375 174.25 Z M 435.390625 156.824219 C 435.085938 156.769531 434.375 156.410156 432.816406 155.410156 C 428.855469 152.871094 426.472656 151.878906 425.476562 152.304688 C 425.074219 152.472656 424.664062 152.699219 424.296875 152.894531 C 422.089844 149.800781 420.070312 147.066406 418.359375 144.875 C 422.722656 147.707031 428.503906 151.667969 435.390625 156.824219 Z M 407.746094 157.578125 C 406.042969 157.878906 403.421875 159.871094 402.171875 160.492188 C 401.164062 161 399.695312 162.085938 397.027344 164.195312 C 402.835938 151.972656 407.015625 143.773438 408.597656 140.699219 C 408.4375 143.847656 408.140625 149.59375 407.746094 157.578125 Z M 365.835938 179.0625 C 364.683594 178.828125 363.578125 178.558594 362.460938 178.296875 C 362.582031 178.195312 362.636719 178.183594 362.800781 178.0625 C 365.128906 176.164062 364.277344 177.507812 366.179688 175.988281 C 368.085938 174.46875 365.128906 175.734375 368.085938 174.464844 C 371.050781 173.191406 371.050781 173.191406 371.050781 173.191406 L 371.050781 170.867188 L 367.695312 171.078125 C 367.453125 171.492188 368.933594 168.539062 365.335938 171.078125 C 361.730469 173.617188 360.25 173.191406 359.824219 173.832031 C 359.398438 174.46875 357.925781 175.988281 357.925781 175.988281 C 357.925781 175.988281 355.601562 174.542969 355.8125 175.988281 C 355.847656 176.277344 355.859375 176.457031 355.871094 176.644531 C 352.894531 175.828125 350.078125 174.941406 347.367188 174.003906 C 369.628906 159.777344 388.242188 149.941406 398.875 144.667969 C 391.660156 151.667969 379.933594 163.457031 365.835938 179.0625 Z M 362.507812 182 C 362.199219 182.316406 362.035156 182.628906 361.523438 183.359375 C 360.460938 184.84375 357.707031 184.417969 360.460938 184.84375 C 360.527344 184.855469 360.574219 184.867188 360.636719 184.878906 C 359.078125 186.632812 357.546875 188.34375 355.953125 190.179688 C 355.726562 189.996094 355.59375 189.679688 355.59375 189.082031 C 355.59375 186.328125 354.316406 188.660156 355.59375 186.328125 C 356.867188 183.996094 357.921875 182.089844 357.074219 181.878906 C 356.226562 181.664062 353.683594 181.878906 353.683594 181.878906 C 351.785156 182.304688 347.972656 182.304688 345.648438 184.210938 C 343.308594 186.117188 342.890625 185.902344 341.402344 187.808594 C 339.925781 189.714844 339.078125 189.714844 338.652344 190.347656 C 338.226562 190.980469 335.695312 192.195312 336.953125 192.648438 C 338.226562 193.097656 338.652344 191.980469 340.136719 192.648438 C 341.621094 193.3125 342.894531 194.792969 342.894531 194.792969 C 342.894531 194.792969 342.894531 195.644531 343.109375 196.488281 C 343.308594 197.328125 340.558594 199.453125 340.777344 200.085938 C 340.984375 200.71875 340.144531 202.414062 340.777344 203.683594 C 341.382812 204.910156 340.496094 204.617188 342.3125 206.28125 C 341.097656 207.753906 339.894531 209.210938 338.660156 210.71875 C 338.164062 210.738281 337.972656 210.714844 337.597656 210.46875 C 336.960938 210.039062 336.960938 208.554688 336.960938 208.554688 C 336.960938 208.554688 338.871094 207.285156 338.871094 206.65625 C 338.871094 206.023438 338.660156 205.171875 338.660156 205.171875 L 337.171875 203.265625 C 337.171875 203.265625 334.847656 200.9375 334.519531 200.300781 C 334.179688 199.660156 332.515625 199.230469 332.515625 199.230469 C 332.515625 199.230469 332.089844 196.695312 332.089844 194.574219 C 332.089844 192.460938 329.972656 192.878906 329.972656 192.878906 C 329.972656 192.878906 328.285156 192.878906 326.800781 192.878906 C 325.308594 192.878906 324.46875 193.511719 323.410156 193.726562 C 322.414062 193.925781 321.167969 193.75 318.417969 193.730469 C 327.085938 187.429688 335.539062 181.648438 343.546875 176.4375 C 349.285156 178.589844 355.601562 180.484375 362.507812 182 Z M 315.730469 195.71875 C 315.78125 195.671875 315.828125 195.636719 315.878906 195.601562 C 315.820312 195.636719 315.804688 195.671875 315.730469 195.71875 Z M 405.285156 493.179688 C 404.683594 493.40625 404.441406 493.808594 404.105469 494.183594 C 404.015625 488.507812 403.941406 482.800781 403.871094 477.078125 C 403.992188 477.449219 404.074219 477.71875 404.074219 477.71875 L 406.195312 478.765625 C 406.203125 478.765625 406.414062 492.75 405.285156 493.179688 Z M 409.34375 417.824219 C 408.953125 417.824219 408.578125 417.824219 408.1875 417.8125 C 408.089844 417.734375 408.011719 417.660156 407.894531 417.578125 C 406.628906 416.519531 407.492188 415.464844 404.515625 415.667969 C 404.152344 415.699219 403.984375 415.722656 403.714844 415.757812 C 403.8125 398.839844 403.996094 381.960938 404.269531 365.371094 C 405.058594 364.789062 405.8125 364.21875 406.828125 363.574219 C 408.523438 362.515625 406.828125 363.574219 409.0625 361.039062 C 411.28125 358.496094 408.949219 358.917969 409.0625 357.222656 C 409.15625 355.539062 410.21875 348.117188 411.492188 348.753906 C 412.765625 349.382812 411.492188 348.753906 414.25 348.964844 C 417.007812 349.171875 414.25 348.964844 415.320312 346.632812 C 416.367188 344.300781 417.648438 344.09375 418.066406 343.035156 C 418.480469 341.984375 418.90625 340.925781 419.539062 339.042969 C 443.851562 338.628906 467.179688 336.742188 489.023438 333.605469 C 492.679688 357.085938 495.195312 383.277344 495.871094 412.183594 C 468.566406 415.855469 439.449219 417.824219 409.34375 417.824219 Z M 492.371094 333.113281 C 516.980469 329.394531 539.582031 324.054688 559.382812 317.398438 C 568.410156 339.976562 575.886719 365.316406 580.613281 393.46875 C 556.539062 401.332031 529.039062 407.539062 499.242188 411.722656 C 498.550781 382.824219 496.035156 356.625 492.371094 333.113281 Z M 486.554688 167.492188 C 473.894531 160.128906 462.179688 154.40625 451.957031 149.953125 C 464.742188 153.417969 479.265625 157.644531 493.964844 162.511719 C 491.804688 164.246094 489.359375 165.925781 486.554688 167.492188 Z M 400.726562 139.988281 C 390.550781 144.910156 369.226562 155.859375 343.320312 172.570312 C 336.84375 170.054688 331.308594 167.175781 326.902344 164.054688 C 358.519531 150.433594 384.679688 143.078125 396.589844 140.089844 C 397.96875 140.054688 399.339844 140.015625 400.726562 139.988281 Z M 339.683594 174.96875 C 331.3125 180.445312 322.5625 186.460938 313.542969 193.105469 C 313.53125 192.746094 313.574219 192.40625 313.449219 192.039062 C 313.023438 190.761719 312.609375 189.28125 311.964844 188.226562 C 311.332031 187.164062 311.125 185.691406 310.691406 184.203125 C 310.265625 182.726562 310.480469 182.726562 309.628906 181.238281 C 308.785156 179.753906 307.300781 178.269531 306.871094 177.003906 C 306.449219 175.730469 306.027344 175.730469 304.761719 175.945312 C 303.496094 176.15625 303.492188 175.730469 302.425781 176.15625 C 301.882812 176.371094 301.601562 176.203125 301.0625 176.0625 C 308.632812 172.246094 316.046875 168.800781 323.207031 165.652344 C 327.570312 169.105469 333.121094 172.230469 339.683594 174.96875 Z M 282.109375 186.328125 C 281.476562 187.167969 281.042969 187.167969 280.199219 187.601562 C 279.992188 187.703125 279.835938 187.671875 279.710938 187.542969 C 280.542969 187.070312 281.359375 186.632812 282.195312 186.160156 C 282.160156 186.21875 282.15625 186.257812 282.109375 186.328125 Z M 261.996094 213.851562 C 262.621094 213.851562 261.148438 214.910156 260.085938 215.394531 C 259.371094 215.734375 259.140625 216.855469 259.003906 217.8125 C 258.230469 217.226562 257.476562 216.65625 256.757812 216.066406 C 258.203125 215.382812 261.496094 213.851562 261.996094 213.851562 Z M 263.050781 218.933594 C 263.6875 218.933594 265.585938 217.875 265.585938 217.875 C 265.585938 217.875 268.125 216.816406 268.34375 215.550781 C 268.5625 214.285156 269.191406 221.472656 269.191406 221.472656 C 269.191406 221.472656 269.558594 223.339844 269.75 224.917969 C 266.550781 223.085938 263.574219 221.1875 260.855469 219.230469 C 261.789062 219.109375 262.753906 218.933594 263.050781 218.933594 Z M 272.171875 231.496094 C 272.59375 232.761719 273.210938 234.621094 273.007812 235.457031 C 272.785156 236.304688 272.582031 237.363281 271.933594 238.214844 C 271.308594 239.0625 271.308594 244.144531 270.453125 244.996094 C 269.613281 245.835938 270.453125 247.109375 269.824219 249.652344 C 269.191406 252.191406 270.453125 252.835938 270.453125 252.835938 L 269.824219 256.007812 C 269.824219 256.007812 268.765625 259.613281 268.125 260.882812 C 267.5 262.15625 267.066406 263.636719 267.066406 263.636719 C 267.066406 263.636719 267.699219 267.875 266.226562 269.144531 C 264.742188 270.417969 266.226562 269.144531 265.585938 269.777344 C 264.953125 270.410156 264.746094 272.3125 264.320312 273.800781 C 263.902344 275.28125 266.226562 278.460938 266.441406 279.511719 C 266.648438 280.578125 266.648438 281.632812 266.441406 282.484375 C 266.226562 283.332031 267.28125 285.660156 266.648438 287.148438 C 266.015625 288.632812 264.101562 296.042969 263.042969 298.152344 C 261.988281 300.277344 259.660156 303.449219 258.171875 305.570312 C 256.78125 307.566406 256.453125 308.699219 254.472656 312.183594 C 239.878906 306.945312 227.039062 300.964844 216.296875 294.359375 C 230.789062 273.894531 246.839844 255.882812 262.65625 240.472656 C 265.816406 237.398438 268.996094 234.414062 272.171875 231.496094 Z M 255.886719 346.382812 C 256.695312 346.949219 256.917969 347.332031 258.390625 348.964844 C 260.292969 351.082031 260.292969 362.722656 260.71875 364.847656 C 261.144531 366.957031 263.902344 368.230469 263.902344 368.230469 C 263.902344 368.230469 264.101562 369.714844 263.902344 370.773438 C 263.6875 371.828125 263.902344 373.734375 263.078125 374.582031 C 262.25 375.433594 263.257812 375.863281 263.257812 375.863281 C 263.257812 375.863281 262.832031 376.917969 263.257812 377.765625 C 263.683594 378.609375 263.257812 379.664062 263.257812 379.664062 C 263.257812 379.664062 265.367188 381.15625 266.648438 381.789062 C 267.925781 382.414062 268.972656 383.058594 268.765625 383.6875 C 268.550781 384.316406 269.1875 389.195312 269.394531 390.890625 C 269.605469 392.582031 270.246094 392.582031 270.246094 393.429688 C 270.246094 394.273438 272.570312 397.660156 272.570312 398.304688 C 272.570312 398.9375 274.46875 399.992188 274.46875 399.992188 L 275.53125 399.992188 C 275.53125 399.992188 275.957031 397.234375 275.957031 396.605469 C 275.957031 395.972656 275.957031 394.707031 275.957031 394.707031 C 275.957031 394.707031 275.53125 393.636719 274.46875 392.800781 C 273.410156 391.953125 272.996094 389.398438 272.996094 389.398438 C 272.996094 389.398438 272.996094 386.445312 272.570312 385.8125 C 272.144531 385.171875 271.085938 380.515625 271.085938 380.515625 L 270.445312 376.910156 C 270.445312 376.910156 269.386719 373.308594 269.179688 372.679688 C 268.96875 372.042969 268.96875 371.195312 268.546875 370.355469 C 268.121094 369.503906 268.332031 367.171875 268.332031 367.171875 L 266.640625 361.449219 C 266.640625 361.449219 269.605469 360.613281 271.328125 361.449219 C 273.042969 362.300781 273.199219 366.542969 271.511719 369.082031 C 269.8125 371.621094 280.179688 382.632812 280.179688 382.632812 C 280.179688 382.632812 280.40625 384.972656 280.1875 386.449219 C 279.980469 387.929688 282.304688 388.351562 282.304688 389.832031 C 282.304688 391.316406 289.5 402.972656 290.570312 406.140625 C 290.640625 406.371094 290.628906 406.605469 290.6875 406.820312 C 271.707031 403.105469 253.929688 398.535156 237.726562 393.214844 C 242.769531 377.25 248.925781 361.605469 255.886719 346.382812 Z M 290.921875 410.242188 C 290.800781 412.246094 290.453125 414.441406 290.578125 417.144531 C 290.78125 421.816406 295.449219 424.566406 295.449219 424.566406 L 300.53125 428.164062 L 304.769531 429.636719 C 304.769531 429.636719 305.914062 430.277344 307.679688 431.199219 C 304.261719 455.226562 302.304688 479.761719 302.507812 503.945312 C 273.421875 499.085938 246.6875 492.300781 223.449219 483.964844 C 223.378906 480.140625 223.386719 476.285156 223.515625 472.40625 C 224.304688 446.710938 229.175781 421.191406 236.773438 396.335938 C 253.355469 401.804688 271.546875 406.46875 290.921875 410.242188 Z M 310.859375 432.84375 C 316.132812 435.5 323.476562 438.957031 327.425781 439.589844 C 333.988281 440.664062 336.742188 438.117188 339.707031 439.589844 C 342.675781 441.078125 347.539062 446.375 350.296875 449.335938 C 353.054688 452.300781 352.835938 450.398438 354.535156 451.449219 C 356.222656 452.5 356.859375 451.664062 360.671875 452.734375 C 364.472656 453.78125 368.289062 461.191406 368.289062 462.890625 C 368.289062 464.574219 369.554688 466.074219 371.046875 468.601562 C 372.53125 471.148438 373.578125 468.601562 375.917969 468.601562 C 378.253906 468.601562 379.734375 474.332031 380.796875 474.109375 C 381.851562 473.90625 385.242188 473.90625 385.242188 473.90625 C 385.242188 473.90625 388.835938 476.019531 390.53125 477.71875 L 393.289062 475.179688 L 396.25 472.84375 L 398.792969 471.785156 C 398.792969 471.785156 399.582031 472.113281 400.453125 472.492188 C 400.527344 480.371094 400.636719 488.207031 400.773438 495.980469 C 399.378906 497.003906 397.835938 498.421875 396.894531 499.105469 C 395.402344 500.175781 394.34375 505.671875 392.65625 509.269531 C 392.195312 510.238281 391.890625 511.285156 391.667969 512.316406 C 361.75 511.539062 332.84375 508.875 305.898438 504.523438 C 305.660156 480.710938 307.539062 456.546875 310.859375 432.84375 Z M 391.222656 515.703125 C 391.152344 516.917969 391.152344 517.917969 391.152344 518.152344 C 391.152344 518.792969 392.863281 520.492188 392.863281 522.199219 C 392.863281 523.863281 392.863281 522.199219 392.011719 522.402344 C 391.160156 522.605469 389.898438 525.789062 389.054688 526.839844 C 388.207031 527.898438 389.054688 531.710938 389.054688 532.976562 C 389.054688 534.246094 390.738281 535.949219 392.652344 536.585938 C 394.03125 537.046875 398.964844 539.667969 401.996094 541.714844 C 402.597656 558.078125 403.363281 573.839844 404.359375 588.761719 C 373.617188 588.523438 343.757812 586.234375 315.808594 582.105469 C 309.402344 558.628906 306.402344 533.644531 305.914062 508.175781 C 332.632812 512.363281 361.335938 514.949219 391.222656 515.703125 Z M 405.496094 545.382812 C 406.71875 547.328125 408.164062 549.84375 408.941406 550.785156 C 409.980469 552.042969 409.804688 554.582031 409.0625 555.867188 C 408.308594 557.128906 411.078125 557.554688 411.707031 559.25 C 412.332031 560.9375 413.390625 560.726562 413.820312 561.789062 C 414.246094 562.847656 415.929688 564.328125 417.003906 566.027344 C 418.0625 567.714844 423.347656 569.828125 426.109375 570.050781 C 428.855469 570.253906 436.902344 572.164062 437.753906 574.71875 C 438.058594 575.652344 437.730469 581.300781 437.082031 588.214844 C 427.929688 588.59375 418.6875 588.816406 409.34375 588.816406 C 408.816406 588.816406 408.285156 588.808594 407.746094 588.808594 C 406.828125 574.996094 406.09375 560.449219 405.496094 545.382812 Z M 409.34375 592.214844 C 418.578125 592.214844 427.699219 591.96875 436.746094 591.617188 C 435.554688 602.789062 433.691406 615.65625 432.25 617.476562 C 429.84375 620.484375 429.148438 619.738281 424.570312 639.433594 C 420.523438 639.546875 416.464844 639.679688 412.441406 639.691406 C 410.648438 625.320312 409.160156 609.347656 407.980469 592.1875 C 408.4375 592.191406 408.898438 592.214844 409.34375 592.214844 Z M 463.171875 635.488281 C 463.585938 634.835938 466.980469 634.636719 467.828125 634.429688 C 467.828125 634.429688 467.863281 634.417969 467.886719 634.40625 C 467.730469 634.957031 467.582031 635.515625 467.4375 636.070312 C 465.882812 636.269531 464.355469 636.398438 462.804688 636.578125 C 462.945312 636.042969 463.078125 635.613281 463.171875 635.488281 Z M 536.074219 500.542969 C 533.511719 499.765625 533.433594 499.945312 531.992188 499.742188 C 530.507812 499.53125 528.183594 499.316406 524.585938 497.832031 C 520.976562 496.347656 517.589844 498.257812 517.589844 498.257812 L 521.402344 494.863281 C 521.402344 494.863281 521.613281 492.105469 519.5 488.304688 C 516.742188 475.375 500.214844 476.433594 498.949219 476.433594 C 498.570312 476.433594 498.160156 476.445312 497.734375 476.421875 C 499.21875 454.824219 499.703125 434.347656 499.328125 415.101562 C 529.234375 410.898438 556.898438 404.660156 581.171875 396.738281 C 585.558594 424.417969 587.222656 454.796875 585.089844 487.816406 C 569.96875 492.726562 553.546875 497.003906 536.074219 500.542969 Z M 584.441406 395.671875 C 596.867188 391.488281 608.332031 386.859375 618.734375 381.839844 C 619.351562 386.554688 620.527344 390.90625 622.839844 393.640625 C 628.5625 400.421875 628.5625 399.996094 628.339844 405.296875 C 628.136719 410.582031 628.136719 413.753906 629.410156 414.605469 C 630.679688 415.460938 633.433594 420.542969 634.695312 422.230469 C 635.964844 423.914062 635.765625 425.828125 637.664062 428.367188 C 639.496094 430.808594 638.101562 431.894531 645.085938 433.851562 C 645.917969 442.488281 646.5 451.03125 646.851562 459.453125 C 631.175781 469.84375 611.4375 478.996094 588.578125 486.675781 C 590.601562 453.691406 588.875 423.347656 584.441406 395.671875 Z M 644.652344 293.054688 C 644.652344 293.054688 639.769531 290.082031 638.917969 291.152344 C 638.085938 292.210938 633.433594 297.921875 633.433594 297.921875 C 633.433594 297.921875 631.523438 304.277344 631.097656 304.917969 C 630.679688 305.550781 621.777344 312.753906 621.351562 313.386719 C 620.980469 313.972656 620.261719 315.792969 619.96875 318.019531 C 618.375 314.289062 616.722656 310.628906 615.035156 307.054688 C 615.304688 307.046875 615.542969 307.011719 615.859375 307.042969 C 618.617188 307.25 622.425781 306.859375 623.066406 307.375 C 623.691406 307.894531 625.605469 307.042969 627.503906 304.710938 C 629.414062 302.386719 628.574219 300.898438 627.503906 297.300781 C 626.433594 293.703125 624.332031 291.792969 623.90625 289.035156 C 623.589844 286.996094 622.9375 286.109375 622.523438 283.46875 C 627.019531 279.304688 630.789062 274.972656 633.800781 270.503906 C 638.128906 277.820312 642.132812 285.367188 645.742188 293.117188 Z M 520.625 168.484375 C 514.003906 165.898438 507.210938 163.429688 500.371094 161.089844 C 501.183594 160.210938 501.855469 159.304688 502.507812 158.398438 C 507.949219 160.542969 513.324219 162.835938 518.597656 165.339844 C 519.085938 166.359375 519.816406 167.46875 520.625 168.484375 Z M 496.820312 159.898438 C 472.398438 151.714844 448.101562 145.253906 431.582031 141.183594 C 455.175781 143.519531 477.863281 148.984375 499.25 157.117188 C 498.539062 158.0625 497.734375 158.996094 496.820312 159.898438 Z M 380.222656 141.09375 C 366.042969 145.292969 346.292969 151.945312 323.902344 161.679688 C 321.3125 159.46875 319.265625 157.148438 317.871094 154.734375 C 337.703125 147.792969 358.582031 143.128906 380.222656 141.09375 Z M 249.285156 206.824219 C 249.140625 207.363281 249.015625 207.871094 248.925781 208.382812 C 248.6875 208.105469 248.433594 207.835938 248.207031 207.554688 C 248.554688 207.292969 248.925781 207.070312 249.285156 206.824219 Z M 247.933594 212.03125 C 247.714844 213.132812 248.144531 213.640625 247.804688 215.335938 C 247.378906 217.457031 247.804688 215.335938 246.53125 215.976562 C 246.222656 216.121094 246.074219 216.195312 245.996094 216.234375 C 245.996094 216.234375 245.957031 216.257812 245.945312 216.265625 C 245.917969 216.28125 245.863281 216.304688 245.675781 216.390625 C 244.835938 216.816406 244.414062 217.664062 243.574219 217.664062 C 242.722656 217.664062 240.597656 218.933594 240.597656 218.933594 C 240.597656 218.933594 238.691406 220 237.417969 220 C 236.152344 220 236.359375 221.058594 234.886719 221.273438 C 233.40625 221.480469 232.980469 221.480469 231.710938 221.480469 C 230.429688 221.480469 231.710938 223.605469 231.710938 223.605469 C 231.710938 223.605469 236.152344 224.019531 237.839844 223.8125 C 239.539062 223.605469 240.175781 223.390625 241.445312 222.964844 C 242.714844 222.542969 245.253906 222.542969 246.324219 221.90625 C 247.375 221.273438 249.917969 219.792969 249.917969 219.792969 C 249.917969 219.792969 253.09375 219.152344 253.9375 218.941406 C 254.265625 218.859375 254.511719 218.617188 254.707031 218.355469 C 259.144531 221.984375 264.355469 225.441406 270.226562 228.675781 C 266.921875 231.710938 263.636719 234.789062 260.367188 237.960938 C 244.355469 253.566406 228.101562 271.792969 213.4375 292.523438 C 200.484375 284.152344 190.910156 274.855469 185.40625 264.886719 C 203.464844 243.113281 224.230469 224.753906 245.664062 209.402344 C 246.382812 210.28125 247.136719 211.164062 247.933594 212.03125 Z M 214.496094 296.9375 C 225.375 303.621094 238.285156 309.703125 252.917969 315.019531 C 252.007812 316.847656 252.21875 316.984375 252.21875 316.984375 C 252.21875 316.984375 252.882812 325.464844 252.46875 328.855469 C 252.042969 332.238281 252.25 340.070312 252.46875 342.625 C 252.558594 343.710938 252.75 344.207031 253.054688 344.558594 C 245.953125 360.027344 239.640625 375.917969 234.511719 392.144531 C 212.4375 384.65625 193.398438 375.777344 178.359375 365.785156 C 187.613281 340.464844 200.21875 317.484375 214.496094 296.9375 Z M 223.585938 488.039062 C 246.832031 496.261719 273.480469 502.894531 302.535156 507.636719 C 302.996094 533.035156 305.917969 558.019531 312.195312 581.554688 C 286.097656 577.519531 261.757812 571.929688 240.066406 564.933594 C 229.988281 540.640625 224.511719 514.949219 223.585938 488.039062 Z M 316.859375 585.679688 C 344.605469 589.703125 374.183594 591.933594 404.597656 592.132812 C 405.777344 609.3125 407.238281 625.316406 409.027344 639.742188 C 383.671875 639.652344 359.695312 637.46875 337.785156 634.175781 C 328.699219 619.121094 321.832031 602.835938 316.859375 585.679688 Z M 423.796875 642.835938 C 423.785156 642.855469 423.785156 642.878906 423.773438 642.902344 C 418.476562 666.1875 423.773438 669.789062 423.773438 669.789062 C 423.773438 669.789062 427.167969 669.359375 427.796875 668.726562 C 428.433594 668.101562 432.464844 668.101562 433.519531 667.445312 C 434.578125 666.828125 434.578125 666.605469 435.214844 665.554688 C 435.832031 664.496094 436.691406 663.65625 436.691406 663.65625 C 436.691406 663.65625 439.242188 661.105469 440.085938 659.832031 C 440.925781 658.574219 442.199219 657.722656 442.625 656.449219 C 443.039062 655.175781 442.625 654.964844 442.625 654.964844 C 442.625 654.964844 443.464844 652.636719 443.683594 651.792969 C 443.898438 650.9375 445.167969 651.367188 446.222656 650.9375 C 447.277344 650.511719 448.550781 649.878906 448.980469 649.027344 C 449.40625 648.1875 450.039062 646.082031 450.039062 644.8125 C 450.039062 643.53125 451.738281 642.902344 453 642.265625 C 454.269531 641.625 455.757812 643.324219 458.722656 643.105469 C 460.015625 643.011719 460.9375 641.664062 461.601562 640.109375 C 463.242188 639.933594 464.859375 639.78125 466.492188 639.59375 C 464.265625 647.992188 461.882812 656.511719 459.355469 665.148438 C 445.707031 667.980469 431.652344 669.746094 417.324219 670.398438 C 415.660156 662.199219 414.199219 653.046875 412.886719 643.074219 C 416.496094 643.070312 420.140625 642.941406 423.796875 642.835938 Z M 470.109375 639.203125 C 499.8125 635.34375 530.195312 628.550781 560.957031 619.097656 C 560.96875 619.097656 560.980469 619.109375 561 619.109375 C 561.359375 619.109375 561.710938 618.988281 561.992188 618.78125 C 562.453125 618.636719 562.902344 618.488281 563.363281 618.355469 C 534.003906 640.191406 499.992188 656.058594 463.125 664.277344 C 465.578125 655.808594 467.925781 647.4375 470.109375 639.203125 Z M 471.0625 635.625 C 471.21875 634.988281 471.367188 634.367188 471.523438 633.738281 C 472.433594 633.582031 473.332031 633.445312 473.964844 633.371094 C 475.664062 633.15625 476.289062 632.085938 478.621094 631.246094 C 480.949219 630.410156 480.320312 630.410156 483.292969 627.859375 C 486.261719 625.320312 476.09375 620.664062 478.621094 618.539062 C 481.171875 616.425781 479.046875 619.601562 481.59375 621.304688 C 484.132812 622.992188 483.292969 621.71875 485.414062 621.71875 C 487.527344 621.71875 487.730469 621.503906 490.273438 620.867188 C 492.8125 620.25 492.8125 620.867188 494.941406 619.59375 C 497.054688 618.332031 494.941406 619.59375 497.914062 617.269531 C 500.871094 614.941406 499.183594 616.21875 501.710938 613.671875 C 504.261719 611.132812 503.625 611.757812 506.164062 608.160156 C 508.703125 604.5625 508.0625 605.203125 516.542969 600.125 C 525.011719 595.042969 517.816406 596.738281 517.382812 593.34375 C 516.96875 589.957031 518.023438 591.015625 519.507812 588.058594 C 520.449219 586.136719 529.167969 582.59375 536.789062 579.554688 C 549.269531 576.902344 561.1875 573.867188 572.488281 570.460938 C 568.992188 585.203125 564.75 600.355469 559.6875 615.949219 C 529.671875 625.144531 500.050781 631.769531 471.0625 635.625 Z M 549.261719 573.246094 C 549.097656 572.832031 549.144531 572.089844 550.207031 570.484375 C 553.378906 565.601562 555.289062 564.546875 555.917969 563.074219 C 556.558594 561.566406 558.890625 558.824219 559.515625 556.492188 C 560.15625 554.15625 560.367188 555.007812 560.15625 553.535156 C 559.941406 552.039062 558.671875 542.71875 560.996094 538.28125 C 563.320312 533.839844 566.503906 532.355469 569.261719 528.113281 C 572.007812 523.863281 572.007812 524.71875 574.132812 522.402344 C 576.246094 520.078125 577.304688 517.308594 577.730469 514.769531 C 578.144531 512.230469 577.730469 509.910156 576.042969 508.210938 C 574.347656 506.503906 573.285156 508.210938 570.960938 506.097656 C 568.636719 503.976562 567.554688 503.773438 562.054688 502.691406 C 556.558594 501.644531 558.457031 503.976562 552.535156 503.542969 C 546.609375 503.113281 549.78125 504.390625 545.753906 503.976562 C 542.074219 503.59375 545.078125 503.882812 544.492188 502.167969 C 558.714844 499.054688 572.214844 495.445312 584.835938 491.40625 C 583.113281 515.121094 579.433594 540.183594 573.34375 566.660156 C 565.613281 569.027344 557.582031 571.230469 549.261719 573.246094 Z M 650.339844 461.097656 C 656.683594 456.792969 662.359375 452.261719 667.292969 447.558594 C 663.886719 468.730469 657.996094 489.09375 649.878906 508.296875 C 650.773438 491.851562 650.871094 476.148438 650.339844 461.097656 Z M 650.164062 457.15625 C 649.847656 449.632812 649.375 442.269531 648.722656 435.105469 C 652.9375 437.132812 650.8125 439.28125 655.871094 436.207031 C 661.796875 432.609375 665.183594 428.171875 668.164062 424.34375 C 668.917969 423.363281 669.570312 422.417969 670.15625 421.53125 C 669.742188 428.410156 669.042969 435.214844 668.101562 441.964844 C 663.046875 447.257812 657.042969 452.320312 650.164062 457.15625 Z M 239.128906 198.527344 C 240.21875 201.320312 241.75 204.046875 243.632812 206.714844 C 222.378906 221.941406 201.75 240.097656 183.738281 261.582031 C 183.53125 261.144531 183.351562 260.707031 183.167969 260.261719 C 198.492188 236.867188 217.410156 216.023438 239.128906 198.527344 Z M 147.621094 341.714844 C 153.871094 350.691406 162.886719 359.152344 174.285156 366.96875 C 165.277344 392.335938 159.667969 419.996094 159.144531 449.855469 C 151.582031 443.546875 145.492188 436.902344 141.070312 429.976562 C 140.308594 421.847656 139.871094 413.617188 139.871094 405.296875 C 139.871094 383.382812 142.59375 362.101562 147.621094 341.714844 Z M 176.183594 539.039062 C 192.550781 550.09375 213.378906 559.742188 237.535156 567.632812 C 245.019531 585.351562 254.886719 602.375 267.140625 618.605469 C 255.304688 615.148438 245.238281 611.734375 237.257812 608.835938 C 236.652344 608.632812 236.097656 608.859375 235.648438 609.226562 C 211.980469 589.515625 191.839844 565.746094 176.183594 539.039062 Z M 363.890625 667.445312 C 354.738281 658.359375 346.808594 648.5 340.074219 637.941406 C 361.507812 641.042969 384.84375 643.070312 409.476562 643.121094 C 410.773438 653.105469 412.242188 662.257812 413.875 670.488281 C 411.019531 670.570312 408.164062 670.695312 405.285156 670.695312 C 391.210938 670.695312 377.382812 669.578125 363.890625 667.445312 Z M 570.914062 612.449219 C 568.472656 613.25 566.042969 613.957031 563.605469 614.730469 C 568.570312 599.15625 572.792969 584 576.226562 569.28125 C 596.222656 563.027344 614.199219 555.628906 629.421875 547.164062 C 613.617188 572.03125 593.832031 594.101562 570.914062 612.449219 Z M 570.914062 612.449219 "/></g><path style=" stroke:none;fill-rule:nonzero;fill:#4b0e82;fill-opacity:1;" d="M 424.199219 428.171875 C 423.984375 429.003906 420.8125 428.796875 419.972656 430.28125 C 419.121094 431.757812 417.648438 433.039062 419.972656 433.242188 C 422.296875 433.453125 423.570312 433.039062 426.109375 433.242188 C 428.648438 433.453125 426.109375 433.78125 429.496094 433.3125 C 432.878906 432.828125 431.40625 433.886719 434.789062 432.414062 C 438.175781 430.925781 440.300781 430.714844 442.199219 430.714844 C 444.097656 430.714844 444.097656 428.90625 444.957031 429.476562 C 445.796875 430.074219 446.429688 431.648438 446.429688 429.476562 C 446.429688 427.316406 446.230469 426.519531 442.632812 426.496094 C 439.023438 426.472656 437.972656 426.519531 436.695312 426.496094 C 435.421875 426.472656 432.578125 426.496094 432.578125 426.496094 L 429.5 425.414062 C 425.261719 425.613281 424.203125 426.496094 424.203125 426.496094 C 424.203125 426.496094 426.113281 427.957031 426.847656 428.171875 C 427.59375 428.371094 424.410156 427.3125 424.199219 428.171875 Z M 424.199219 428.171875 "/><path style=" stroke:none;fill-rule:nonzero;fill:#4b0e82;fill-opacity:1;" d="M 454.019531 432.6875 C 455.964844 432.609375 454.90625 433.039062 455.964844 432.609375 C 457.023438 432.175781 455.75 433.234375 457.023438 432.183594 C 458.296875 431.128906 458.296875 431.125 458.296875 431.125 C 458.296875 431.125 458.722656 430.28125 459.355469 430.28125 C 459.992188 430.28125 459.992188 428.675781 459.355469 429.472656 C 458.726562 430.28125 455.554688 429.472656 455.554688 429.472656 C 454.070312 429.636719 452.796875 429.851562 452.597656 430.28125 C 452.371094 430.707031 452.597656 430.707031 452.597656 431.554688 C 452.589844 432.40625 452.0625 432.765625 454.019531 432.6875 Z M 454.019531 432.6875 "/><path style=" stroke:none;fill-rule:nonzero;fill:#4b0e82;fill-opacity:1;" d="M 521.882812 206.089844 C 519.5 205.804688 519.355469 205.382812 518.21875 204.394531 C 517.078125 203.402344 515.777344 203.121094 515.304688 203.121094 C 514.832031 203.121094 514.125 203.121094 514.125 203.121094 C 513.132812 204.527344 512.707031 205.527344 512.570312 205.949219 C 512.425781 206.367188 510.738281 207.496094 510.738281 207.496094 C 510.738281 207.496094 510.59375 207.363281 509.605469 207.496094 C 508.625 207.640625 506.515625 204.957031 505.9375 207.496094 C 505.363281 210.035156 504.535156 209.757812 505.9375 211.457031 C 507.34375 213.15625 510.75 214.992188 512.292969 215.976562 C 513.847656 216.964844 513.417969 217.957031 516.960938 218.371094 C 520.492188 218.796875 519.074219 220.496094 521.882812 217.53125 C 524.714844 214.558594 524.289062 216.824219 524.867188 213.15625 C 525.429688 209.476562 525.832031 209.917969 524.867188 208.34375 C 523.875 206.800781 524.289062 206.375 521.882812 206.089844 Z M 521.882812 206.089844 "/><path style=" stroke:none;fill-rule:nonzero;fill:#4b0e82;fill-opacity:1;" d="M 370.535156 200.324219 C 370.464844 200.425781 370.476562 200.460938 370.535156 200.324219 Z M 370.535156 200.324219 "/><path style=" stroke:none;fill-rule:nonzero;fill:#4b0e82;fill-opacity:1;" d="M 370.632812 199.660156 C 370.632812 200.019531 370.578125 200.207031 370.535156 200.324219 C 370.632812 200.15625 370.9375 199.855469 371.890625 199.660156 C 374.003906 199.234375 372.957031 200.085938 374.003906 199.234375 C 375.0625 198.394531 373.378906 199.234375 375.0625 198.394531 C 376.761719 197.554688 376.335938 199.234375 376.761719 197.554688 C 377.1875 195.855469 376.136719 197.328125 376.761719 195.113281 C 377.402344 192.890625 376.554688 194.375 377.402344 192.890625 C 378.242188 191.410156 377.613281 192.679688 378.242188 191.410156 C 378.875 190.140625 376.589844 190.347656 376.589844 190.347656 C 376.589844 190.347656 376.128906 190.554688 375.058594 191.621094 C 374 192.679688 371.886719 192.890625 371.039062 193.523438 C 370.199219 194.15625 371.039062 192.046875 370.199219 194.15625 C 369.347656 196.277344 369.773438 196.863281 370.199219 198.261719 C 370.632812 199.660156 370.632812 198.183594 370.632812 199.660156 Z M 370.632812 199.660156 "/><path style=" stroke:none;fill-rule:nonzero;fill:#4b0e82;fill-opacity:1;" d="M 394.765625 232.277344 C 393.710938 231.007812 394.117188 229.949219 392.214844 229.949219 C 390.320312 229.949219 390.320312 229.949219 390.320312 229.949219 C 390.320312 229.949219 388.207031 231.226562 388 232.488281 C 387.785156 233.757812 386.429688 233.125 386.679688 234.390625 C 386.933594 235.664062 384.949219 234.605469 386.679688 236.722656 C 388.414062 238.835938 389.472656 238.414062 390.324219 239.257812 C 391.164062 240.097656 389.480469 241.375 390.324219 241.800781 C 391.164062 242.222656 389.046875 243.28125 392.21875 241.800781 C 395.410156 240.316406 393.078125 242.429688 395.410156 240.316406 C 397.738281 238.195312 397.527344 240.097656 397.738281 238.195312 C 397.953125 236.292969 399.226562 236.71875 397.738281 235.230469 C 396.242188 233.757812 395.824219 233.546875 394.765625 232.277344 Z M 394.765625 232.277344 "/></g></svg>