<svg xmlns="http://www.w3.org/2000/svg" xmlns:xlink="http://www.w3.org/1999/xlink" width="1080" zoomAndPan="magnify" viewBox="0 0 810 809.999993" height="1080" preserveAspectRatio="xMidYMid meet" version="1.2"><defs><clipPath id="8d71db291c"><path d="M 566 575 L 649 575 L 649 657.511719 L 566 657.511719 Z M 566 575 "/></clipPath><clipPath id="6526e10a1c"><path d="M 189 164.761719 L 239 164.761719 L 239 215 L 189 215 Z M 189 164.761719 "/></clipPath><clipPath id="aa6b550d54"><path d="M 172.570312 214 L 255 214 L 255 297 L 172.570312 297 Z M 172.570312 214 "/></clipPath></defs><g id="4e87544c41"><path style=" stroke:none;fill-rule:nonzero;fill:#4b0e82;fill-opacity:1;" d="M 330.367188 429.453125 L 325.113281 432.351562 C 324.601562 432.617188 324.125 432.933594 323.679688 433.300781 C 323.234375 433.664062 322.828125 434.074219 322.464844 434.519531 C 322.105469 434.96875 321.789062 435.449219 321.527344 435.960938 C 321.261719 436.472656 321.050781 437.003906 320.894531 437.558594 C 320.742188 438.113281 320.640625 438.679688 320.601562 439.253906 C 320.5625 439.828125 320.578125 440.398438 320.65625 440.972656 C 320.734375 441.542969 320.867188 442.097656 321.054688 442.644531 C 321.246094 443.1875 321.488281 443.707031 321.785156 444.199219 L 336.335938 468.289062 C 336.648438 468.789062 337.007812 469.253906 337.410156 469.683594 C 337.8125 470.113281 338.253906 470.503906 338.730469 470.851562 C 339.207031 471.199219 339.710938 471.496094 340.246094 471.75 C 340.78125 472 341.332031 472.199219 341.902344 472.34375 C 342.472656 472.492188 343.054688 472.582031 343.644531 472.617188 C 344.230469 472.652344 344.820312 472.632812 345.402344 472.558594 C 345.988281 472.480469 346.5625 472.351562 347.121094 472.167969 C 347.679688 471.980469 348.21875 471.746094 348.734375 471.457031 L 354.046875 468.5625 C 354.855469 468.128906 355.710938 467.820312 356.613281 467.632812 C 357.511719 467.449219 358.417969 467.390625 359.335938 467.464844 C 360.25 467.535156 361.136719 467.734375 361.996094 468.0625 C 362.855469 468.386719 363.652344 468.828125 364.382812 469.382812 C 369.636719 473.230469 375.285156 476.371094 381.332031 478.800781 C 382.175781 479.101562 382.957031 479.519531 383.671875 480.054688 C 384.390625 480.589844 385.015625 481.222656 385.542969 481.945312 C 386.070312 482.671875 386.476562 483.457031 386.765625 484.304688 C 387.058594 485.152344 387.214844 486.023438 387.242188 486.917969 L 387.242188 492.734375 C 387.257812 493.316406 387.328125 493.894531 387.453125 494.460938 C 387.582031 495.03125 387.761719 495.582031 388 496.117188 C 388.234375 496.652344 388.523438 497.15625 388.855469 497.632812 C 389.191406 498.109375 389.570312 498.550781 389.996094 498.953125 C 390.417969 499.355469 390.875 499.714844 391.367188 500.027344 C 391.859375 500.339844 392.378906 500.597656 392.921875 500.808594 C 393.46875 501.019531 394.027344 501.175781 394.601562 501.273438 C 395.175781 501.375 395.757812 501.417969 396.339844 501.402344 L 425.4375 501.402344 C 426.019531 501.417969 426.597656 501.371094 427.171875 501.269531 C 427.746094 501.167969 428.304688 501.011719 428.847656 500.800781 C 429.390625 500.589844 429.90625 500.328125 430.398438 500.015625 C 430.890625 499.703125 431.347656 499.347656 431.769531 498.945312 C 432.1875 498.542969 432.566406 498.101562 432.902344 497.625 C 433.234375 497.148438 433.519531 496.644531 433.757812 496.109375 C 433.992188 495.578125 434.171875 495.027344 434.300781 494.460938 C 434.425781 493.890625 434.496094 493.316406 434.511719 492.734375 L 434.511719 486.917969 C 434.539062 486.023438 434.695312 485.152344 434.984375 484.304688 C 435.277344 483.457031 435.683594 482.671875 436.210938 481.945312 C 436.738281 481.222656 437.363281 480.589844 438.082031 480.054688 C 438.796875 479.519531 439.578125 479.101562 440.421875 478.800781 C 446.476562 476.371094 452.132812 473.234375 457.394531 469.382812 C 458.128906 468.828125 458.921875 468.386719 459.78125 468.0625 C 460.640625 467.734375 461.527344 467.535156 462.445312 467.464844 C 463.359375 467.390625 464.265625 467.449219 465.167969 467.632812 C 466.066406 467.820312 466.921875 468.128906 467.730469 468.5625 L 473.042969 471.492188 C 473.558594 471.777344 474.097656 472.015625 474.65625 472.199219 C 475.21875 472.382812 475.789062 472.515625 476.375 472.589844 C 476.960938 472.664062 477.546875 472.6875 478.136719 472.648438 C 478.722656 472.613281 479.304688 472.523438 479.875 472.378906 C 480.445312 472.230469 481 472.03125 481.53125 471.78125 C 482.066406 471.53125 482.570312 471.230469 483.046875 470.882812 C 483.523438 470.535156 483.964844 470.148438 484.367188 469.71875 C 484.769531 469.285156 485.128906 468.820312 485.441406 468.324219 L 499.992188 444.230469 C 500.289062 443.738281 500.535156 443.222656 500.726562 442.679688 C 500.917969 442.136719 501.050781 441.582031 501.128906 441.011719 C 501.207031 440.441406 501.226562 439.867188 501.1875 439.292969 C 501.148438 438.71875 501.054688 438.15625 500.898438 437.601562 C 500.746094 437.046875 500.539062 436.515625 500.273438 436 C 500.011719 435.488281 499.703125 435.007812 499.339844 434.5625 C 498.980469 434.113281 498.578125 433.703125 498.136719 433.339844 C 497.691406 432.972656 497.214844 432.652344 496.707031 432.382812 L 491.453125 429.484375 C 490.695312 429.09375 490.015625 428.59375 489.410156 427.996094 C 488.804688 427.394531 488.300781 426.714844 487.902344 425.960938 C 487.503906 425.207031 487.226562 424.414062 487.070312 423.574219 C 486.914062 422.734375 486.886719 421.890625 486.984375 421.046875 C 487.945312 414.425781 487.945312 407.808594 486.984375 401.191406 C 486.886719 400.34375 486.914062 399.5 487.070312 398.664062 C 487.226562 397.824219 487.503906 397.027344 487.902344 396.273438 C 488.300781 395.519531 488.804688 394.84375 489.410156 394.242188 C 490.015625 393.640625 490.695312 393.144531 491.453125 392.75 L 496.707031 389.851562 C 497.214844 389.582031 497.691406 389.265625 498.136719 388.898438 C 498.578125 388.53125 498.980469 388.125 499.339844 387.675781 C 499.703125 387.226562 500.011719 386.746094 500.273438 386.234375 C 500.539062 385.722656 500.746094 385.1875 500.898438 384.636719 C 501.054688 384.082031 501.148438 383.515625 501.1875 382.941406 C 501.226562 382.367188 501.207031 381.796875 501.128906 381.226562 C 501.050781 380.65625 500.917969 380.101562 500.726562 379.558594 C 500.535156 379.015625 500.289062 378.496094 499.992188 378.003906 L 485.441406 353.882812 C 485.128906 353.382812 484.769531 352.917969 484.367188 352.488281 C 483.964844 352.054688 483.523438 351.667969 483.046875 351.320312 C 482.570312 350.972656 482.066406 350.671875 481.53125 350.421875 C 481 350.171875 480.445312 349.972656 479.875 349.824219 C 479.304688 349.679688 478.722656 349.589844 478.136719 349.554688 C 477.546875 349.515625 476.960938 349.539062 476.375 349.613281 C 475.789062 349.6875 475.21875 349.820312 474.65625 350.003906 C 474.097656 350.1875 473.558594 350.425781 473.042969 350.710938 L 467.730469 353.609375 C 466.921875 354.039062 466.066406 354.347656 465.167969 354.535156 C 464.265625 354.722656 463.359375 354.78125 462.445312 354.707031 C 461.527344 354.632812 460.640625 354.433594 459.78125 354.109375 C 458.921875 353.78125 458.128906 353.34375 457.394531 352.789062 C 452.140625 348.9375 446.492188 345.800781 440.449219 343.371094 C 439.605469 343.070312 438.824219 342.652344 438.105469 342.117188 C 437.386719 341.578125 436.765625 340.949219 436.238281 340.226562 C 435.710938 339.5 435.300781 338.714844 435.011719 337.867188 C 434.722656 337.019531 434.5625 336.148438 434.535156 335.25 L 434.535156 329.4375 C 434.523438 328.855469 434.453125 328.277344 434.324219 327.707031 C 434.195312 327.140625 434.015625 326.585938 433.777344 326.054688 C 433.542969 325.519531 433.257812 325.015625 432.921875 324.539062 C 432.585938 324.058594 432.207031 323.621094 431.785156 323.21875 C 431.363281 322.816406 430.902344 322.457031 430.410156 322.144531 C 429.917969 321.832031 429.398438 321.570312 428.855469 321.359375 C 428.3125 321.152344 427.75 320.996094 427.175781 320.894531 C 426.601562 320.796875 426.023438 320.753906 425.4375 320.765625 L 396.339844 320.765625 C 395.757812 320.753906 395.179688 320.800781 394.605469 320.898438 C 394.03125 321 393.472656 321.15625 392.929688 321.367188 C 392.386719 321.578125 391.871094 321.839844 391.378906 322.152344 C 390.886719 322.464844 390.429688 322.824219 390.011719 323.226562 C 389.589844 323.628906 389.210938 324.070312 388.875 324.546875 C 388.542969 325.023438 388.257812 325.527344 388.023438 326.058594 C 387.785156 326.59375 387.605469 327.144531 387.476562 327.710938 C 387.351562 328.28125 387.28125 328.855469 387.265625 329.4375 L 387.265625 335.25 C 387.238281 336.148438 387.082031 337.019531 386.792969 337.867188 C 386.503906 338.714844 386.09375 339.5 385.566406 340.226562 C 385.039062 340.949219 384.414062 341.578125 383.699219 342.117188 C 382.980469 342.652344 382.199219 343.070312 381.355469 343.371094 C 375.300781 345.796875 369.644531 348.9375 364.382812 352.789062 C 363.652344 353.34375 362.855469 353.78125 361.996094 354.109375 C 361.136719 354.433594 360.25 354.632812 359.335938 354.707031 C 358.417969 354.78125 357.511719 354.722656 356.613281 354.535156 C 355.710938 354.347656 354.855469 354.039062 354.046875 353.609375 L 348.734375 350.679688 C 348.21875 350.390625 347.679688 350.15625 347.121094 349.972656 C 346.5625 349.785156 345.988281 349.65625 345.402344 349.582031 C 344.820312 349.503906 344.230469 349.484375 343.644531 349.519531 C 343.054688 349.554688 342.472656 349.648438 341.902344 349.792969 C 341.332031 349.9375 340.78125 350.136719 340.246094 350.390625 C 339.710938 350.640625 339.207031 350.9375 338.730469 351.285156 C 338.253906 351.632812 337.8125 352.023438 337.410156 352.453125 C 337.007812 352.882812 336.648438 353.347656 336.335938 353.847656 L 321.785156 377.9375 C 321.488281 378.433594 321.246094 378.953125 321.054688 379.496094 C 320.867188 380.039062 320.734375 380.597656 320.65625 381.167969 C 320.578125 381.738281 320.5625 382.3125 320.601562 382.886719 C 320.640625 383.460938 320.742188 384.023438 320.894531 384.578125 C 321.050781 385.132812 321.261719 385.667969 321.527344 386.179688 C 321.789062 386.691406 322.105469 387.171875 322.464844 387.617188 C 322.828125 388.066406 323.234375 388.472656 323.679688 388.835938 C 324.125 389.203125 324.601562 389.519531 325.113281 389.785156 L 330.367188 392.683594 C 331.125 393.078125 331.804688 393.574219 332.410156 394.175781 C 333.015625 394.777344 333.519531 395.453125 333.917969 396.207031 C 334.316406 396.960938 334.59375 397.757812 334.75 398.597656 C 334.90625 399.4375 334.933594 400.277344 334.832031 401.125 C 333.875 407.742188 333.875 414.363281 334.832031 420.980469 C 334.9375 421.828125 334.914062 422.675781 334.757812 423.515625 C 334.605469 424.359375 334.328125 425.160156 333.925781 425.914062 C 333.527344 426.671875 333.023438 427.355469 332.417969 427.957031 C 331.808594 428.558594 331.125 429.058594 330.367188 429.453125 Z M 410.890625 374.136719 C 412.097656 374.136719 413.304688 374.195312 414.511719 374.316406 C 415.714844 374.433594 416.910156 374.609375 418.097656 374.847656 C 419.285156 375.082031 420.457031 375.375 421.613281 375.726562 C 422.773438 376.078125 423.910156 376.488281 425.027344 376.949219 C 426.148438 377.414062 427.238281 377.929688 428.304688 378.5 C 429.375 379.070312 430.410156 379.691406 431.417969 380.363281 C 432.421875 381.035156 433.394531 381.757812 434.328125 382.523438 C 435.265625 383.292969 436.160156 384.101562 437.015625 384.957031 C 437.871094 385.816406 438.683594 386.710938 439.449219 387.644531 C 440.21875 388.582031 440.9375 389.550781 441.609375 390.558594 C 442.28125 391.5625 442.902344 392.601562 443.476562 393.667969 C 444.046875 394.734375 444.5625 395.828125 445.023438 396.945312 C 445.488281 398.0625 445.894531 399.203125 446.246094 400.359375 C 446.597656 401.519531 446.890625 402.691406 447.128906 403.878906 C 447.363281 405.0625 447.539062 406.257812 447.660156 407.464844 C 447.777344 408.667969 447.835938 409.875 447.835938 411.085938 C 447.835938 412.296875 447.777344 413.503906 447.660156 414.707031 C 447.539062 415.910156 447.363281 417.105469 447.128906 418.292969 C 446.890625 419.480469 446.597656 420.652344 446.246094 421.8125 C 445.894531 422.96875 445.488281 424.105469 445.023438 425.226562 C 444.5625 426.34375 444.046875 427.433594 443.476562 428.503906 C 442.902344 429.570312 442.28125 430.605469 441.609375 431.613281 C 440.9375 432.617188 440.21875 433.589844 439.449219 434.523438 C 438.683594 435.460938 437.871094 436.355469 437.015625 437.210938 C 436.160156 438.066406 435.265625 438.878906 434.328125 439.648438 C 433.394531 440.414062 432.421875 441.132812 431.417969 441.808594 C 430.410156 442.480469 429.375 443.101562 428.304688 443.671875 C 427.238281 444.242188 426.148438 444.757812 425.027344 445.222656 C 423.910156 445.683594 422.773438 446.089844 421.613281 446.441406 C 420.457031 446.792969 419.285156 447.085938 418.097656 447.324219 C 416.910156 447.558594 415.714844 447.738281 414.511719 447.855469 C 413.304688 447.972656 412.097656 448.035156 410.890625 448.035156 C 409.679688 448.035156 408.472656 447.972656 407.265625 447.855469 C 406.0625 447.738281 404.867188 447.558594 403.679688 447.324219 C 402.492188 447.085938 401.320312 446.792969 400.164062 446.441406 C 399.003906 446.089844 397.867188 445.683594 396.75 445.222656 C 395.632812 444.757812 394.539062 444.242188 393.472656 443.671875 C 392.40625 443.101562 391.367188 442.480469 390.363281 441.808594 C 389.355469 441.132812 388.386719 440.414062 387.449219 439.648438 C 386.515625 438.878906 385.617188 438.066406 384.761719 437.210938 C 383.90625 436.355469 383.09375 435.460938 382.328125 434.523438 C 381.558594 433.589844 380.839844 432.617188 380.167969 431.613281 C 379.496094 430.605469 378.875 429.570312 378.304688 428.503906 C 377.734375 427.433594 377.214844 426.34375 376.753906 425.226562 C 376.289062 424.105469 375.882812 422.96875 375.53125 421.8125 C 375.179688 420.652344 374.886719 419.480469 374.652344 418.292969 C 374.414062 417.105469 374.238281 415.910156 374.117188 414.707031 C 374 413.503906 373.941406 412.296875 373.941406 411.085938 C 373.941406 409.875 374 408.667969 374.117188 407.464844 C 374.238281 406.257812 374.414062 405.0625 374.652344 403.878906 C 374.886719 402.691406 375.179688 401.519531 375.53125 400.359375 C 375.882812 399.203125 376.289062 398.0625 376.753906 396.945312 C 377.214844 395.828125 377.734375 394.734375 378.304688 393.667969 C 378.875 392.601562 379.496094 391.5625 380.167969 390.558594 C 380.839844 389.550781 381.558594 388.582031 382.328125 387.644531 C 383.09375 386.710938 383.90625 385.816406 384.761719 384.957031 C 385.617188 384.101562 386.515625 383.292969 387.449219 382.523438 C 388.386719 381.757812 389.355469 381.035156 390.363281 380.363281 C 391.367188 379.691406 392.40625 379.070312 393.472656 378.5 C 394.539062 377.929688 395.632812 377.414062 396.75 376.949219 C 397.867188 376.488281 399.003906 376.078125 400.164062 375.726562 C 401.320312 375.375 402.492188 375.082031 403.679688 374.847656 C 404.867188 374.609375 406.0625 374.433594 407.269531 374.316406 C 408.472656 374.195312 409.679688 374.136719 410.890625 374.136719 Z M 410.890625 374.136719 "/><path style=" stroke:none;fill-rule:nonzero;fill:#4b0e82;fill-opacity:1;" d="M 632.578125 550.667969 C 632.578125 551.476562 632.539062 552.28125 632.460938 553.082031 C 632.382812 553.886719 632.261719 554.683594 632.105469 555.472656 C 631.949219 556.265625 631.753906 557.046875 631.519531 557.816406 C 631.285156 558.589844 631.011719 559.347656 630.703125 560.09375 C 630.394531 560.839844 630.050781 561.566406 629.671875 562.28125 C 629.289062 562.992188 628.875 563.683594 628.429688 564.351562 C 627.980469 565.023438 627.5 565.671875 626.988281 566.292969 C 626.476562 566.917969 625.933594 567.515625 625.363281 568.085938 C 624.792969 568.65625 624.195312 569.195312 623.574219 569.707031 C 622.949219 570.222656 622.300781 570.699219 621.632812 571.148438 C 620.960938 571.597656 620.269531 572.011719 619.558594 572.390625 C 618.847656 572.773438 618.117188 573.117188 617.375 573.425781 C 616.628906 573.734375 615.871094 574.003906 615.097656 574.238281 C 614.324219 574.472656 613.542969 574.667969 612.753906 574.828125 C 611.960938 574.984375 611.164062 575.101562 610.363281 575.179688 C 609.558594 575.261719 608.753906 575.300781 607.945312 575.300781 C 607.140625 575.300781 606.335938 575.261719 605.53125 575.179688 C 604.730469 575.101562 603.933594 574.984375 603.140625 574.828125 C 602.351562 574.667969 601.570312 574.472656 600.796875 574.238281 C 600.023438 574.003906 599.265625 573.734375 598.519531 573.425781 C 597.773438 573.117188 597.046875 572.773438 596.335938 572.390625 C 595.625 572.011719 594.933594 571.597656 594.261719 571.148438 C 593.589844 570.699219 592.945312 570.21875 592.320312 569.707031 C 591.695312 569.195312 591.101562 568.65625 590.53125 568.085938 C 589.957031 567.515625 589.417969 566.917969 588.90625 566.292969 C 588.394531 565.671875 587.914062 565.023438 587.464844 564.351562 C 587.019531 563.683594 586.601562 562.992188 586.222656 562.28125 C 585.84375 561.566406 585.5 560.839844 585.191406 560.09375 C 584.882812 559.347656 584.609375 558.589844 584.375 557.816406 C 584.140625 557.046875 583.945312 556.265625 583.789062 555.472656 C 583.628906 554.683594 583.511719 553.886719 583.433594 553.082031 C 583.355469 552.28125 583.316406 551.476562 583.316406 550.667969 C 583.316406 549.859375 583.355469 549.054688 583.433594 548.253906 C 583.511719 547.449219 583.628906 546.652344 583.789062 545.863281 C 583.945312 545.070312 584.140625 544.289062 584.375 543.519531 C 584.609375 542.746094 584.882812 541.988281 585.191406 541.242188 C 585.5 540.496094 585.84375 539.769531 586.222656 539.054688 C 586.601562 538.34375 587.019531 537.652344 587.464844 536.984375 C 587.914062 536.3125 588.394531 535.664062 588.90625 535.042969 C 589.417969 534.417969 589.957031 533.820312 590.53125 533.25 C 591.101562 532.679688 591.695312 532.140625 592.320312 531.628906 C 592.945312 531.113281 593.589844 530.636719 594.261719 530.1875 C 594.933594 529.738281 595.625 529.324219 596.335938 528.945312 C 597.046875 528.5625 597.773438 528.21875 598.519531 527.910156 C 599.265625 527.601562 600.023438 527.332031 600.796875 527.097656 C 601.570312 526.863281 602.351562 526.667969 603.140625 526.507812 C 603.933594 526.351562 604.730469 526.234375 605.53125 526.15625 C 606.335938 526.074219 607.140625 526.035156 607.945312 526.035156 C 608.753906 526.035156 609.558594 526.074219 610.363281 526.15625 C 611.164062 526.234375 611.960938 526.351562 612.753906 526.507812 C 613.542969 526.667969 614.324219 526.863281 615.097656 527.097656 C 615.871094 527.332031 616.628906 527.601562 617.375 527.910156 C 618.117188 528.21875 618.847656 528.5625 619.558594 528.945312 C 620.269531 529.324219 620.960938 529.738281 621.632812 530.1875 C 622.300781 530.636719 622.949219 531.113281 623.574219 531.628906 C 624.195312 532.140625 624.792969 532.679688 625.363281 533.25 C 625.933594 533.820312 626.476562 534.417969 626.988281 535.042969 C 627.5 535.664062 627.980469 536.3125 628.429688 536.984375 C 628.875 537.652344 629.289062 538.34375 629.671875 539.054688 C 630.050781 539.769531 630.394531 540.496094 630.703125 541.242188 C 631.011719 541.988281 631.285156 542.746094 631.519531 543.519531 C 631.753906 544.289062 631.949219 545.070312 632.105469 545.863281 C 632.261719 546.652344 632.382812 547.449219 632.460938 548.253906 C 632.539062 549.054688 632.578125 549.859375 632.578125 550.667969 Z M 632.578125 550.667969 "/><g clip-rule="nonzero" clip-path="url(#8d71db291c)"><path style=" stroke:none;fill-rule:nonzero;fill:#4b0e82;fill-opacity:1;" d="M 649 591.722656 C 649 591.183594 648.972656 590.648438 648.921875 590.113281 C 648.867188 589.578125 648.789062 589.046875 648.683594 588.519531 C 648.582031 587.992188 648.449219 587.46875 648.292969 586.953125 C 648.136719 586.441406 647.957031 585.933594 647.75 585.4375 C 647.542969 584.941406 647.316406 584.453125 647.0625 583.980469 C 646.808594 583.507812 646.53125 583.046875 646.234375 582.597656 C 645.933594 582.152344 645.613281 581.71875 645.273438 581.304688 C 644.933594 580.886719 644.570312 580.488281 644.191406 580.109375 C 643.8125 579.730469 643.414062 579.367188 642.996094 579.027344 C 642.582031 578.6875 642.148438 578.367188 641.703125 578.066406 C 641.253906 577.769531 640.792969 577.492188 640.320312 577.238281 C 639.847656 576.984375 639.359375 576.757812 638.863281 576.550781 C 638.367188 576.34375 637.859375 576.164062 637.347656 576.007812 C 636.832031 575.851562 636.308594 575.71875 635.78125 575.617188 C 635.253906 575.511719 634.722656 575.433594 634.1875 575.378906 C 633.652344 575.328125 633.117188 575.300781 632.578125 575.300781 L 583.316406 575.300781 C 582.777344 575.300781 582.242188 575.328125 581.707031 575.378906 C 581.167969 575.433594 580.636719 575.511719 580.109375 575.617188 C 579.582031 575.71875 579.0625 575.851562 578.546875 576.007812 C 578.03125 576.164062 577.527344 576.34375 577.03125 576.550781 C 576.535156 576.757812 576.046875 576.984375 575.574219 577.238281 C 575.097656 577.492188 574.636719 577.769531 574.191406 578.066406 C 573.746094 578.367188 573.3125 578.6875 572.898438 579.027344 C 572.480469 579.367188 572.082031 579.730469 571.703125 580.109375 C 571.324219 580.488281 570.960938 580.886719 570.621094 581.304688 C 570.28125 581.71875 569.960938 582.152344 569.660156 582.597656 C 569.363281 583.046875 569.085938 583.507812 568.832031 583.980469 C 568.578125 584.453125 568.347656 584.941406 568.144531 585.4375 C 567.9375 585.933594 567.757812 586.441406 567.601562 586.953125 C 567.445312 587.46875 567.3125 587.992188 567.207031 588.519531 C 567.105469 589.046875 567.023438 589.578125 566.972656 590.113281 C 566.917969 590.648438 566.894531 591.183594 566.894531 591.722656 L 566.894531 657.40625 L 649 657.40625 Z M 649 591.722656 "/></g><path style=" stroke:none;fill-rule:nonzero;fill:#4b0e82;fill-opacity:1;" d="M 402.679688 526.035156 L 419.101562 526.035156 L 419.101562 542.457031 L 402.679688 542.457031 Z M 402.679688 526.035156 "/><path style=" stroke:none;fill-rule:nonzero;fill:#4b0e82;fill-opacity:1;" d="M 402.679688 558.878906 L 419.101562 558.878906 L 419.101562 575.300781 L 402.679688 575.300781 Z M 402.679688 558.878906 "/><path style=" stroke:none;fill-rule:nonzero;fill:#4b0e82;fill-opacity:1;" d="M 402.679688 591.722656 L 419.101562 591.722656 L 419.101562 608.144531 L 402.679688 608.144531 Z M 402.679688 591.722656 "/><path style=" stroke:none;fill-rule:nonzero;fill:#4b0e82;fill-opacity:1;" d="M 435.519531 591.722656 L 451.941406 591.722656 L 451.941406 608.144531 L 435.519531 608.144531 Z M 435.519531 591.722656 "/><path style=" stroke:none;fill-rule:nonzero;fill:#4b0e82;fill-opacity:1;" d="M 468.363281 591.722656 L 484.785156 591.722656 L 484.785156 608.144531 L 468.363281 608.144531 Z M 468.363281 591.722656 "/><g clip-rule="nonzero" clip-path="url(#6526e10a1c)"><path style=" stroke:none;fill-rule:nonzero;fill:#4b0e82;fill-opacity:1;" d="M 238.464844 189.394531 C 238.464844 190.203125 238.425781 191.007812 238.34375 191.808594 C 238.265625 192.613281 238.148438 193.410156 237.992188 194.199219 C 237.832031 194.992188 237.636719 195.773438 237.402344 196.546875 C 237.167969 197.316406 236.898438 198.078125 236.589844 198.820312 C 236.28125 199.566406 235.933594 200.296875 235.554688 201.007812 C 235.175781 201.71875 234.761719 202.410156 234.3125 203.082031 C 233.863281 203.75 233.382812 204.398438 232.871094 205.023438 C 232.359375 205.644531 231.820312 206.242188 231.25 206.8125 C 230.679688 207.382812 230.082031 207.925781 229.457031 208.4375 C 228.835938 208.949219 228.1875 209.429688 227.515625 209.875 C 226.84375 210.324219 226.15625 210.738281 225.441406 211.117188 C 224.730469 211.5 224.003906 211.84375 223.257812 212.152344 C 222.511719 212.460938 221.753906 212.734375 220.980469 212.96875 C 220.210938 213.199219 219.429688 213.398438 218.636719 213.554688 C 217.84375 213.710938 217.046875 213.828125 216.246094 213.910156 C 215.441406 213.988281 214.636719 214.027344 213.832031 214.027344 C 213.023438 214.027344 212.21875 213.988281 211.417969 213.910156 C 210.613281 213.828125 209.816406 213.710938 209.027344 213.554688 C 208.234375 213.398438 207.453125 213.199219 206.679688 212.96875 C 205.910156 212.734375 205.148438 212.460938 204.40625 212.152344 C 203.660156 211.84375 202.929688 211.5 202.21875 211.117188 C 201.507812 210.738281 200.816406 210.324219 200.144531 209.875 C 199.476562 209.429688 198.828125 208.949219 198.203125 208.4375 C 197.582031 207.925781 196.984375 207.382812 196.414062 206.8125 C 195.84375 206.242188 195.300781 205.644531 194.789062 205.023438 C 194.277344 204.398438 193.796875 203.75 193.351562 203.082031 C 192.902344 202.410156 192.488281 201.71875 192.109375 201.007812 C 191.726562 200.296875 191.382812 199.566406 191.074219 198.820312 C 190.765625 198.078125 190.492188 197.316406 190.261719 196.546875 C 190.027344 195.773438 189.828125 194.992188 189.671875 194.199219 C 189.515625 193.410156 189.398438 192.613281 189.316406 191.808594 C 189.238281 191.007812 189.199219 190.203125 189.199219 189.394531 C 189.199219 188.589844 189.238281 187.785156 189.316406 186.980469 C 189.398438 186.179688 189.515625 185.382812 189.671875 184.589844 C 189.828125 183.796875 190.027344 183.015625 190.261719 182.246094 C 190.492188 181.472656 190.765625 180.714844 191.074219 179.96875 C 191.382812 179.222656 191.726562 178.496094 192.109375 177.785156 C 192.488281 177.074219 192.902344 176.382812 193.351562 175.710938 C 193.796875 175.039062 194.277344 174.390625 194.789062 173.769531 C 195.300781 173.144531 195.84375 172.546875 196.414062 171.976562 C 196.984375 171.40625 197.582031 170.867188 198.203125 170.355469 C 198.828125 169.84375 199.476562 169.363281 200.144531 168.914062 C 200.816406 168.464844 201.507812 168.050781 202.21875 167.671875 C 202.929688 167.292969 203.660156 166.945312 204.40625 166.636719 C 205.148438 166.328125 205.910156 166.058594 206.679688 165.824219 C 207.453125 165.589844 208.234375 165.394531 209.027344 165.238281 C 209.816406 165.078125 210.613281 164.960938 211.417969 164.882812 C 212.21875 164.800781 213.023438 164.761719 213.832031 164.761719 C 214.636719 164.761719 215.441406 164.800781 216.246094 164.882812 C 217.046875 164.960938 217.84375 165.078125 218.636719 165.238281 C 219.429688 165.394531 220.210938 165.589844 220.980469 165.824219 C 221.753906 166.058594 222.511719 166.328125 223.257812 166.636719 C 224.003906 166.945312 224.730469 167.292969 225.441406 167.671875 C 226.15625 168.050781 226.84375 168.464844 227.515625 168.914062 C 228.1875 169.363281 228.835938 169.84375 229.457031 170.355469 C 230.082031 170.867188 230.679688 171.40625 231.25 171.976562 C 231.820312 172.546875 232.359375 173.144531 232.871094 173.769531 C 233.382812 174.390625 233.863281 175.039062 234.3125 175.710938 C 234.761719 176.382812 235.175781 177.074219 235.554688 177.785156 C 235.933594 178.496094 236.28125 179.222656 236.589844 179.96875 C 236.898438 180.714844 237.167969 181.472656 237.402344 182.246094 C 237.636719 183.015625 237.832031 183.796875 237.992188 184.589844 C 238.148438 185.382812 238.265625 186.179688 238.34375 186.980469 C 238.425781 187.785156 238.464844 188.589844 238.464844 189.394531 Z M 238.464844 189.394531 "/></g><g clip-rule="nonzero" clip-path="url(#aa6b550d54)"><path style=" stroke:none;fill-rule:nonzero;fill:#4b0e82;fill-opacity:1;" d="M 254.886719 230.449219 C 254.886719 229.910156 254.859375 229.375 254.804688 228.839844 C 254.753906 228.304688 254.675781 227.773438 254.570312 227.246094 C 254.464844 226.71875 254.335938 226.195312 254.179688 225.683594 C 254.023438 225.167969 253.839844 224.660156 253.636719 224.164062 C 253.429688 223.667969 253.199219 223.183594 252.945312 222.707031 C 252.691406 222.234375 252.417969 221.773438 252.117188 221.324219 C 251.820312 220.878906 251.5 220.445312 251.15625 220.03125 C 250.816406 219.617188 250.457031 219.21875 250.074219 218.835938 C 249.695312 218.457031 249.296875 218.097656 248.882812 217.753906 C 248.464844 217.414062 248.035156 217.09375 247.585938 216.796875 C 247.140625 216.496094 246.679688 216.21875 246.203125 215.964844 C 245.730469 215.714844 245.246094 215.484375 244.746094 215.277344 C 244.25 215.070312 243.746094 214.890625 243.230469 214.734375 C 242.714844 214.578125 242.195312 214.449219 241.667969 214.34375 C 241.140625 214.238281 240.609375 214.160156 240.074219 214.105469 C 239.539062 214.054688 239 214.027344 238.464844 214.027344 L 189.199219 214.027344 C 188.660156 214.027344 188.125 214.054688 187.589844 214.105469 C 187.054688 214.160156 186.523438 214.238281 185.996094 214.34375 C 185.46875 214.449219 184.945312 214.578125 184.433594 214.734375 C 183.917969 214.890625 183.410156 215.070312 182.914062 215.277344 C 182.417969 215.484375 181.933594 215.714844 181.457031 215.964844 C 180.984375 216.21875 180.523438 216.496094 180.074219 216.796875 C 179.628906 217.09375 179.195312 217.414062 178.78125 217.753906 C 178.367188 218.097656 177.96875 218.457031 177.585938 218.835938 C 177.207031 219.21875 176.847656 219.617188 176.503906 220.03125 C 176.164062 220.445312 175.84375 220.878906 175.546875 221.324219 C 175.246094 221.773438 174.96875 222.234375 174.714844 222.707031 C 174.464844 223.183594 174.234375 223.667969 174.027344 224.164062 C 173.820312 224.660156 173.640625 225.167969 173.484375 225.683594 C 173.328125 226.195312 173.199219 226.71875 173.09375 227.246094 C 172.988281 227.773438 172.910156 228.304688 172.855469 228.839844 C 172.804688 229.375 172.777344 229.910156 172.777344 230.449219 L 172.777344 296.136719 L 254.886719 296.136719 Z M 254.886719 230.449219 "/></g><path style=" stroke:none;fill-rule:nonzero;fill:#4b0e82;fill-opacity:1;" d="M 402.679688 279.714844 L 419.101562 279.714844 L 419.101562 296.136719 L 402.679688 296.136719 Z M 402.679688 279.714844 "/><path style=" stroke:none;fill-rule:nonzero;fill:#4b0e82;fill-opacity:1;" d="M 402.679688 246.871094 L 419.101562 246.871094 L 419.101562 263.292969 L 402.679688 263.292969 Z M 402.679688 246.871094 "/><path style=" stroke:none;fill-rule:nonzero;fill:#4b0e82;fill-opacity:1;" d="M 402.679688 214.027344 L 419.101562 214.027344 L 419.101562 230.449219 L 402.679688 230.449219 Z M 402.679688 214.027344 "/><path style=" stroke:none;fill-rule:nonzero;fill:#4b0e82;fill-opacity:1;" d="M 369.835938 214.027344 L 386.257812 214.027344 L 386.257812 230.449219 L 369.835938 230.449219 Z M 369.835938 214.027344 "/><path style=" stroke:none;fill-rule:nonzero;fill:#4b0e82;fill-opacity:1;" d="M 336.992188 214.027344 L 353.414062 214.027344 L 353.414062 230.449219 L 336.992188 230.449219 Z M 336.992188 214.027344 "/><path style=" stroke:none;fill-rule:nonzero;fill:#4b0e82;fill-opacity:1;" d="M 320.570312 189.394531 L 271.304688 222.238281 L 320.570312 255.082031 Z M 320.570312 189.394531 "/><path style=" stroke:none;fill-rule:nonzero;fill:#4b0e82;fill-opacity:1;" d="M 501.207031 567.089844 L 501.207031 632.773438 L 550.472656 599.933594 Z M 501.207031 567.089844 "/></g></svg>