<svg xmlns="http://www.w3.org/2000/svg" xmlns:xlink="http://www.w3.org/1999/xlink" width="1080" zoomAndPan="magnify" viewBox="0 0 810 809.999993" height="1080" preserveAspectRatio="xMidYMid meet" version="1.2"><defs><clipPath id="b7b7afabb5"><path d="M 287 137.085938 L 421 137.085938 L 421 242 L 287 242 Z M 287 137.085938 "/></clipPath><clipPath id="50750ab4cd"><path d="M 189 582 L 264 582 L 264 672.585938 L 189 672.585938 Z M 189 582 "/></clipPath><clipPath id="30a2f433e7"><path d="M 308 538 L 383 538 L 383 672.585938 L 308 672.585938 Z M 308 538 "/></clipPath><clipPath id="e8a8a546b5"><path d="M 427 460 L 502 460 L 502 672.585938 L 427 672.585938 Z M 427 460 "/></clipPath><clipPath id="56fb0ea35c"><path d="M 546 445 L 620 445 L 620 672.585938 L 546 672.585938 Z M 546 445 "/></clipPath></defs><g id="01d6924635"><g clip-rule="nonzero" clip-path="url(#b7b7afabb5)"><path style=" stroke:none;fill-rule:nonzero;fill:#4b0e82;fill-opacity:1;" d="M 390.085938 215.714844 C 401.195312 207.386719 408.097656 195.8125 408.097656 183 C 408.097656 157.644531 381.105469 137.085938 347.808594 137.085938 C 314.511719 137.085938 287.519531 157.644531 287.519531 183 C 287.519531 208.359375 314.511719 228.917969 347.808594 228.917969 C 351.988281 228.917969 356.066406 228.59375 360.003906 227.976562 C 378.226562 242.421875 420.710938 241.878906 420.710938 241.878906 C 403.964844 235.621094 394.539062 223.289062 390.085938 215.714844 Z M 326.75 186.074219 C 326.75 188.71875 324.609375 190.855469 321.96875 190.855469 C 319.324219 190.855469 317.1875 188.71875 317.1875 186.074219 L 317.1875 176.886719 C 317.1875 174.242188 319.324219 172.105469 321.96875 172.105469 C 324.609375 172.105469 326.75 174.242188 326.75 176.886719 Z M 352.570312 186.074219 C 352.570312 188.71875 350.429688 190.855469 347.789062 190.855469 C 345.144531 190.855469 343.007812 188.71875 343.007812 186.074219 L 343.007812 176.886719 C 343.007812 174.242188 345.144531 172.105469 347.789062 172.105469 C 350.429688 172.105469 352.570312 174.242188 352.570312 176.886719 Z M 378.398438 186.074219 C 378.398438 188.71875 376.261719 190.855469 373.617188 190.855469 C 370.976562 190.855469 368.835938 188.71875 368.835938 186.074219 L 368.835938 176.886719 C 368.835938 174.242188 370.976562 172.105469 373.617188 172.105469 C 376.261719 172.105469 378.398438 174.242188 378.398438 176.886719 Z M 378.398438 186.074219 "/></g><g clip-rule="nonzero" clip-path="url(#50750ab4cd)"><path style=" stroke:none;fill-rule:nonzero;fill:#4b0e82;fill-opacity:1;" d="M 258.738281 582.460938 L 194.460938 582.460938 C 191.820312 582.460938 189.679688 584.601562 189.679688 587.242188 L 189.679688 667.804688 C 189.679688 670.449219 191.820312 672.585938 194.460938 672.585938 L 258.738281 672.585938 C 261.378906 672.585938 263.519531 670.449219 263.519531 667.804688 L 263.519531 587.242188 C 263.519531 584.601562 261.378906 582.460938 258.738281 582.460938 Z M 253.957031 663.023438 L 199.242188 663.023438 L 199.242188 592.023438 L 253.957031 592.023438 Z M 253.957031 663.023438 "/></g><g clip-rule="nonzero" clip-path="url(#30a2f433e7)"><path style=" stroke:none;fill-rule:nonzero;fill:#4b0e82;fill-opacity:1;" d="M 377.558594 538.328125 L 313.28125 538.328125 C 310.640625 538.328125 308.5 540.46875 308.5 543.109375 L 308.5 667.804688 C 308.5 670.449219 310.640625 672.585938 313.28125 672.585938 L 377.558594 672.585938 C 380.203125 672.585938 382.339844 670.449219 382.339844 667.804688 L 382.339844 543.109375 C 382.339844 540.46875 380.203125 538.328125 377.558594 538.328125 Z M 372.777344 663.023438 L 318.0625 663.023438 L 318.0625 547.890625 L 372.777344 547.890625 Z M 372.777344 663.023438 "/></g><g clip-rule="nonzero" clip-path="url(#e8a8a546b5)"><path style=" stroke:none;fill-rule:nonzero;fill:#4b0e82;fill-opacity:1;" d="M 496.390625 460.914062 L 432.113281 460.914062 C 429.472656 460.914062 427.332031 463.050781 427.332031 465.695312 L 427.332031 667.804688 C 427.332031 670.449219 429.472656 672.585938 432.113281 672.585938 L 496.390625 672.585938 C 499.03125 672.585938 501.171875 670.449219 501.171875 667.804688 L 501.171875 465.695312 C 501.171875 463.050781 499.03125 460.914062 496.390625 460.914062 Z M 491.609375 663.023438 L 436.894531 663.023438 L 436.894531 470.476562 L 491.609375 470.476562 Z M 491.609375 663.023438 "/></g><g clip-rule="nonzero" clip-path="url(#56fb0ea35c)"><path style=" stroke:none;fill-rule:nonzero;fill:#4b0e82;fill-opacity:1;" d="M 615.210938 445.886719 L 550.933594 445.886719 C 548.292969 445.886719 546.152344 448.027344 546.152344 450.667969 L 546.152344 667.804688 C 546.152344 670.449219 548.292969 672.585938 550.933594 672.585938 L 615.210938 672.585938 C 617.855469 672.585938 619.992188 670.449219 619.992188 667.804688 L 619.992188 450.667969 C 619.992188 448.027344 617.855469 445.886719 615.210938 445.886719 Z M 610.429688 663.023438 L 555.714844 663.023438 L 555.714844 455.449219 L 610.429688 455.449219 Z M 610.429688 663.023438 "/></g><path style=" stroke:none;fill-rule:nonzero;fill:#4b0e82;fill-opacity:1;" d="M 374.570312 323.667969 C 374.570312 324.539062 374.527344 325.410156 374.441406 326.277344 C 374.359375 327.140625 374.230469 328.003906 374.058594 328.855469 C 373.890625 329.710938 373.679688 330.554688 373.425781 331.386719 C 373.171875 332.21875 372.878906 333.039062 372.546875 333.84375 C 372.214844 334.648438 371.84375 335.433594 371.433594 336.203125 C 371.023438 336.96875 370.574219 337.714844 370.089844 338.4375 C 369.605469 339.164062 369.089844 339.859375 368.535156 340.535156 C 367.984375 341.207031 367.398438 341.851562 366.785156 342.46875 C 366.167969 343.082031 365.523438 343.667969 364.851562 344.21875 C 364.179688 344.773438 363.480469 345.289062 362.757812 345.773438 C 362.03125 346.257812 361.285156 346.703125 360.519531 347.113281 C 359.75 347.523438 358.964844 347.898438 358.160156 348.230469 C 357.355469 348.5625 356.539062 348.855469 355.703125 349.109375 C 354.871094 349.363281 354.027344 349.574219 353.171875 349.742188 C 352.320312 349.914062 351.460938 350.039062 350.59375 350.125 C 349.726562 350.210938 348.859375 350.253906 347.988281 350.253906 C 347.117188 350.253906 346.246094 350.210938 345.382812 350.125 C 344.515625 350.039062 343.65625 349.914062 342.800781 349.742188 C 341.945312 349.574219 341.101562 349.363281 340.269531 349.109375 C 339.4375 348.855469 338.617188 348.5625 337.8125 348.230469 C 337.007812 347.898438 336.222656 347.523438 335.457031 347.113281 C 334.6875 346.703125 333.941406 346.257812 333.21875 345.773438 C 332.492188 345.289062 331.796875 344.773438 331.121094 344.21875 C 330.449219 343.667969 329.804688 343.082031 329.191406 342.46875 C 328.574219 341.851562 327.988281 341.207031 327.4375 340.535156 C 326.886719 339.859375 326.367188 339.164062 325.882812 338.4375 C 325.398438 337.714844 324.953125 336.96875 324.542969 336.203125 C 324.132812 335.433594 323.761719 334.648438 323.425781 333.84375 C 323.09375 333.039062 322.800781 332.21875 322.546875 331.386719 C 322.296875 330.554688 322.085938 329.710938 321.914062 328.855469 C 321.746094 328.003906 321.617188 327.140625 321.53125 326.277344 C 321.445312 325.410156 321.402344 324.539062 321.402344 323.667969 C 321.402344 322.800781 321.445312 321.929688 321.53125 321.0625 C 321.617188 320.199219 321.746094 319.335938 321.914062 318.484375 C 322.085938 317.628906 322.296875 316.785156 322.546875 315.953125 C 322.800781 315.121094 323.09375 314.300781 323.425781 313.496094 C 323.761719 312.691406 324.132812 311.90625 324.542969 311.136719 C 324.953125 310.371094 325.398438 309.625 325.882812 308.902344 C 326.367188 308.175781 326.886719 307.476562 327.4375 306.804688 C 327.988281 306.132812 328.574219 305.488281 329.191406 304.871094 C 329.804688 304.257812 330.449219 303.671875 331.121094 303.121094 C 331.796875 302.566406 332.492188 302.050781 333.21875 301.566406 C 333.941406 301.082031 334.6875 300.636719 335.457031 300.226562 C 336.222656 299.816406 337.007812 299.441406 337.8125 299.109375 C 338.617188 298.777344 339.4375 298.484375 340.269531 298.230469 C 341.101562 297.976562 341.945312 297.765625 342.800781 297.597656 C 343.65625 297.425781 344.515625 297.300781 345.382812 297.214844 C 346.246094 297.128906 347.117188 297.085938 347.988281 297.085938 C 348.859375 297.085938 349.726562 297.128906 350.59375 297.214844 C 351.460938 297.300781 352.320312 297.425781 353.171875 297.597656 C 354.027344 297.765625 354.871094 297.976562 355.703125 298.230469 C 356.539062 298.484375 357.355469 298.777344 358.160156 299.109375 C 358.964844 299.441406 359.75 299.816406 360.519531 300.226562 C 361.285156 300.636719 362.03125 301.082031 362.757812 301.566406 C 363.480469 302.050781 364.179688 302.566406 364.851562 303.121094 C 365.523438 303.671875 366.167969 304.257812 366.785156 304.871094 C 367.398438 305.488281 367.984375 306.132812 368.535156 306.804688 C 369.089844 307.476562 369.605469 308.175781 370.089844 308.902344 C 370.574219 309.625 371.023438 310.371094 371.433594 311.136719 C 371.84375 311.90625 372.214844 312.691406 372.546875 313.496094 C 372.878906 314.300781 373.171875 315.121094 373.425781 315.953125 C 373.679688 316.785156 373.890625 317.628906 374.058594 318.484375 C 374.230469 319.335938 374.359375 320.199219 374.441406 321.0625 C 374.527344 321.929688 374.570312 322.800781 374.570312 323.667969 Z M 374.570312 323.667969 "/><path style=" stroke:none;fill-rule:nonzero;fill:#4b0e82;fill-opacity:1;" d="M 425.125 361.476562 C 421.109375 355.105469 412.628906 353.171875 406.199219 357.128906 L 357.078125 387.539062 L 330.007812 355.5 C 329.75 355.195312 329.445312 354.964844 329.167969 354.6875 C 328.980469 354.496094 328.785156 354.316406 328.589844 354.128906 C 328.25 353.832031 327.914062 353.542969 327.554688 353.28125 C 326.171875 352.148438 324.660156 351.136719 322.910156 350.421875 C 313.546875 346.628906 302.859375 350.996094 298.988281 360.242188 L 263.351562 444.714844 C 263.054688 445.425781 236.402344 520.261719 236.402344 520.261719 L 209.386719 558.816406 C 203.617188 567.050781 205.722656 578.363281 214.058594 584.066406 C 217.261719 586.238281 220.835938 587.234375 224.5 587.234375 C 230.265625 587.234375 235.945312 584.519531 239.515625 579.449219 L 267.996094 538.726562 C 269.003906 537.277344 269.828125 535.738281 270.378906 534.109375 C 270.378906 534.109375 290.164062 481.648438 293.691406 471.8125 L 324.175781 476.140625 L 328.027344 526.375 C 328.753906 535.878906 336.785156 543.105469 346.273438 543.105469 C 346.738281 543.105469 347.203125 543.089844 347.675781 543.054688 C 357.765625 542.300781 365.320312 533.605469 364.554688 523.636719 L 359.589844 458.925781 C 358.945312 450.46875 352.433594 443.582031 343.929688 442.378906 L 306.207031 437.023438 L 325.191406 392.15625 L 343.644531 414 C 346.339844 417.191406 350.238281 418.878906 354.199219 418.878906 C 356.683594 418.878906 359.207031 418.207031 361.453125 416.828125 L 420.722656 380.179688 C 427.164062 376.21875 429.128906 367.839844 425.125 361.476562 Z M 425.125 361.476562 "/><path style=" stroke:none;fill-rule:nonzero;fill:#4b0e82;fill-opacity:1;" d="M 464.773438 254.496094 C 479.457031 254.496094 491.359375 242.59375 491.359375 227.910156 C 491.359375 213.226562 479.457031 201.324219 464.773438 201.324219 C 450.09375 201.324219 438.191406 213.226562 438.191406 227.910156 C 438.191406 242.59375 450.09375 254.496094 464.773438 254.496094 Z M 464.773438 254.496094 "/><path style=" stroke:none;fill-rule:nonzero;fill:#4b0e82;fill-opacity:1;" d="M 590.71875 426.59375 L 571.488281 370.753906 L 568.464844 322.066406 C 568.46875 322.09375 567.988281 317.265625 565.867188 314.179688 L 525.230469 248.941406 C 519.925781 240.429688 508.640625 237.769531 500.027344 243.019531 C 498.601562 243.882812 494.574219 247.171875 493.039062 250.660156 L 463.640625 317.875 L 428.996094 344.722656 C 423.03125 349.355469 421.984375 357.882812 426.660156 363.789062 C 429.371094 367.199219 433.40625 368.984375 437.484375 368.984375 C 440.453125 368.984375 443.4375 368.039062 445.953125 366.09375 L 483.34375 337.117188 C 485.140625 335.71875 486.5625 333.898438 487.476562 331.8125 L 506.597656 288.089844 L 526.5625 320.148438 L 475.988281 363.984375 C 473.101562 366.492188 471.078125 369.84375 470.21875 373.554688 L 454.003906 443.558594 C 451.738281 453.296875 457.902344 463.011719 467.765625 465.238281 C 469.144531 465.554688 470.511719 465.699219 471.871094 465.699219 C 480.214844 465.699219 487.761719 460.023438 489.703125 451.636719 L 504.605469 387.34375 L 534.214844 361.675781 L 535.039062 375.371094 C 535.132812 377 535.496094 378.628906 535.957031 380.167969 L 556.101562 438.359375 C 558.667969 445.871094 565.808594 450.578125 573.410156 450.578125 C 575.335938 450.578125 577.347656 450.304688 579.363281 449.582031 C 588.886719 446.414062 594.015625 436.097656 590.71875 426.59375 Z M 590.71875 426.59375 "/></g></svg>