<svg xmlns="http://www.w3.org/2000/svg" xmlns:xlink="http://www.w3.org/1999/xlink" width="1080" zoomAndPan="magnify" viewBox="0 0 810 809.999993" height="1080" preserveAspectRatio="xMidYMid meet" version="1.2"><defs><clipPath id="01943523dd"><path d="M 186 177.136719 L 387 177.136719 L 387 318 L 186 318 Z M 186 177.136719 "/></clipPath><clipPath id="56751ac976"><path d="M 144.582031 345 L 218 345 L 218 421 L 144.582031 421 Z M 144.582031 345 "/></clipPath></defs><g id="8ee469c9d4"><path style=" stroke:none;fill-rule:nonzero;fill:#fec3aa;fill-opacity:1;" d="M 526.941406 574.03125 L 494.242188 569.203125 C 494.242188 569.203125 468.902344 563.449219 455.363281 564.996094 C 441.828125 566.542969 432.183594 565.488281 424.273438 571.863281 C 416.359375 578.238281 418.957031 584.800781 418.957031 584.800781 C 418.957031 584.800781 412.714844 591.175781 413.515625 593.835938 C 414.320312 596.496094 413.332031 606.273438 415.867188 608.625 C 418.398438 610.976562 419.449219 611.101562 419.449219 611.101562 C 420.625 613.332031 422.851562 614.816406 425.324219 615 C 429.527344 615.3125 443.371094 608.9375 447.574219 609.058594 C 451.777344 609.183594 471.0625 610.792969 481.015625 609.429688 C 490.96875 608.070312 496.285156 604.542969 496.285156 604.542969 L 537.390625 617.476562 C 537.390625 617.476562 535.96875 586.160156 526.941406 574.03125 Z M 526.941406 574.03125 "/><path style=" stroke:none;fill-rule:nonzero;fill:#fec3aa;fill-opacity:1;" d="M 296.011719 370.414062 C 293.417969 367.136719 290.574219 364.039062 287.480469 361.195312 C 283.09375 357.480469 279.261719 347.332031 283.773438 344.730469 C 288.285156 342.132812 304.417969 356.242188 309.859375 363.234375 C 315.296875 370.230469 329.019531 390.21875 333.101562 401.421875 C 337.179688 412.625 333.839844 418.378906 335.261719 421.039062 L 346.449219 442.886719 C 346.449219 442.886719 336.808594 449.878906 326.238281 454.214844 C 315.667969 458.546875 310.972656 458.730469 310.972656 458.730469 C 310.972656 458.730469 300.09375 437.6875 298.359375 436.636719 C 296.628906 435.585938 289.335938 432.117188 286.679688 427.910156 C 285.011719 425.125 283.773438 422.15625 282.96875 418.996094 C 282.96875 418.996094 274.75 417.140625 271.289062 410.582031 C 267.824219 404.019531 265.847656 398.761719 267.085938 394.429688 C 268.320312 390.097656 270.667969 387.683594 273.945312 386.628906 C 275.121094 383.351562 277.285156 380.503906 280.1875 378.523438 C 284.824219 375.550781 285.132812 376.171875 285.628906 376.355469 C 286.121094 376.542969 287.480469 369.175781 296.011719 370.414062 Z M 296.011719 370.414062 "/><path style=" stroke:none;fill-rule:nonzero;fill:#a3dfbe;fill-opacity:1;" d="M 310.785156 459.226562 C 310.105469 459.226562 342.433594 556.082031 357.328125 570.316406 C 372.226562 584.550781 406.65625 568.398438 413.640625 562.644531 C 420.625 556.886719 450.417969 526.253906 450.417969 526.253906 C 450.417969 526.253906 457.835938 539.929688 460 547.976562 C 462.164062 556.019531 467.417969 563.507812 466.984375 564.191406 C 466.550781 564.871094 503.578125 570.75 510.996094 571.371094 C 516.371094 571.925781 521.6875 572.855469 526.941406 574.03125 C 526.941406 574.03125 539.121094 602.3125 537.390625 617.476562 C 537.390625 617.476562 581.769531 629.050781 608.101562 630.96875 C 634.433594 632.886719 653.84375 621.625 658.910156 608.007812 C 663.980469 594.390625 662.742188 570.132812 661.691406 564.5625 C 660.640625 558.992188 648.710938 451.179688 648.710938 451.179688 C 648.710938 451.179688 641.296875 422.648438 619.847656 415.839844 C 598.398438 409.035156 576.703125 395.605469 573.917969 390.527344 C 571.136719 385.453125 573.671875 382.175781 570.707031 380.6875 C 567.738281 379.203125 521.007812 375.613281 521.007812 375.613281 C 521.007812 375.613281 516.929688 375.800781 517.175781 378.769531 C 517.421875 381.742188 515.878906 386.445312 512.476562 387.742188 C 509.078125 389.042969 485.714844 391.582031 477.863281 391.582031 C 470.011719 391.582031 449.554688 397.089844 441.890625 407.917969 C 434.222656 418.75 418.089844 456.875 412.589844 465.601562 C 407.089844 474.328125 379.398438 506.507812 379.398438 506.507812 L 346.882812 443.074219 C 346.882812 443.074219 318.203125 459.226562 310.785156 459.226562 Z M 310.785156 459.226562 "/><path style=" stroke:none;fill-rule:nonzero;fill:#fec3aa;fill-opacity:1;" d="M 508.027344 272.507812 C 508.027344 272.507812 486.949219 275.539062 482.808594 289.214844 C 478.667969 302.894531 483.179688 313.476562 483.179688 318.613281 C 483.179688 323.75 484.105469 345.039062 485.835938 349.742188 C 487.566406 354.449219 497.210938 370.847656 508.585938 374.066406 C 519.957031 377.285156 528.488281 376.726562 528.488281 376.726562 L 568.109375 379.761719 C 568.109375 379.761719 564.339844 361.132812 566.5625 349.929688 C 566.5625 349.929688 565.636719 349.929688 570.582031 344.792969 C 575.527344 339.65625 579.113281 333.652344 578.554688 326.96875 C 578 320.285156 573.238281 317.871094 569.839844 318.429688 C 566.441406 318.984375 562.238281 322.203125 562.238281 322.203125 C 562.238281 322.203125 550.492188 319.789062 543.632812 299.242188 C 536.769531 278.695312 529.167969 265.203125 518.042969 264.894531 C 510.6875 264.707031 508.027344 272.507812 508.027344 272.507812 Z M 508.027344 272.507812 "/><path style=" stroke:none;fill-rule:nonzero;fill:#734c4c;fill-opacity:1;" d="M 482.746094 315.394531 C 482.746094 315.394531 470.445312 306.792969 473.96875 288.660156 C 477.492188 270.527344 490.660156 254.929688 498.324219 249.730469 C 505.988281 244.53125 521.007812 238.035156 545.300781 238.652344 C 569.59375 239.273438 577.566406 248.925781 582.265625 254.433594 C 586.960938 259.941406 593.265625 268.359375 593.265625 268.359375 C 593.265625 268.359375 599.570312 259.632812 607.855469 262.542969 C 616.136719 265.449219 627.632812 270.957031 633.257812 284.945312 C 638.882812 298.933594 634.742188 322.699219 631.035156 330.371094 C 627.324219 338.046875 622.9375 357.914062 625.039062 367.507812 C 627.140625 377.097656 633.257812 383.535156 633.753906 383.226562 C 634.25 382.917969 627.632812 387.929688 614.839844 383.535156 C 602.042969 379.140625 592.152344 359.523438 590.175781 351.105469 C 589 346.15625 588.691406 341.078125 589.1875 336.003906 C 589.1875 336.003906 572.867188 351.292969 570.273438 353.890625 C 567.675781 356.488281 566.378906 363.792969 566.378906 363.792969 L 566.5625 349.929688 C 566.5625 349.929688 576.703125 340.398438 578.183594 332.601562 C 579.667969 324.800781 577.691406 319.976562 573.300781 318.488281 C 568.914062 317.003906 562.238281 322.203125 562.238281 322.203125 C 562.238281 322.203125 551.109375 317.375 545.113281 302.460938 C 539.121094 287.546875 535.71875 273.25 529.230469 272.257812 C 522.738281 271.269531 514.640625 274.238281 514.640625 274.238281 C 514.640625 274.238281 507.71875 271.144531 503.332031 271.949219 C 498.941406 272.753906 487.9375 277.765625 484.664062 286.058594 C 481.386719 294.351562 480.335938 304.070312 482.746094 315.394531 Z M 482.746094 315.394531 "/><path style=" stroke:none;fill-rule:nonzero;fill:#000000;fill-opacity:1;" d="M 593.019531 461.269531 C 593.203125 491.097656 596.542969 520.929688 599.324219 550.636719 C 600.066406 558.3125 600.808594 566.046875 601.488281 573.78125 C 601.671875 575.886719 604.949219 575.886719 604.765625 573.78125 C 602.230469 544.078125 598.769531 514.371094 597.097656 484.539062 C 596.667969 476.800781 596.359375 469.066406 596.296875 461.269531 C 596.296875 459.164062 593.019531 459.164062 593.019531 461.269531 Z M 593.019531 461.269531 "/><path style=" stroke:none;fill-rule:nonzero;fill:#000000;fill-opacity:1;" d="M 311.652344 403.527344 C 308.25 396.964844 301.882812 393.003906 297.371094 387.433594 C 296.257812 386.074219 294.898438 384.277344 295.023438 382.484375 C 295.148438 380.6875 297.125 379.699219 298.792969 379.636719 C 300.464844 379.574219 302.875 380.378906 304.726562 381.121094 C 306.519531 381.800781 308.25 382.605469 309.921875 383.472656 C 313.8125 385.453125 317.335938 388.175781 320.242188 391.457031 C 321.601562 393.066406 323.890625 390.714844 322.53125 389.105469 C 319.625 385.761719 316.101562 382.976562 312.207031 380.9375 C 310.230469 379.882812 308.128906 378.957031 306.027344 378.152344 C 303.863281 377.285156 301.636719 376.417969 299.289062 376.355469 C 294.898438 376.171875 290.882812 379.574219 291.933594 384.214844 C 292.984375 388.859375 296.570312 391.644531 299.472656 394.429688 C 302.378906 397.214844 306.582031 400.863281 308.808594 405.195312 C 309.734375 407.054688 312.578125 405.382812 311.652344 403.527344 Z M 311.652344 403.527344 "/><path style=" stroke:none;fill-rule:nonzero;fill:#000000;fill-opacity:1;" d="M 300.339844 372.457031 C 297.371094 366.269531 291.4375 362.863281 287.234375 357.726562 C 285.070312 355.128906 282.722656 351.042969 283.773438 347.515625 C 284.390625 345.472656 286.371094 346.339844 287.792969 347.019531 C 289.027344 347.640625 290.203125 348.320312 291.375 349.0625 C 301.945312 355.5625 310.722656 365.710938 317.523438 375.984375 C 322.160156 383.226562 326.238281 390.839844 329.636719 398.761719 C 331.800781 403.648438 333.78125 408.910156 333.347656 414.355469 C 333.101562 416.027344 333.039062 417.761719 333.285156 419.492188 C 333.59375 421.101562 334.519531 422.402344 335.261719 423.824219 C 338.601562 430.078125 341.691406 436.511719 345.03125 442.761719 C 349.292969 450.933594 353.808594 458.917969 358.503906 466.839844 C 359.554688 468.695312 362.398438 467.023438 361.285156 465.230469 C 356.898438 457.742188 352.632812 450.191406 348.550781 442.515625 C 345.152344 436.140625 342.0625 429.582031 338.664062 423.207031 C 337.859375 421.78125 336.683594 420.234375 336.4375 418.625 C 336.191406 417.015625 336.621094 414.914062 336.683594 412.996094 C 336.808594 407.117188 334.398438 401.421875 331.988281 396.097656 C 328.15625 387.496094 323.640625 378.832031 318.140625 371.15625 C 314.183594 365.585938 309.734375 360.390625 304.789062 355.625 C 300.402344 351.351562 295.457031 347.207031 289.894531 344.421875 C 287.234375 343.121094 283.339844 341.761719 281.363281 344.917969 C 279.386719 348.074219 280.4375 352.40625 281.917969 355.4375 C 285.503906 362.988281 293.910156 366.578125 297.496094 374.066406 C 298.421875 375.984375 301.203125 374.3125 300.339844 372.457031 Z M 300.339844 372.457031 "/><path style=" stroke:none;fill-rule:nonzero;fill:#000000;fill-opacity:1;" d="M 274.316406 385.332031 C 269.558594 384.527344 266.652344 389.539062 265.785156 393.5625 C 264.550781 398.945312 266.21875 404.144531 268.753906 408.847656 C 269.867188 410.890625 270.976562 413.304688 272.523438 415.035156 C 273.265625 415.78125 274.007812 416.398438 274.871094 417.015625 C 277.46875 418.996094 280.992188 420.976562 284.328125 419.925781 C 287.667969 418.875 289.523438 415.035156 288.164062 411.386719 C 287.480469 409.40625 284.269531 410.273438 285.011719 412.253906 C 285.378906 413.179688 285.75 414.355469 285.320312 415.347656 C 284.886719 416.335938 282.96875 417.078125 281.671875 416.894531 C 279.324219 416.460938 276.542969 414.664062 274.933594 412.808594 C 273.328125 410.953125 272.769531 409.40625 271.84375 407.734375 C 270.546875 405.507812 269.558594 403.09375 268.9375 400.554688 C 268.382812 397.957031 268.507812 395.292969 269.371094 392.820312 C 269.925781 391.273438 271.410156 388.175781 273.449219 388.546875 C 275.492188 388.917969 276.417969 385.703125 274.316406 385.332031 Z M 274.316406 385.332031 "/><path style=" stroke:none;fill-rule:nonzero;fill:#000000;fill-opacity:1;" d="M 285.070312 375.179688 C 280.25 375.429688 276.417969 378.398438 274.5 382.730469 C 272.585938 387.0625 273.140625 392.878906 275.242188 397.585938 C 277.40625 402.101562 280.1875 406.3125 283.527344 410.085938 C 285.75 412.683594 288.59375 416.027344 292.304688 415.410156 C 294.898438 414.976562 297.1875 413.859375 298.300781 411.261719 C 299.410156 408.664062 299.042969 406.1875 297.433594 404.761719 C 295.828125 403.339844 293.539062 405.628906 295.085938 407.054688 C 296.628906 408.476562 294.777344 411.507812 292.921875 412.003906 C 291.066406 412.5 290.945312 412.4375 289.769531 411.632812 C 286.121094 409.097656 283.402344 404.886719 281.054688 401.234375 C 278.703125 397.585938 275.550781 391.765625 276.664062 386.566406 C 277.53125 382.359375 280.558594 378.644531 285.070312 378.460938 C 287.171875 378.335938 287.171875 375.058594 285.070312 375.179688 Z M 285.070312 375.179688 "/><path style=" stroke:none;fill-rule:nonzero;fill:#000000;fill-opacity:1;" d="M 304.234375 402.164062 C 304.296875 403.773438 303.800781 405.878906 301.882812 406 C 298.359375 406.3125 295.457031 402.351562 293.726562 399.8125 C 289.894531 394.367188 285.9375 387.683594 286.492188 380.8125 C 286.742188 377.902344 287.976562 373.941406 290.882812 372.644531 C 292.796875 371.777344 294.960938 371.960938 296.753906 373.015625 C 298.484375 374.253906 300.09375 371.40625 298.421875 370.167969 C 296.753906 368.929688 293.910156 368.742188 291.625 369.054688 C 289.335938 369.363281 286.246094 371.777344 284.886719 374.625 C 282.351562 379.820312 282.847656 386.195312 285.132812 391.332031 C 286.679688 394.800781 288.59375 398.140625 290.757812 401.296875 C 293.292969 404.949219 296.691406 409.15625 301.515625 409.28125 C 306.335938 409.40625 307.632812 405.816406 307.507812 402.164062 C 307.449219 400.058594 304.171875 400.058594 304.234375 402.164062 Z M 304.234375 402.164062 "/><path style=" stroke:none;fill-rule:nonzero;fill:#000000;fill-opacity:1;" d="M 282.042969 419.121094 C 284.824219 427.105469 288.902344 435.644531 297.929688 437.6875 L 296.941406 436.945312 C 301.945312 445.546875 306.953125 454.089844 310.847656 463.25 C 311.652344 465.230469 314.496094 463.558594 313.691406 461.640625 C 309.980469 452.914062 305.285156 444.867188 300.585938 436.699219 C 300.03125 435.644531 299.722656 434.839844 298.546875 434.46875 C 296.382812 433.789062 294.34375 432.675781 292.613281 431.253906 C 288.59375 427.847656 286.863281 423.082031 285.195312 418.253906 C 284.515625 416.273438 281.363281 417.140625 282.042969 419.121094 Z M 282.042969 419.121094 "/><path style=" stroke:none;fill-rule:nonzero;fill:#000000;fill-opacity:1;" d="M 437.003906 569.820312 C 432.863281 571.429688 428.96875 573.660156 425.386719 576.320312 C 422.109375 578.917969 419.203125 581.890625 416.609375 585.171875 C 413.515625 589.132812 410.242188 595.011719 414.445312 599.46875 C 415.867188 601.015625 418.152344 598.664062 416.730469 597.117188 C 413.640625 593.898438 417.84375 588.945312 419.761719 586.46875 C 424.519531 580.46875 430.761719 575.824219 437.871094 572.976562 C 439.847656 572.175781 438.984375 569.015625 437.003906 569.820312 Z M 437.003906 569.820312 "/><path style=" stroke:none;fill-rule:nonzero;fill:#000000;fill-opacity:1;" d="M 442.011719 579.042969 C 437.746094 580.777344 433.730469 582.941406 430.019531 585.605469 C 426.375 587.957031 422.914062 590.554688 419.636719 593.339844 C 416.050781 596.558594 412.527344 601.199219 413.578125 606.398438 C 414.257812 609.679688 416.980469 611.597656 420.132812 612.339844 C 422.171875 612.773438 423.035156 609.617188 420.996094 609.183594 C 418.957031 608.75 416.546875 606.957031 416.667969 604.046875 C 416.792969 602.253906 417.84375 600.273438 419.082031 598.664062 C 421.863281 595.132812 425.816406 592.535156 429.464844 589.996094 C 433.113281 587.460938 438.058594 584.117188 442.878906 582.261719 C 444.792969 581.457031 443.992188 578.300781 442.011719 579.042969 Z M 442.011719 579.042969 "/><path style=" stroke:none;fill-rule:nonzero;fill:#000000;fill-opacity:1;" d="M 448.566406 591.050781 C 442.816406 592.351562 437.5 595.074219 432.679688 598.476562 C 430.269531 600.148438 427.917969 602.003906 425.695312 603.921875 L 422.355469 606.832031 C 421.429688 607.699219 419.761719 608.75 419.140625 609.925781 C 418.523438 611.101562 419.019531 613.269531 419.882812 614.320312 C 421.921875 617.105469 426.003906 616.671875 429.03125 616.117188 C 433.605469 615.25 438.054688 613.515625 442.507812 612.03125 C 444.671875 611.226562 446.957031 610.792969 449.304688 610.792969 C 456.414062 610.730469 463.523438 611.410156 470.695312 611.226562 C 475.578125 611.226562 480.460938 610.730469 485.28125 609.925781 C 489.359375 609.183594 493.625 607.945312 496.964844 605.410156 C 498.632812 604.171875 497.023438 601.324219 495.292969 602.5625 C 489.546875 606.957031 481.140625 607.511719 474.15625 607.820312 C 467.171875 608.132812 459.8125 607.882812 452.582031 607.574219 C 450.417969 607.449219 448.195312 607.511719 446.03125 607.761719 C 443.679688 608.070312 441.457031 608.9375 439.230469 609.679688 C 434.902344 611.226562 429.898438 613.332031 425.199219 613.269531 C 424.273438 613.269531 423.097656 613.144531 422.417969 612.339844 C 422.234375 612.03125 422.109375 611.660156 422.171875 611.289062 C 422.109375 610.792969 422.234375 611.101562 422.109375 611.164062 L 422.234375 611.472656 L 423.222656 610.546875 L 425.199219 608.75 C 427.609375 606.585938 430.082031 604.417969 432.679688 602.5 C 437.746094 598.722656 443.25 595.628906 449.429688 594.207031 C 451.53125 593.773438 450.667969 590.617188 448.566406 591.050781 Z M 448.566406 591.050781 "/><path style=" stroke:none;fill-rule:nonzero;fill:#000000;fill-opacity:1;" d="M 420.132812 582.632812 C 418.894531 579.910156 419.761719 576.753906 421.554688 574.527344 C 423.34375 572.296875 424.519531 572.296875 426.125 571.554688 C 429.898438 569.761719 433.792969 568.273438 437.808594 567.222656 C 440.097656 566.664062 442.445312 566.417969 444.792969 566.417969 C 448.503906 566.234375 452.210938 566.234375 455.859375 566.355469 C 464.449219 566.542969 473.105469 567.160156 481.632812 568.273438 C 485.15625 568.707031 488.679688 569.390625 492.140625 570.195312 C 493.8125 570.625 495.417969 571.308594 497.148438 571.554688 C 510.4375 573.289062 523.851562 574.835938 537.265625 576.136719 C 556.054688 577.992188 574.96875 578.796875 593.824219 578.546875 C 609.707031 578.300781 625.65625 577.742188 641.542969 576.9375 L 642.40625 576.9375 C 644.507812 576.816406 644.507812 573.535156 642.40625 573.660156 C 628.253906 574.339844 614.035156 574.835938 599.878906 575.144531 C 589.742188 575.390625 579.605469 575.578125 569.46875 575.207031 C 559.332031 574.835938 550.554688 574.09375 541.097656 573.164062 C 526.570312 571.863281 512.046875 570.195312 497.519531 568.335938 L 496.53125 568.214844 C 496.839844 568.273438 495.789062 567.839844 495.542969 567.71875 L 493.378906 567.160156 C 489.792969 566.292969 486.148438 565.613281 482.5 565.117188 C 473.722656 563.941406 464.945312 563.261719 456.105469 563.078125 C 449.988281 562.953125 443.125 562.457031 437.128906 564.003906 C 433.171875 565.058594 429.339844 566.480469 425.632812 568.152344 C 421.492188 570.007812 418.03125 572.296875 416.667969 576.9375 C 415.988281 579.351562 416.238281 581.953125 417.289062 584.242188 C 418.152344 586.160156 420.996094 584.488281 420.132812 582.632812 Z M 420.132812 582.632812 "/><path style=" stroke:none;fill-rule:nonzero;fill:#6293f1;fill-opacity:1;" d="M 370.929688 479.402344 C 370.929688 479.402344 366.789062 470.984375 364.316406 469.253906 C 361.964844 467.582031 353.003906 466.40625 353.003906 466.40625 C 337.734375 466.035156 155.574219 465.847656 155.574219 465.847656 C 155.574219 465.847656 145.375 466.15625 147.972656 476.988281 C 150.570312 487.820312 186.667969 598.847656 187.71875 602.3125 C 188.769531 605.78125 194.332031 609.800781 203.972656 609.429688 C 213.617188 609.058594 416.730469 606.894531 416.730469 606.894531 C 403.316406 563.757812 388.050781 521.300781 370.929688 479.402344 Z M 370.929688 479.402344 "/><path style=" stroke:none;fill-rule:nonzero;fill:#000000;fill-opacity:1;" d="M 418.339844 606.460938 C 409.871094 579.292969 400.722656 552.371094 390.769531 525.757812 C 385.761719 512.328125 380.570312 498.957031 375.195312 485.652344 C 373.09375 480.390625 371.609375 474.328125 367.46875 470.304688 C 360.730469 463.804688 351.023438 464.734375 342.371094 464.671875 L 310.972656 464.488281 L 268.195312 464.488281 L 223.011719 464.363281 L 159.59375 464.363281 C 154.214844 464.363281 147.910156 464.796875 146.242188 471.234375 C 145.253906 475.195312 146.796875 479.339844 147.910156 483.117188 L 152.175781 496.917969 C 156.378906 510.410156 160.707031 523.960938 165.03125 537.453125 C 169.359375 550.945312 173.996094 565.304688 178.507812 579.230469 L 185.988281 602.128906 C 188.953125 611.351562 200.328125 611.164062 208.425781 610.976562 L 232.285156 610.667969 L 269.679688 610.175781 L 313.566406 609.679688 L 357.082031 609.183594 L 392.808594 608.8125 L 413.886719 608.566406 L 416.730469 608.566406 C 418.832031 608.566406 418.832031 605.285156 416.730469 605.285156 L 405.667969 605.410156 L 376.863281 605.71875 L 337.179688 606.214844 L 293.292969 606.707031 L 252.003906 607.203125 L 220.105469 607.636719 L 204.285156 607.882812 C 199.214844 608.007812 190.992188 607.203125 189.140625 601.386719 C 188.335938 598.785156 187.46875 596.25 186.667969 593.648438 C 183.019531 582.324219 179.3125 571.058594 175.664062 559.734375 C 171.089844 545.4375 166.453125 531.078125 161.941406 516.78125 C 158.355469 505.644531 154.832031 494.566406 151.496094 483.425781 C 150.570312 480.332031 149.023438 476.679688 149.207031 473.398438 C 149.394531 470.117188 152.730469 467.582031 155.699219 467.519531 C 160.582031 467.457031 165.464844 467.582031 170.347656 467.582031 L 203.109375 467.582031 L 245.820312 467.703125 L 290.140625 467.703125 L 327.84375 467.890625 C 335.511719 467.890625 343.113281 467.890625 350.777344 468.015625 C 356.09375 468.074219 361.410156 468.878906 365.367188 472.902344 C 367.035156 474.574219 368.332031 476.554688 369.074219 478.78125 C 370.3125 482.558594 371.917969 486.148438 373.402344 489.800781 C 383.847656 515.855469 393.613281 542.09375 402.578125 568.644531 C 406.964844 581.519531 411.105469 594.390625 415.1875 607.328125 C 415.804688 609.308594 418.957031 608.441406 418.339844 606.460938 Z M 418.339844 606.460938 "/><path style=" stroke:none;fill-rule:nonzero;fill:#000000;fill-opacity:1;" d="M 458.824219 425.867188 C 462.90625 446.167969 460.679688 467.273438 452.335938 486.210938 C 448.6875 494.441406 444.421875 502.300781 445.164062 511.585938 C 445.414062 515.976562 446.339844 520.25 447.824219 524.394531 C 449.121094 528.046875 450.976562 531.449219 452.707031 534.855469 C 457.464844 544.449219 461.855469 554.226562 464.574219 564.625 C 465.128906 566.664062 468.28125 565.800781 467.726562 563.757812 C 465.316406 554.535156 461.605469 545.683594 457.402344 537.082031 C 453.695312 529.410156 449.492188 522.105469 448.566406 513.441406 C 448.007812 508.984375 448.441406 504.527344 449.863281 500.257812 C 451.347656 495.800781 453.570312 491.59375 455.425781 487.324219 C 463.957031 467.703125 466.242188 445.980469 461.976562 425 C 461.546875 422.957031 458.394531 423.824219 458.824219 425.867188 Z M 458.824219 425.867188 "/><path style=" stroke:none;fill-rule:nonzero;fill:#000000;fill-opacity:1;" d="M 383.722656 504.21875 C 400.785156 486.703125 414.9375 465.847656 425.816406 444 C 430.699219 434.222656 433.914062 423.515625 439.910156 414.355469 C 445.90625 405.195312 453.695312 398.882812 463.460938 395.355469 C 471.25 392.507812 479.347656 393.128906 487.507812 392.941406 C 493.007812 392.757812 498.445312 392.261719 503.886719 391.457031 C 507.964844 390.839844 513.035156 390.097656 516.25 387.3125 C 517.917969 385.949219 518.414062 384.09375 518.597656 381.988281 C 518.660156 380.9375 518.226562 378.707031 519.402344 378.273438 C 520.574219 377.839844 523.046875 378.273438 524.46875 378.273438 C 531.144531 378.398438 537.882812 378.707031 544.621094 379.140625 C 551.421875 379.390625 558.21875 380.070312 564.957031 381.058594 C 566.070312 381.183594 567.121094 381.429688 568.171875 381.679688 C 568.789062 381.800781 569.777344 382.296875 570.027344 382.296875 C 570.273438 382.296875 569.964844 382.546875 570.027344 382.234375 C 570.085938 381.925781 569.714844 381.371094 569.714844 381.371094 C 569.714844 381.371094 569.777344 382.667969 569.777344 382.730469 C 569.902344 384.585938 570.273438 386.382812 570.765625 388.175781 C 571.386719 390.28125 572.496094 392.199219 573.980469 393.808594 C 575.464844 395.355469 577.753906 393.003906 576.269531 391.519531 C 573.546875 388.734375 573.488281 385.019531 572.992188 381.429688 C 572.746094 379.636719 571.015625 379.015625 569.40625 378.585938 C 563.660156 377.035156 557.355469 376.789062 551.421875 376.292969 C 544.003906 375.738281 536.585938 375.367188 529.167969 375.117188 L 521.566406 374.996094 C 519.710938 374.996094 517.484375 374.808594 516.25 376.542969 C 515.011719 378.273438 515.570312 380.625 515.199219 382.605469 C 514.828125 384.585938 513.035156 385.703125 510.996094 386.445312 C 506.050781 388.175781 500.546875 388.734375 495.355469 389.167969 C 486.578125 389.972656 477.492188 388.917969 468.714844 390.527344 C 459.9375 392.136719 450.234375 397.523438 443.621094 404.453125 C 437.007812 411.386719 432 421.90625 427.859375 431.746094 C 418.152344 454.894531 403.9375 476.800781 387.308594 495.554688 C 385.394531 497.722656 383.414062 499.824219 381.4375 501.929688 C 379.457031 504.035156 382.242188 505.765625 383.722656 504.21875 Z M 383.722656 504.21875 "/><path style=" stroke:none;fill-rule:nonzero;fill:#000000;fill-opacity:1;" d="M 405.914062 567.410156 C 408.015625 571.554688 413.828125 564.5 415.558594 563.015625 C 419.390625 559.671875 423.285156 556.390625 427.117188 552.925781 C 435.769531 545.191406 444.175781 536.835938 450.417969 526.996094 C 451.53125 525.199219 448.6875 523.527344 447.574219 525.324219 C 442.074219 534.050781 434.71875 541.539062 427.117188 548.53125 C 423.59375 551.75 420.007812 554.84375 416.421875 557.9375 L 411.972656 561.839844 L 409.871094 563.695312 L 408.941406 564.5625 L 408.511719 564.996094 C 408.015625 565.304688 408.078125 565.550781 408.757812 565.738281 C 407.832031 563.878906 404.988281 565.550781 405.914062 567.410156 Z M 405.914062 567.410156 "/><path style=" stroke:none;fill-rule:nonzero;fill:#000000;fill-opacity:1;" d="M 576.019531 393.933594 C 583.933594 400.863281 592.773438 405.9375 602.414062 409.960938 C 612.058594 413.984375 623 417.140625 631.21875 424.382812 C 638.453125 430.820312 644.199219 439.792969 645.992188 449.386719 C 646.300781 451.117188 646.488281 452.851562 646.734375 454.585938 C 648.28125 464.917969 649.761719 475.253906 651.183594 485.589844 C 653.226562 500.628906 655.203125 515.605469 656.933594 530.644531 C 658.664062 545.683594 660.148438 559.175781 661.011719 573.472656 C 661.691406 584.488281 662.3125 595.816406 657.984375 606.214844 C 651.371094 622.242188 634.679688 627.875 618.609375 629.113281 C 604.082031 630.226562 589.621094 627.441406 575.402344 624.53125 C 559.332031 621.128906 543.382812 617.042969 527.558594 612.710938 C 517.609375 609.925781 507.65625 607.078125 497.828125 604.109375 L 496.34375 603.613281 C 494.304688 602.996094 493.441406 606.152344 495.480469 606.769531 C 502.710938 609.058594 510.066406 611.164062 517.363281 613.269531 C 532.9375 617.664062 548.636719 621.871094 564.402344 625.460938 C 578.925781 628.742188 593.886719 632.144531 608.84375 632.640625 C 623.800781 633.132812 643.644531 630.289062 654.707031 617.664062 C 663.113281 608.070312 665.03125 595.257812 664.722656 582.878906 C 664.414062 570.503906 663.050781 556.332031 661.632812 543.148438 C 659.960938 527.429688 657.984375 511.707031 655.882812 496.050781 C 654.214844 483.734375 652.484375 471.417969 650.691406 459.164062 C 650.257812 456.070312 649.824219 453.035156 649.332031 449.941406 C 648.464844 444.683594 646.609375 439.605469 643.953125 434.964844 C 638.761719 425.742188 630.726562 418.378906 621.082031 414.046875 C 611.378906 409.777344 601.117188 406.558594 591.84375 401.296875 C 587.023438 398.511719 582.511719 395.292969 578.308594 391.644531 C 576.761719 390.21875 574.414062 392.570312 576.019531 393.933594 Z M 576.019531 393.933594 "/><path style=" stroke:none;fill-rule:nonzero;fill:#000000;fill-opacity:1;" d="M 447.328125 501.742188 C 448.8125 488.128906 440.714844 528.292969 435.832031 541.042969 L 450.171875 524.148438 C 450.171875 524.148438 446.09375 513.132812 447.328125 501.742188 Z M 447.328125 501.742188 "/><path style=" stroke:none;fill-rule:nonzero;fill:#000000;fill-opacity:1;" d="M 596.726562 501.867188 C 596.726562 501.867188 599.941406 555.277344 591.289062 565.738281 C 586.097656 571.863281 578.554688 575.515625 570.519531 575.703125 C 570.519531 575.703125 568.976562 577.496094 585.046875 576.628906 C 601.117188 575.761719 605.011719 582.261719 601.921875 560.972656 C 598.828125 539.683594 596.726562 501.867188 596.726562 501.867188 Z M 596.726562 501.867188 "/><path style=" stroke:none;fill-rule:nonzero;fill:#000000;fill-opacity:1;" d="M 522.925781 390.777344 C 533.925781 392.136719 545.054688 391.765625 555.996094 389.847656 C 558.097656 389.476562 557.230469 386.320312 555.128906 386.691406 C 544.496094 388.546875 533.617188 388.796875 522.925781 387.496094 C 520.824219 387.25 520.824219 390.527344 522.925781 390.777344 Z M 522.925781 390.777344 "/><path style=" stroke:none;fill-rule:nonzero;fill:#000000;fill-opacity:1;" d="M 506.855469 428.28125 C 531.824219 427.722656 556.796875 425.621094 581.523438 421.96875 C 583.5625 421.660156 582.695312 418.441406 580.65625 418.75 C 556.242188 422.402344 531.578125 424.507812 506.851562 425 C 504.75 425.0625 504.75 428.34375 506.855469 428.28125 Z M 506.855469 428.28125 "/><path style=" stroke:none;fill-rule:nonzero;fill:#000000;fill-opacity:1;" d="M 525.210938 575.144531 C 530.402344 588.015625 533.988281 601.449219 535.90625 615.1875 C 536.152344 617.292969 539.304688 616.425781 539.058594 614.320312 C 537.140625 600.582031 533.554688 587.152344 528.363281 574.277344 C 527.621094 572.359375 524.40625 573.164062 525.210938 575.144531 Z M 525.210938 575.144531 "/><path style=" stroke:none;fill-rule:nonzero;fill:#000000;fill-opacity:1;" d="M 312.949219 461.824219 C 314.863281 459.597656 318.511719 459.289062 321.171875 458.421875 C 324.261719 457.371094 327.351562 456.195312 330.316406 454.832031 C 336.375 452.046875 342.0625 448.519531 347.316406 444.371094 C 348.984375 443.074219 346.699219 440.78125 345.03125 442.082031 C 339.652344 446.292969 333.839844 449.757812 327.597656 452.480469 C 324.570312 453.78125 321.480469 454.894531 318.328125 455.820312 C 315.546875 456.625 312.578125 457.183594 310.660156 459.535156 C 308.746094 461.886719 311.589844 463.433594 312.949219 461.824219 Z M 312.949219 461.824219 "/><path style=" stroke:none;fill-rule:nonzero;fill:#000000;fill-opacity:1;" d="M 297.433594 412.4375 C 302.625 412.5 307.757812 413.488281 312.578125 415.410156 C 313.445312 415.65625 314.371094 415.160156 314.554688 414.234375 C 314.742188 413.304688 314.308594 412.4375 313.382812 412.253906 C 308.25 410.273438 302.875 409.21875 297.371094 409.15625 C 295.332031 409.15625 295.332031 412.4375 297.433594 412.4375 Z M 297.433594 412.4375 "/><path style=" stroke:none;fill-rule:nonzero;fill:#000000;fill-opacity:1;" d="M 478.914062 300.292969 C 480.089844 306.917969 480.890625 313.601562 481.324219 320.347656 C 481.695312 326.90625 481.324219 333.527344 481.882812 340.027344 C 482.5625 348.566406 486.269531 357.355469 492.390625 363.359375 C 498.507812 369.363281 504.070312 374.933594 511.488281 377.160156 C 520.761719 379.945312 529.539062 376.480469 537.265625 371.21875 C 542.210938 367.9375 546.722656 364.039062 550.738281 359.644531 C 552.285156 358.035156 553.644531 356.242188 554.757812 354.324219 C 555.746094 352.527344 552.902344 350.859375 551.914062 352.714844 C 549.132812 357.726562 544.125 361.9375 539.675781 365.402344 C 532.445312 371.035156 523.542969 376.664062 513.960938 374.4375 C 506.730469 372.703125 500.734375 366.949219 495.542969 361.875 C 493.8125 360.203125 492.328125 358.78125 491.152344 356.800781 C 488.1875 351.664062 485.714844 346.464844 485.15625 340.398438 C 484.601562 334.332031 485.035156 327.03125 484.601562 320.347656 C 484.167969 313.351562 483.304688 306.359375 482.066406 299.429688 C 481.695312 297.386719 478.542969 298.253906 478.914062 300.292969 Z M 478.914062 300.292969 "/><path style=" stroke:none;fill-rule:nonzero;fill:#000000;fill-opacity:1;" d="M 563.597656 324.371094 C 565.636719 321.335938 569.902344 317.003906 573.796875 319.914062 C 577.691406 322.820312 577.566406 327.277344 577.132812 330.929688 C 576.515625 335.015625 574.601562 338.789062 571.695312 341.699219 C 568.789062 344.667969 564.957031 348.074219 560.691406 348.628906 C 558.589844 348.878906 558.589844 352.15625 560.691406 351.910156 C 566.191406 351.230469 571.136719 347.269531 574.722656 343.246094 C 578.308594 339.285156 580.410156 334.210938 580.535156 328.886719 C 580.535156 324.183594 578.617188 317.933594 573.734375 316.199219 C 568.851562 314.46875 563.597656 318.488281 560.816406 322.699219 C 559.640625 324.492188 562.484375 326.101562 563.597656 324.371094 Z M 563.597656 324.371094 "/><path style=" stroke:none;fill-rule:nonzero;fill:#000000;fill-opacity:1;" d="M 573.609375 324.492188 C 570.582031 323.441406 567.925781 326.164062 566.191406 328.269531 C 564.402344 330.496094 563.039062 332.972656 562.113281 335.632812 C 561.867188 336.5 562.421875 337.367188 563.226562 337.613281 C 563.226562 337.613281 563.226562 337.613281 563.289062 337.613281 C 564.089844 337.859375 564.957031 337.429688 565.203125 336.625 C 565.203125 336.5625 565.203125 336.5625 565.265625 336.5 C 565.390625 336.191406 565.453125 335.941406 565.574219 335.695312 L 565.761719 335.199219 C 565.699219 335.386719 565.761719 335.199219 565.820312 335.136719 L 566.5625 333.589844 L 567.429688 332.105469 L 567.984375 331.363281 L 568.171875 331.117188 C 568.171875 331.117188 568.480469 330.683594 568.292969 330.867188 C 568.976562 330 569.777344 329.136719 570.582031 328.390625 L 570.953125 328.019531 C 570.828125 328.144531 571.015625 328.019531 571.078125 328.019531 L 571.507812 327.710938 L 571.632812 327.710938 L 572.066406 327.585938 L 572.558594 327.585938 C 572.3125 327.585938 572.683594 327.648438 572.746094 327.710938 C 573.609375 327.957031 574.539062 327.464844 574.722656 326.597656 C 574.96875 325.730469 574.476562 324.800781 573.609375 324.554688 Z M 573.609375 324.492188 "/><path style=" stroke:none;fill-rule:nonzero;fill:#000000;fill-opacity:1;" d="M 566.132812 332.847656 C 566.441406 332.972656 565.945312 332.722656 566.132812 332.847656 L 566.316406 332.972656 C 566.253906 332.847656 566.132812 332.847656 566.316406 332.972656 L 566.316406 333.097656 C 566.441406 333.15625 566.378906 333.15625 566.253906 332.972656 L 566.5625 333.46875 C 566.5625 333.527344 566.625 333.652344 566.625 333.714844 C 566.625 333.777344 566.6875 334.085938 566.75 334.273438 L 566.75 335.078125 C 566.75 335.136719 566.6875 335.507812 566.75 335.199219 C 566.8125 334.890625 566.6875 335.324219 566.6875 335.386719 C 566.625 335.757812 566.503906 336.066406 566.378906 336.4375 L 566.253906 336.683594 L 566.007812 337.117188 L 565.824219 337.367188 L 565.453125 337.800781 L 565.265625 337.921875 L 565.140625 338.046875 L 565.019531 338.046875 L 564.769531 338.234375 C 563.96875 338.664062 563.71875 339.65625 564.152344 340.398438 C 564.152344 340.398438 564.152344 340.398438 564.152344 340.460938 C 564.648438 341.203125 565.574219 341.449219 566.378906 341.078125 C 568.292969 339.964844 569.59375 338.046875 569.902344 335.820312 C 570.273438 333.46875 569.53125 330.371094 566.933594 329.628906 C 566.070312 329.382812 565.203125 329.816406 564.894531 330.683594 C 564.894531 330.683594 564.894531 330.742188 564.894531 330.742188 C 564.648438 331.609375 565.140625 332.539062 566.007812 332.847656 C 566.070312 332.847656 566.070312 332.847656 566.132812 332.847656 Z M 566.132812 332.847656 "/><path style=" stroke:none;fill-rule:nonzero;fill:#000000;fill-opacity:1;" d="M 491.585938 306.667969 L 492.453125 306.175781 L 492.699219 306.050781 C 492.882812 305.925781 492.390625 306.175781 492.636719 306.050781 L 493.070312 305.925781 L 493.996094 305.679688 C 494.242188 305.617188 493.996094 305.742188 493.933594 305.679688 L 495.789062 305.679688 L 496.285156 305.800781 L 496.714844 305.988281 C 496.964844 306.050781 496.714844 305.988281 496.65625 305.925781 L 496.902344 306.050781 L 497.828125 306.546875 C 498.570312 307.039062 499.558594 306.792969 500.054688 305.988281 C 500.425781 305.183594 500.179688 304.195312 499.4375 303.699219 C 496.53125 301.839844 492.824219 301.839844 489.980469 303.761719 C 489.175781 304.253906 488.929688 305.246094 489.359375 306.050781 C 489.792969 306.792969 490.78125 307.101562 491.585938 306.667969 C 491.585938 306.605469 491.585938 306.605469 491.585938 306.605469 Z M 491.585938 306.667969 "/><path style=" stroke:none;fill-rule:nonzero;fill:#000000;fill-opacity:1;" d="M 495.417969 318.800781 C 495.789062 319.171875 496.035156 319.664062 496.160156 320.160156 C 496.53125 321.214844 496.65625 322.390625 496.59375 323.503906 C 496.59375 323.996094 496.46875 324.492188 496.222656 324.925781 C 496.035156 325.359375 495.605469 325.730469 495.109375 325.792969 C 494.367188 325.792969 493.75 325.421875 493.378906 324.800781 C 492.882812 324.058594 492.636719 323.132812 492.699219 322.265625 C 492.699219 321.398438 492.882812 320.46875 493.191406 319.664062 C 493.253906 319.355469 493.378906 319.046875 493.625 318.859375 C 493.875 318.613281 494.242188 318.429688 494.613281 318.429688 C 494.921875 318.429688 495.171875 318.613281 495.417969 318.800781 Z M 495.417969 318.800781 "/><path style=" stroke:none;fill-rule:nonzero;fill:#000000;fill-opacity:1;" d="M 494.554688 319.664062 L 494.738281 319.976562 L 494.921875 320.285156 L 494.863281 320.285156 C 494.921875 320.347656 494.921875 320.410156 494.921875 320.46875 C 495.046875 320.65625 495.109375 320.902344 495.171875 321.152344 C 495.234375 321.398438 495.292969 321.707031 495.292969 321.957031 C 495.355469 322.511719 495.417969 323.070312 495.355469 323.625 L 495.355469 323.8125 C 495.292969 323.9375 495.292969 324.058594 495.234375 324.183594 L 495.234375 324.371094 C 495.292969 324.183594 495.171875 324.371094 495.171875 324.429688 L 495.171875 324.554688 C 495.109375 324.679688 495.292969 324.492188 495.171875 324.554688 L 495.046875 324.679688 C 495.046875 324.679688 495.234375 324.554688 495.109375 324.617188 L 494.921875 324.742188 C 494.984375 324.679688 495.109375 324.679688 494.984375 324.679688 C 494.863281 324.679688 494.863281 324.617188 494.984375 324.679688 L 494.738281 324.679688 L 494.554688 324.492188 C 494.492188 324.429688 494.554688 324.492188 494.554688 324.554688 C 494.554688 324.617188 494.492188 324.429688 494.492188 324.371094 C 494.367188 324.246094 494.304688 324.121094 494.242188 323.996094 C 494.242188 323.996094 494.183594 323.875 494.242188 323.9375 C 494.304688 323.996094 494.183594 323.875 494.183594 323.875 C 494.183594 323.875 494.121094 323.625 494.121094 323.503906 C 494.121094 323.378906 494.058594 323.253906 493.996094 323.132812 L 493.996094 322.140625 C 493.996094 322.078125 494.058594 321.769531 493.996094 321.894531 C 493.933594 322.015625 494.058594 321.585938 494.121094 321.460938 C 494.183594 321.152344 494.242188 320.78125 494.367188 320.46875 C 494.367188 320.347656 494.429688 320.160156 494.492188 320.035156 C 494.554688 319.914062 494.492188 320.035156 494.492188 320.097656 C 494.492188 320.160156 494.554688 319.914062 494.429688 320.035156 C 494.304688 320.160156 494.554688 319.976562 494.554688 319.914062 C 494.554688 319.851562 494.429688 320.097656 494.554688 319.976562 C 494.554688 319.914062 494.554688 319.914062 494.613281 319.914062 C 494.367188 320.035156 494.613281 319.976562 494.675781 319.914062 C 494.738281 319.851562 494.429688 319.976562 494.492188 319.851562 L 494.863281 320.097656 C 495.417969 320.46875 496.160156 320.285156 496.46875 319.726562 C 496.46875 319.726562 496.53125 319.664062 496.53125 319.664062 C 496.839844 319.109375 496.65625 318.367188 496.097656 317.996094 C 495.355469 317.375 494.304688 317.3125 493.441406 317.746094 C 492.699219 318.179688 492.140625 318.859375 492.019531 319.726562 C 491.402344 321.273438 491.339844 322.945312 491.832031 324.492188 C 492.328125 326.039062 493.75 327.648438 495.605469 327.214844 C 497.457031 326.78125 497.890625 324.679688 497.890625 323.070312 C 497.890625 322.140625 497.765625 321.214844 497.519531 320.347656 C 497.335938 319.542969 496.902344 318.800781 496.34375 318.179688 C 495.851562 317.683594 495.109375 317.683594 494.613281 318.179688 C 494.242188 318.613281 494.242188 319.234375 494.554688 319.664062 Z M 494.554688 319.664062 "/><path style=" stroke:none;fill-rule:nonzero;fill:#000000;fill-opacity:1;" d="M 528.054688 316.078125 C 528.425781 316.449219 528.671875 316.878906 528.796875 317.375 C 529.167969 318.429688 529.292969 319.605469 529.230469 320.71875 C 529.230469 321.214844 529.105469 321.707031 528.859375 322.140625 C 528.671875 322.574219 528.242188 322.945312 527.746094 323.007812 C 527.066406 323.070312 526.386719 322.699219 526.015625 322.078125 C 525.519531 321.335938 525.335938 320.410156 525.335938 319.542969 C 525.335938 318.613281 525.519531 317.746094 525.828125 316.878906 C 525.890625 316.570312 526.015625 316.261719 526.261719 316.078125 C 526.511719 315.828125 526.878906 315.703125 527.25 315.703125 C 527.5625 315.703125 527.808594 315.890625 528.054688 316.078125 Z M 528.054688 316.078125 "/><path style=" stroke:none;fill-rule:nonzero;fill:#000000;fill-opacity:1;" d="M 527.191406 316.941406 L 527.375 317.191406 L 527.5625 317.5 C 527.621094 317.625 527.5 317.5 527.5 317.4375 C 527.5625 317.5 527.5625 317.5625 527.5625 317.625 C 527.683594 317.871094 527.746094 318.117188 527.808594 318.367188 C 527.871094 318.613281 527.929688 318.859375 527.929688 319.109375 C 527.992188 319.664062 528.054688 320.222656 527.992188 320.78125 L 527.992188 320.964844 C 527.929688 321.089844 527.929688 321.214844 527.871094 321.335938 L 527.871094 321.523438 C 527.871094 321.335938 527.808594 321.523438 527.808594 321.523438 C 527.808594 321.585938 527.808594 321.585938 527.746094 321.644531 C 527.683594 321.832031 527.871094 321.585938 527.746094 321.644531 L 527.621094 321.769531 C 527.621094 321.769531 527.746094 321.707031 527.683594 321.769531 L 527.5625 321.769531 L 527.375 321.644531 C 527.3125 321.644531 527.191406 321.523438 527.3125 321.585938 L 527.128906 321.460938 C 527.128906 321.398438 527.066406 321.398438 527.066406 321.335938 L 526.820312 320.964844 C 526.820312 320.964844 526.757812 320.78125 526.820312 320.902344 L 526.820312 320.78125 C 526.820312 320.65625 526.757812 320.59375 526.757812 320.46875 C 526.695312 320.347656 526.695312 320.160156 526.632812 320.035156 L 526.632812 319.046875 C 526.632812 318.984375 526.695312 318.675781 526.632812 318.859375 C 526.695312 318.675781 526.695312 318.550781 526.695312 318.367188 C 526.820312 318.054688 526.878906 317.746094 527.003906 317.4375 C 527.003906 317.3125 527.066406 317.128906 527.191406 316.941406 C 527.128906 316.878906 527.128906 317.003906 527.066406 317.003906 C 527.003906 317.003906 527.191406 316.878906 527.066406 316.941406 L 527.191406 316.941406 C 527.3125 316.820312 527.066406 317.066406 527.191406 316.941406 C 527.191406 316.820312 527.25 316.941406 527.25 316.878906 C 527.25 316.820312 527.25 316.941406 527.3125 316.941406 C 527.375 316.941406 527.066406 316.941406 527.128906 316.878906 L 527.5 317.128906 C 528.054688 317.4375 528.796875 317.253906 529.167969 316.695312 C 529.476562 316.074219 529.292969 315.332031 528.734375 314.960938 C 527.929688 314.40625 526.941406 314.34375 526.078125 314.777344 C 525.335938 315.148438 524.839844 315.890625 524.65625 316.695312 C 524.097656 318.242188 524.039062 319.914062 524.46875 321.460938 C 524.964844 323.007812 526.386719 324.679688 528.242188 324.183594 C 530.09375 323.6875 530.527344 321.707031 530.527344 320.035156 C 530.527344 319.109375 530.402344 318.179688 530.09375 317.3125 C 529.972656 316.507812 529.539062 315.765625 528.980469 315.210938 C 528.550781 314.652344 527.808594 314.527344 527.25 314.960938 C 526.695312 315.394531 526.570312 316.136719 527.003906 316.695312 C 527.066406 316.820312 527.128906 316.878906 527.25 316.941406 Z M 527.191406 316.941406 "/><path style=" stroke:none;fill-rule:nonzero;fill:#000000;fill-opacity:1;" d="M 529.722656 301.347656 C 526.386719 299.859375 522.554688 299.921875 519.339844 301.59375 C 518.597656 302.027344 518.289062 303.015625 518.785156 303.820312 C 519.277344 304.566406 520.265625 304.8125 521.007812 304.378906 L 521.503906 304.132812 C 521.195312 304.316406 521.6875 304.070312 521.75 304.070312 L 522.800781 303.761719 L 523.480469 303.761719 L 524.46875 303.636719 L 525.519531 303.636719 C 525.582031 303.636719 526.199219 303.699219 525.769531 303.636719 L 526.199219 303.636719 L 527.191406 303.882812 L 527.746094 304.070312 L 528.054688 304.195312 C 528.859375 304.625 529.847656 304.316406 530.28125 303.574219 C 530.652344 302.894531 530.527344 301.71875 529.722656 301.347656 Z M 529.722656 301.347656 "/><path style=" stroke:none;fill-rule:nonzero;fill:#000000;fill-opacity:1;" d="M 503.699219 324.742188 C 503.144531 326.039062 502.339844 327.214844 501.414062 328.269531 C 500.363281 329.445312 499.558594 330.804688 498.941406 332.230469 C 497.644531 335.449219 499.066406 338.417969 500.671875 341.140625 C 502.28125 343.863281 504.628906 341.328125 503.515625 339.53125 C 502.773438 338.417969 502.21875 337.179688 501.785156 335.941406 C 501.539062 334.828125 501.785156 333.589844 502.339844 332.601562 C 503.699219 330.125 505.863281 328.269531 506.914062 325.605469 C 507.164062 324.742188 506.605469 323.8125 505.742188 323.566406 C 504.875 323.378906 503.949219 323.875 503.699219 324.742188 Z M 503.699219 324.742188 "/><path style=" stroke:none;fill-rule:nonzero;fill:#000000;fill-opacity:1;" d="M 509.449219 353.332031 C 515.074219 353.644531 520.515625 351.664062 524.71875 347.949219 C 525.335938 347.269531 525.335938 346.277344 524.71875 345.597656 C 524.039062 345.039062 523.109375 345.039062 522.429688 345.597656 C 518.84375 348.753906 514.210938 350.363281 509.449219 350.054688 C 508.523438 350.054688 507.84375 350.734375 507.78125 351.664062 C 507.84375 352.589844 508.523438 353.273438 509.449219 353.332031 Z M 509.449219 353.332031 "/><path style=" stroke:none;fill-rule:nonzero;fill:#000000;fill-opacity:1;" d="M 482.3125 300.355469 C 481.820312 286.183594 492.699219 274.175781 506.792969 273.25 C 508.894531 273.125 508.957031 269.84375 506.792969 269.96875 C 490.90625 270.957031 478.605469 284.390625 479.039062 300.355469 C 479.101562 302.460938 482.375 302.460938 482.3125 300.355469 Z M 482.3125 300.355469 "/><path style=" stroke:none;fill-rule:nonzero;fill:#000000;fill-opacity:1;" d="M 511.425781 270.773438 C 513.46875 263.59375 522.988281 265.820312 527.191406 269.351562 C 532.691406 273.867188 535.226562 281.109375 537.636719 287.546875 C 540.046875 293.980469 542.644531 301.410156 545.980469 308.03125 C 548.761719 313.539062 552.410156 319.109375 558.28125 321.707031 C 560.199219 322.574219 561.867188 319.726562 559.949219 318.859375 C 554.511719 316.507812 551.359375 311.433594 548.761719 306.359375 C 546.167969 301.285156 543.570312 294.042969 541.222656 287.730469 C 537.511719 277.953125 532.753906 264.644531 520.761719 262.851562 C 515.570312 262.109375 509.757812 264.585938 508.214844 269.90625 C 507.65625 271.949219 510.808594 272.816406 511.425781 270.773438 Z M 511.425781 270.773438 "/><path style=" stroke:none;fill-rule:nonzero;fill:#000000;fill-opacity:1;" d="M 516.867188 274.734375 C 521.9375 271.578125 528.550781 272.566406 532.566406 276.960938 C 533.988281 278.570312 536.277344 276.21875 534.917969 274.671875 C 530.09375 269.226562 521.378906 267.988281 515.199219 271.886719 C 513.46875 273 515.074219 275.847656 516.867188 274.734375 Z M 516.867188 274.734375 "/><path style=" stroke:none;fill-rule:nonzero;fill:#000000;fill-opacity:1;" d="M 507.535156 264.089844 C 513.097656 254 523.914062 248.925781 534.234375 245.089844 C 536.214844 244.347656 535.347656 241.191406 533.371094 241.933594 C 522.246094 246.078125 510.6875 251.585938 504.691406 262.480469 C 503.699219 264.273438 506.542969 265.945312 507.535156 264.089844 Z M 507.535156 264.089844 "/><path style=" stroke:none;fill-rule:nonzero;fill:#000000;fill-opacity:1;" d="M 567.925781 362.246094 C 567.925781 359.523438 568.292969 356.738281 570.210938 354.632812 C 572.128906 352.527344 574.660156 351.351562 576.886719 349.804688 C 586.160156 343.617188 592.523438 334.582031 597.285156 324.554688 C 603.464844 311.558594 602.722656 296.023438 598.828125 282.46875 C 596.605469 275.105469 593.515625 268.050781 589.558594 261.488281 C 586.34375 256.105469 582.695312 250.535156 577.566406 246.761719 C 568.234375 239.828125 555.191406 236.917969 543.753906 236.859375 C 541.53125 236.859375 539.367188 237.042969 537.203125 237.042969 C 534.855469 236.980469 532.503906 237.105469 530.15625 237.292969 C 511.613281 238.960938 493.132812 246.882812 483.179688 263.285156 C 479.53125 269.289062 476.8125 276.15625 474.773438 282.839844 C 473.289062 287.792969 472.175781 293.054688 472.363281 298.191406 C 472.609375 304.253906 474.710938 309.949219 479.285156 313.972656 C 480.027344 314.652344 480.832031 315.273438 481.695312 315.890625 C 483.363281 317.128906 485.035156 314.28125 483.304688 313.042969 C 479.59375 310.382812 477.058594 306.484375 476.070312 302.027344 C 473.90625 291.382812 478.789062 279.625 483.179688 270.214844 C 487.628906 260.625 495.046875 252.824219 504.382812 247.875 C 511.613281 244.160156 519.523438 241.746094 527.621094 240.878906 C 531.332031 240.386719 535.039062 240.449219 538.75 240.324219 C 544.003906 240.199219 549.007812 240.199219 554.261719 241.128906 C 559.515625 242.058594 566.070312 243.976562 571.386719 246.761719 C 576.703125 249.546875 580.222656 253.382812 583.5625 258.273438 C 587.765625 264.335938 591.226562 270.898438 593.824219 277.828125 C 598.519531 290.515625 600.683594 306.050781 596.109375 319.046875 C 593.699219 325.667969 590.175781 331.859375 585.726562 337.367188 C 583.066406 340.707031 579.914062 343.679688 576.390625 346.15625 C 572.003906 349.25 566.5625 351.664062 565.140625 357.355469 C 564.769531 358.964844 564.648438 360.574219 564.648438 362.246094 C 564.710938 364.351562 567.984375 364.351562 567.925781 362.246094 Z M 567.925781 362.246094 "/><path style=" stroke:none;fill-rule:nonzero;fill:#000000;fill-opacity:1;" d="M 593.082031 270.277344 C 595.058594 266.503906 598.890625 264.335938 603.03125 263.839844 C 607.175781 263.347656 612.179688 265.015625 616.015625 267.429688 C 624.296875 272.691406 630.601562 280.984375 632.828125 290.578125 C 637.648438 311.25 626.769531 331.238281 623.925781 351.292969 C 622.566406 361.007812 622.503906 371.652344 629.363281 379.390625 C 630.785156 380.9375 633.074219 378.644531 631.652344 377.035156 C 624.667969 369.175781 626.027344 357.234375 627.882812 347.640625 C 629.984375 336.4375 633.9375 325.730469 635.980469 314.527344 C 637.710938 304.875 638.082031 294.539062 634.679688 285.195312 C 631.097656 275.785156 624.234375 268.050781 615.394531 263.285156 C 607.050781 258.953125 595.121094 259.386719 590.238281 268.605469 C 589.3125 270.464844 592.09375 272.136719 593.082031 270.277344 Z M 593.082031 270.277344 "/><path style=" stroke:none;fill-rule:nonzero;fill:#000000;fill-opacity:1;" d="M 592.523438 269.90625 C 596.726562 269.351562 600.5 274.238281 602.539062 277.332031 C 604.578125 280.429688 606.1875 284.078125 606.433594 287.730469 C 606.617188 290.824219 606.125 293.917969 605.011719 296.828125 C 604.144531 299.117188 602.722656 302.273438 600.191406 303.078125 C 597.65625 303.882812 599.015625 306.855469 601.054688 306.234375 C 604.394531 305.183594 606.371094 302.027344 607.605469 298.996094 C 608.84375 295.960938 610.078125 291.195312 609.707031 287.296875 C 609.339844 283.398438 607.238281 278.199219 604.578125 274.488281 C 601.921875 270.773438 597.53125 265.945312 592.523438 266.625 C 590.484375 266.875 590.421875 270.15625 592.523438 269.90625 Z M 592.523438 269.90625 "/><path style=" stroke:none;fill-rule:nonzero;fill:#000000;fill-opacity:1;" d="M 586.960938 338.789062 C 587.148438 350.238281 590.917969 361.378906 597.71875 370.601562 C 604.453125 379.574219 614.53125 387.867188 626.273438 388.117188 C 628.375 388.175781 628.375 384.898438 626.273438 384.835938 C 615.394531 384.585938 605.816406 376.355469 599.820312 367.878906 C 593.761719 359.398438 590.421875 349.25 590.238281 338.789062 C 590.175781 336.683594 586.898438 336.683594 586.960938 338.789062 Z M 586.960938 338.789062 "/><path style=" stroke:none;fill-rule:nonzero;fill:#000000;fill-opacity:1;" d="M 608.101562 359.460938 C 610.328125 365.585938 613.230469 371.652344 617.804688 376.417969 C 622.378906 381.183594 627.820312 383.90625 634.0625 384.09375 C 636.164062 384.15625 636.164062 380.875 634.0625 380.8125 C 621.949219 380.441406 614.964844 368.742188 611.253906 358.59375 C 610.511719 356.675781 607.359375 357.480469 608.101562 359.460938 Z M 608.101562 359.460938 "/><path style=" stroke:none;fill-rule:nonzero;fill:#000000;fill-opacity:1;" d="M 547.898438 360.328125 C 547.898438 360.328125 534.421875 375.675781 517.484375 382.605469 L 515.691406 376.542969 C 515.691406 376.542969 530.714844 373.632812 532.628906 372.457031 C 537.574219 369.300781 547.898438 360.328125 547.898438 360.328125 Z M 547.898438 360.328125 "/><path style=" stroke:none;fill-rule:nonzero;fill:#000000;fill-opacity:1;" d="M 567.675781 349.371094 L 567.675781 349.1875 L 566.875 350.609375 L 567.058594 350.488281 L 565.824219 350.671875 L 566.070312 350.671875 L 565.082031 349.929688 C 564.894531 349.621094 564.832031 351.167969 564.773438 351.476562 C 564.773438 352.035156 564.710938 352.589844 564.648438 353.148438 C 564.523438 354.386719 564.402344 355.683594 564.339844 356.921875 C 564.152344 359.335938 564.03125 361.6875 564.03125 364.101562 C 563.96875 368.992188 564.402344 373.941406 565.203125 378.769531 C 565.574219 380.875 568.726562 380.007812 568.355469 377.902344 C 567.367188 371.777344 567.058594 365.527344 567.429688 359.335938 C 567.613281 356.242188 567.984375 353.148438 568.234375 350.054688 C 568.292969 348.9375 567.925781 347.703125 566.6875 347.453125 C 565.636719 347.269531 564.648438 347.949219 564.460938 348.9375 C 564.460938 349.0625 564.402344 349.1875 564.402344 349.3125 C 564.277344 351.414062 567.554688 351.414062 567.675781 349.3125 Z M 567.675781 349.371094 "/><path style=" stroke:none;fill-rule:nonzero;fill:#000000;fill-opacity:1;" d="M 566.6875 373.820312 C 559.765625 373.820312 554.140625 366.578125 554.140625 357.789062 C 554.140625 351.351562 557.046875 345.597656 561.617188 343.058594 C 562.421875 342.625 563.410156 342.9375 563.84375 343.679688 C 564.277344 344.421875 564.03125 345.410156 563.289062 345.90625 C 563.289062 345.90625 563.289062 345.90625 563.226562 345.90625 C 559.703125 347.886719 557.414062 352.527344 557.414062 357.789062 C 557.414062 364.78125 561.558594 370.539062 566.6875 370.539062 C 571.816406 370.539062 575.960938 364.78125 575.960938 357.789062 C 575.960938 352.527344 573.671875 347.886719 570.148438 345.90625 C 569.34375 345.472656 569.035156 344.484375 569.46875 343.679688 C 569.964844 342.9375 570.890625 342.6875 571.695312 343.058594 C 576.269531 345.597656 579.234375 351.351562 579.234375 357.789062 C 579.234375 366.578125 573.609375 373.820312 566.6875 373.820312 Z M 566.6875 373.820312 "/><path style=" stroke:none;fill-rule:nonzero;fill:#000000;fill-opacity:1;" d="M 489.175781 373.820312 C 482.4375 373.820312 476.9375 366.761719 476.9375 358.160156 C 476.9375 352.960938 478.976562 348.074219 482.375 345.164062 L 483.550781 346.339844 L 484.601562 347.578125 C 481.820312 349.929688 480.210938 353.890625 480.210938 358.160156 C 480.210938 364.96875 484.230469 370.539062 489.175781 370.539062 C 492.082031 370.539062 494.863281 368.558594 496.53125 365.214844 L 499.4375 366.761719 C 497.210938 371.15625 493.378906 373.820312 489.175781 373.820312 Z M 489.175781 373.820312 "/><path style=" stroke:none;fill-rule:nonzero;fill:#000000;fill-opacity:1;" d="M 487.507812 542.28125 C 506.667969 541.105469 525.953125 542.652344 544.683594 546.859375 C 546.722656 547.355469 547.585938 544.199219 545.546875 543.703125 C 526.511719 539.433594 506.976562 537.824219 487.507812 539 C 485.40625 539.125 485.34375 542.40625 487.507812 542.28125 Z M 487.507812 542.28125 "/><path style=" stroke:none;fill-rule:nonzero;fill:#ffe397;fill-opacity:1;" d="M 437.933594 360.390625 C 437.933594 361.417969 437.882812 362.445312 437.78125 363.46875 C 437.679688 364.496094 437.53125 365.511719 437.328125 366.523438 C 437.128906 367.53125 436.878906 368.53125 436.582031 369.515625 C 436.28125 370.5 435.9375 371.46875 435.542969 372.421875 C 435.148438 373.371094 434.710938 374.300781 434.226562 375.210938 C 433.742188 376.117188 433.210938 377 432.640625 377.855469 C 432.070312 378.710938 431.457031 379.539062 430.804688 380.335938 C 430.152344 381.128906 429.464844 381.890625 428.734375 382.621094 C 428.007812 383.347656 427.246094 384.039062 426.453125 384.691406 C 425.65625 385.34375 424.832031 385.957031 423.976562 386.53125 C 423.121094 387.101562 422.242188 387.628906 421.335938 388.117188 C 420.425781 388.601562 419.5 389.042969 418.550781 389.433594 C 417.597656 389.828125 416.632812 390.175781 415.648438 390.476562 C 414.664062 390.773438 413.667969 391.023438 412.660156 391.222656 C 411.648438 391.425781 410.632812 391.578125 409.609375 391.675781 C 408.585938 391.777344 407.5625 391.828125 406.53125 391.828125 C 405.503906 391.828125 404.476562 391.777344 403.453125 391.675781 C 402.429688 391.578125 401.414062 391.425781 400.40625 391.222656 C 399.398438 391.023438 398.402344 390.773438 397.417969 390.476562 C 396.433594 390.175781 395.464844 389.828125 394.515625 389.433594 C 393.566406 389.042969 392.636719 388.601562 391.730469 388.117188 C 390.824219 387.628906 389.941406 387.101562 389.085938 386.53125 C 388.230469 385.957031 387.40625 385.34375 386.613281 384.691406 C 385.816406 384.039062 385.054688 383.347656 384.328125 382.621094 C 383.601562 381.890625 382.910156 381.128906 382.257812 380.335938 C 381.605469 379.539062 380.996094 378.710938 380.425781 377.855469 C 379.851562 377 379.324219 376.117188 378.839844 375.210938 C 378.355469 374.300781 377.914062 373.371094 377.523438 372.421875 C 377.128906 371.46875 376.78125 370.5 376.484375 369.515625 C 376.183594 368.53125 375.9375 367.53125 375.734375 366.523438 C 375.535156 365.511719 375.382812 364.496094 375.28125 363.46875 C 375.183594 362.445312 375.132812 361.417969 375.132812 360.390625 C 375.132812 359.359375 375.183594 358.332031 375.28125 357.308594 C 375.382812 356.28125 375.535156 355.265625 375.734375 354.253906 C 375.9375 353.246094 376.183594 352.246094 376.484375 351.261719 C 376.78125 350.277344 377.128906 349.308594 377.523438 348.355469 C 377.914062 347.40625 378.355469 346.476562 378.839844 345.566406 C 379.324219 344.660156 379.851562 343.777344 380.425781 342.921875 C 380.996094 342.066406 381.605469 341.238281 382.257812 340.445312 C 382.910156 339.648438 383.601562 338.886719 384.328125 338.15625 C 385.054688 337.429688 385.816406 336.738281 386.613281 336.085938 C 387.40625 335.433594 388.230469 334.820312 389.085938 334.246094 C 389.941406 333.675781 390.824219 333.148438 391.730469 332.660156 C 392.636719 332.175781 393.566406 331.738281 394.515625 331.34375 C 395.464844 330.949219 396.433594 330.601562 397.417969 330.304688 C 398.402344 330.003906 399.398438 329.753906 400.40625 329.554688 C 401.414062 329.351562 402.429688 329.203125 403.453125 329.101562 C 404.476562 329 405.503906 328.949219 406.53125 328.949219 C 407.5625 328.949219 408.585938 329 409.609375 329.101562 C 410.632812 329.203125 411.648438 329.351562 412.660156 329.554688 C 413.667969 329.753906 414.664062 330.003906 415.648438 330.304688 C 416.632812 330.601562 417.597656 330.949219 418.550781 331.34375 C 419.5 331.738281 420.425781 332.175781 421.335938 332.660156 C 422.242188 333.148438 423.121094 333.675781 423.976562 334.246094 C 424.832031 334.820312 425.65625 335.433594 426.453125 336.085938 C 427.246094 336.738281 428.007812 337.429688 428.734375 338.15625 C 429.464844 338.886719 430.152344 339.648438 430.804688 340.445312 C 431.457031 341.238281 432.070312 342.066406 432.640625 342.921875 C 433.210938 343.777344 433.742188 344.660156 434.226562 345.566406 C 434.710938 346.476562 435.148438 347.40625 435.542969 348.355469 C 435.9375 349.308594 436.28125 350.277344 436.582031 351.261719 C 436.878906 352.246094 437.128906 353.246094 437.328125 354.253906 C 437.53125 355.265625 437.679688 356.28125 437.78125 357.308594 C 437.882812 358.332031 437.933594 359.359375 437.933594 360.390625 Z M 437.933594 360.390625 "/><path style=" stroke:none;fill-rule:nonzero;fill:#000000;fill-opacity:1;" d="M 406.53125 393.5 C 388.296875 393.5 373.464844 378.644531 373.464844 360.390625 C 373.464844 342.132812 388.296875 327.277344 406.53125 327.277344 C 424.765625 327.277344 439.601562 342.132812 439.601562 360.390625 C 439.601562 378.644531 424.765625 393.5 406.53125 393.5 Z M 406.53125 330.621094 C 390.089844 330.621094 376.738281 343.988281 376.738281 360.449219 C 376.738281 376.914062 390.089844 390.28125 406.53125 390.28125 C 422.972656 390.28125 436.324219 376.914062 436.324219 360.449219 C 436.324219 360.449219 436.324219 360.390625 436.324219 360.390625 C 436.265625 343.925781 422.972656 330.621094 406.53125 330.621094 Z M 406.53125 330.621094 "/><path style=" stroke:none;fill-rule:nonzero;fill:#000000;fill-opacity:1;" d="M 415.1875 349 C 411.972656 345.90625 407.582031 343.800781 403.316406 346.214844 C 399.054688 348.628906 397.941406 352.652344 399.734375 356.304688 C 401.527344 359.957031 405.976562 360.203125 409.5 361.566406 C 411.042969 362.183594 412.21875 363.605469 412.464844 365.277344 C 412.777344 366.949219 412.035156 368.1875 410.796875 369.363281 C 409.5625 370.539062 407.769531 370.910156 405.789062 370.351562 C 403.628906 369.734375 401.710938 368.433594 400.289062 366.703125 C 399.054688 365.03125 396.210938 366.640625 397.507812 368.3125 C 399.855469 371.527344 403.6875 373.878906 407.769531 373.941406 C 411.847656 374.003906 415.1875 370.722656 415.742188 367.136719 C 416.238281 363.234375 413.886719 359.585938 410.179688 358.347656 C 407.398438 357.417969 401.710938 357.046875 402.328125 352.777344 C 402.699219 350.734375 404.183594 349.125 406.160156 348.566406 C 408.820312 347.886719 411.105469 349.558594 412.898438 351.292969 C 414.691406 353.023438 416.730469 350.425781 415.1875 349 Z M 415.1875 349 "/><path style=" stroke:none;fill-rule:nonzero;fill:#000000;fill-opacity:1;" d="M 405.605469 342.316406 L 405.605469 345.410156 C 405.605469 345.84375 405.789062 346.277344 406.039062 346.585938 C 406.347656 346.898438 406.78125 347.019531 407.210938 347.019531 C 407.644531 347.019531 408.078125 346.898438 408.386719 346.585938 C 408.695312 346.277344 408.882812 345.84375 408.882812 345.410156 L 408.882812 342.316406 C 408.882812 341.882812 408.695312 341.449219 408.386719 341.140625 C 407.707031 340.585938 406.71875 340.585938 406.039062 341.140625 C 405.789062 341.449219 405.605469 341.882812 405.605469 342.316406 Z M 405.605469 342.316406 "/><path style=" stroke:none;fill-rule:nonzero;fill:#000000;fill-opacity:1;" d="M 405.605469 373.136719 L 405.605469 378.523438 C 405.417969 379.449219 406.039062 380.316406 406.902344 380.503906 C 407.832031 380.6875 408.695312 380.070312 408.882812 379.203125 C 408.941406 379.015625 408.941406 378.769531 408.882812 378.585938 L 408.882812 373.199219 C 408.695312 372.273438 407.832031 371.714844 406.902344 371.898438 C 406.285156 371.960938 405.730469 372.457031 405.605469 373.136719 Z M 405.605469 373.136719 "/><path style=" stroke:none;fill-rule:nonzero;fill:#ffe397;fill-opacity:1;" d="M 458.144531 250.410156 C 458.144531 251.03125 458.117188 251.648438 458.054688 252.261719 C 457.996094 252.878906 457.902344 253.488281 457.785156 254.09375 C 457.664062 254.699219 457.511719 255.300781 457.332031 255.890625 C 457.15625 256.484375 456.945312 257.0625 456.710938 257.636719 C 456.472656 258.207031 456.210938 258.765625 455.917969 259.308594 C 455.628906 259.855469 455.3125 260.382812 454.96875 260.898438 C 454.625 261.414062 454.257812 261.910156 453.867188 262.386719 C 453.472656 262.863281 453.058594 263.320312 452.625 263.757812 C 452.1875 264.195312 451.730469 264.609375 451.253906 265.003906 C 450.777344 265.394531 450.28125 265.761719 449.765625 266.105469 C 449.253906 266.449219 448.722656 266.769531 448.179688 267.058594 C 447.636719 267.351562 447.078125 267.613281 446.507812 267.851562 C 445.9375 268.085938 445.355469 268.296875 444.765625 268.476562 C 444.175781 268.65625 443.578125 268.804688 442.972656 268.925781 C 442.367188 269.046875 441.753906 269.136719 441.140625 269.195312 C 440.527344 269.257812 439.910156 269.289062 439.292969 269.289062 C 438.675781 269.289062 438.058594 269.257812 437.445312 269.195312 C 436.832031 269.136719 436.21875 269.046875 435.613281 268.925781 C 435.007812 268.804688 434.410156 268.65625 433.820312 268.476562 C 433.230469 268.296875 432.648438 268.085938 432.078125 267.851562 C 431.507812 267.613281 430.949219 267.351562 430.40625 267.058594 C 429.859375 266.769531 429.332031 266.449219 428.820312 266.105469 C 428.304688 265.761719 427.808594 265.394531 427.332031 265.003906 C 426.855469 264.609375 426.398438 264.195312 425.960938 263.757812 C 425.527344 263.320312 425.109375 262.863281 424.71875 262.386719 C 424.328125 261.910156 423.960938 261.414062 423.617188 260.898438 C 423.273438 260.382812 422.957031 259.855469 422.667969 259.308594 C 422.375 258.765625 422.113281 258.207031 421.875 257.636719 C 421.640625 257.0625 421.429688 256.484375 421.253906 255.890625 C 421.074219 255.300781 420.921875 254.699219 420.800781 254.09375 C 420.683594 253.488281 420.589844 252.878906 420.53125 252.261719 C 420.46875 251.648438 420.441406 251.03125 420.441406 250.410156 C 420.441406 249.792969 420.46875 249.175781 420.53125 248.5625 C 420.589844 247.945312 420.683594 247.335938 420.800781 246.730469 C 420.921875 246.121094 421.074219 245.523438 421.25 244.933594 C 421.429688 244.339844 421.640625 243.757812 421.875 243.1875 C 422.113281 242.617188 422.375 242.058594 422.667969 241.511719 C 422.957031 240.96875 423.273438 240.4375 423.617188 239.925781 C 423.960938 239.410156 424.328125 238.914062 424.71875 238.4375 C 425.109375 237.957031 425.527344 237.5 425.960938 237.0625 C 426.398438 236.628906 426.855469 236.210938 427.332031 235.820312 C 427.808594 235.429688 428.304688 235.058594 428.820312 234.714844 C 429.332031 234.375 429.859375 234.054688 430.40625 233.765625 C 430.949219 233.472656 431.507812 233.207031 432.078125 232.972656 C 432.648438 232.734375 433.230469 232.527344 433.820312 232.347656 C 434.410156 232.167969 435.007812 232.019531 435.613281 231.898438 C 436.21875 231.777344 436.832031 231.6875 437.445312 231.625 C 438.058594 231.566406 438.675781 231.535156 439.292969 231.535156 C 439.910156 231.535156 440.527344 231.566406 441.140625 231.625 C 441.753906 231.6875 442.367188 231.777344 442.972656 231.898438 C 443.578125 232.019531 444.175781 232.167969 444.765625 232.347656 C 445.355469 232.527344 445.9375 232.734375 446.507812 232.972656 C 447.078125 233.207031 447.636719 233.472656 448.179688 233.765625 C 448.722656 234.054688 449.253906 234.375 449.765625 234.714844 C 450.28125 235.058594 450.777344 235.429688 451.253906 235.820312 C 451.730469 236.210938 452.1875 236.628906 452.625 237.0625 C 453.058594 237.5 453.472656 237.957031 453.867188 238.4375 C 454.257812 238.914062 454.625 239.410156 454.96875 239.925781 C 455.3125 240.4375 455.628906 240.96875 455.917969 241.511719 C 456.210938 242.058594 456.472656 242.617188 456.710938 243.1875 C 456.945312 243.757812 457.15625 244.339844 457.332031 244.933594 C 457.511719 245.523438 457.664062 246.121094 457.785156 246.730469 C 457.902344 247.335938 457.996094 247.945312 458.054688 248.5625 C 458.117188 249.175781 458.144531 249.792969 458.144531 250.410156 Z M 458.144531 250.410156 "/><path style=" stroke:none;fill-rule:nonzero;fill:#000000;fill-opacity:1;" d="M 439.292969 270.898438 C 427.980469 270.898438 418.769531 261.675781 418.769531 250.351562 C 418.769531 239.023438 427.980469 229.800781 439.292969 229.800781 C 450.605469 229.800781 459.816406 239.023438 459.816406 250.351562 C 459.816406 250.351562 459.816406 250.410156 459.816406 250.410156 C 459.753906 261.738281 450.605469 270.898438 439.292969 270.898438 Z M 439.292969 233.144531 C 429.773438 233.144531 422.046875 240.878906 422.046875 250.410156 C 422.046875 259.941406 429.773438 267.679688 439.292969 267.679688 C 448.8125 267.679688 456.539062 259.941406 456.539062 250.410156 C 456.539062 240.878906 448.8125 233.144531 439.292969 233.144531 Z M 439.292969 233.144531 "/><path style=" stroke:none;fill-rule:nonzero;fill:#000000;fill-opacity:1;" d="M 444.980469 243.046875 C 442.816406 241.003906 439.847656 239.703125 437.003906 241.3125 C 434.164062 242.921875 433.421875 245.769531 434.65625 248.246094 C 435.273438 249.421875 436.324219 250.289062 437.5625 250.722656 C 438.675781 251.15625 439.847656 251.277344 440.898438 251.710938 C 441.578125 252.082031 442.136719 252.703125 442.261719 253.507812 C 442.320312 253.753906 442.261719 253.257812 442.261719 253.566406 L 442.261719 253.9375 C 442.261719 254.1875 442.320312 253.691406 442.261719 254 C 442.199219 254.3125 442.199219 254.1875 442.199219 254.3125 C 442.136719 254.433594 442.074219 254.558594 441.949219 254.683594 L 441.394531 255.300781 L 440.839844 255.734375 L 440.714844 255.734375 C 440.652344 255.796875 440.160156 255.859375 440.46875 255.859375 C 439.972656 255.917969 439.476562 255.859375 439.046875 255.671875 C 437.871094 255.363281 436.882812 254.683594 436.140625 253.753906 C 435.644531 253.011719 434.65625 252.761719 433.914062 253.195312 C 433.113281 253.628906 432.863281 254.621094 433.296875 255.363281 C 433.296875 255.363281 433.296875 255.363281 433.296875 255.425781 C 434.902344 257.652344 437.375 259.015625 440.097656 259.136719 C 442.507812 259.136719 445.101562 256.972656 445.472656 254.558594 C 445.84375 251.898438 444.238281 249.296875 441.703125 248.429688 C 440.589844 248.183594 439.539062 247.875 438.488281 247.503906 C 438.179688 247.378906 437.871094 247.195312 437.6875 246.882812 C 437.5625 246.761719 437.4375 246.574219 437.4375 246.390625 L 437.4375 245.957031 C 437.5625 244.964844 438.304688 244.097656 439.292969 243.851562 C 440.589844 243.542969 441.765625 244.410156 442.628906 245.335938 C 443.496094 246.265625 446.523438 244.46875 444.980469 243.046875 Z M 444.980469 243.046875 "/><path style=" stroke:none;fill-rule:nonzero;fill:#000000;fill-opacity:1;" d="M 438.058594 239.519531 L 438.058594 241.375 C 438.058594 241.625 438.117188 241.808594 438.242188 241.996094 C 438.304688 242.179688 438.425781 242.429688 438.550781 242.550781 C 438.675781 242.738281 438.921875 242.800781 439.109375 242.859375 C 439.292969 242.984375 439.476562 243.046875 439.726562 243.046875 C 440.160156 242.984375 440.589844 242.859375 440.898438 242.550781 C 441.148438 242.242188 441.332031 241.808594 441.332031 241.375 L 441.332031 239.519531 C 441.394531 239.332031 441.332031 239.085938 441.210938 238.898438 C 441.148438 238.714844 441.023438 238.527344 440.898438 238.40625 C 440.714844 238.21875 440.527344 238.097656 440.34375 238.035156 C 440.160156 237.910156 439.910156 237.910156 439.726562 237.910156 C 439.292969 237.910156 438.859375 238.097656 438.550781 238.40625 C 438.242188 238.714844 438.058594 239.085938 438.058594 239.519531 Z M 438.058594 239.519531 "/><path style=" stroke:none;fill-rule:nonzero;fill:#000000;fill-opacity:1;" d="M 438.058594 258.023438 L 438.058594 261.242188 C 438.058594 262.171875 438.796875 262.914062 439.726562 262.914062 C 440.160156 262.914062 440.589844 262.726562 440.898438 262.417969 C 441.210938 262.109375 441.332031 261.675781 441.332031 261.242188 L 441.332031 258.023438 C 441.269531 257.097656 440.527344 256.414062 439.601562 256.414062 C 439.230469 256.414062 438.859375 256.601562 438.550781 256.847656 C 438.242188 257.15625 438.058594 257.589844 438.058594 258.023438 Z M 438.058594 258.023438 "/><g clip-rule="nonzero" clip-path="url(#01943523dd)"><path style=" stroke:none;fill-rule:nonzero;fill:#000000;fill-opacity:1;" d="M 378.65625 317.5 L 194.332031 317.5 C 190.191406 317.5 186.851562 314.15625 186.851562 310.011719 L 186.851562 184.625 C 186.914062 180.476562 190.191406 177.195312 194.332031 177.136719 L 378.65625 177.136719 C 382.796875 177.195312 386.074219 180.476562 386.132812 184.625 L 386.132812 310.011719 C 386.132812 314.15625 382.796875 317.5 378.65625 317.5 Z M 194.332031 180.414062 C 192.042969 180.476562 190.191406 182.332031 190.128906 184.625 L 190.128906 310.011719 C 190.128906 312.363281 191.984375 314.21875 194.332031 314.21875 L 378.65625 314.21875 C 381.003906 314.21875 382.859375 312.363281 382.859375 310.011719 L 382.859375 184.625 C 382.796875 182.332031 380.941406 180.476562 378.65625 180.414062 Z M 194.332031 180.414062 "/></g><path style=" stroke:none;fill-rule:nonzero;fill:#6293f1;fill-opacity:1;" d="M 216.089844 221.136719 L 227.894531 221.136719 L 227.894531 246.265625 L 216.089844 246.265625 Z M 216.089844 221.136719 "/><path style=" stroke:none;fill-rule:nonzero;fill:#000000;fill-opacity:1;" d="M 229.503906 247.875 L 214.421875 247.875 L 214.421875 219.46875 L 229.503906 219.46875 Z M 217.695312 244.59375 L 226.226562 244.59375 L 226.226562 222.746094 L 217.695312 222.746094 Z M 217.695312 244.59375 "/><path style=" stroke:none;fill-rule:nonzero;fill:#6293f1;fill-opacity:1;" d="M 240.320312 209.007812 L 252.125 209.007812 L 252.125 246.265625 L 240.320312 246.265625 Z M 240.320312 209.007812 "/><path style=" stroke:none;fill-rule:nonzero;fill:#000000;fill-opacity:1;" d="M 253.792969 247.875 L 238.710938 247.875 L 238.710938 207.398438 L 253.792969 207.398438 Z M 241.988281 244.59375 L 250.519531 244.59375 L 250.519531 210.679688 L 241.988281 210.679688 Z M 241.988281 244.59375 "/><path style=" stroke:none;fill-rule:nonzero;fill:#6293f1;fill-opacity:1;" d="M 264.613281 200.652344 L 276.417969 200.652344 L 276.417969 246.265625 L 264.613281 246.265625 Z M 264.613281 200.652344 "/><path style=" stroke:none;fill-rule:nonzero;fill:#000000;fill-opacity:1;" d="M 278.023438 247.875 L 262.941406 247.875 L 262.941406 199.042969 L 278.023438 199.042969 Z M 266.21875 244.59375 L 274.75 244.59375 L 274.75 202.324219 L 266.21875 202.324219 Z M 266.21875 244.59375 "/><path style=" stroke:none;fill-rule:nonzero;fill:#6293f1;fill-opacity:1;" d="M 288.84375 220.890625 L 300.648438 220.890625 L 300.648438 246.265625 L 288.84375 246.265625 Z M 288.84375 220.890625 "/><path style=" stroke:none;fill-rule:nonzero;fill:#000000;fill-opacity:1;" d="M 302.316406 247.875 L 287.171875 247.875 L 287.171875 219.21875 L 302.316406 219.21875 Z M 290.449219 244.59375 L 299.042969 244.59375 L 299.042969 222.5 L 290.449219 222.5 Z M 290.449219 244.59375 "/><path style=" stroke:none;fill-rule:nonzero;fill:#000000;fill-opacity:1;" d="M 323.273438 216.867188 L 363.820312 216.867188 L 363.820312 220.148438 L 323.273438 220.148438 Z M 323.273438 216.867188 "/><path style=" stroke:none;fill-rule:nonzero;fill:#000000;fill-opacity:1;" d="M 323.273438 227.820312 L 363.820312 227.820312 L 363.820312 231.101562 L 323.273438 231.101562 Z M 323.273438 227.820312 "/><path style=" stroke:none;fill-rule:nonzero;fill:#000000;fill-opacity:1;" d="M 323.273438 238.777344 L 363.820312 238.777344 L 363.820312 242.058594 L 323.273438 242.058594 Z M 323.273438 238.777344 "/><path style=" stroke:none;fill-rule:nonzero;fill:#a3dfbe;fill-opacity:1;" d="M 343.175781 270.773438 L 319.128906 272.878906 L 285.011719 284.761719 L 249.777344 279.066406 L 221.40625 291.9375 L 214.421875 294.722656 L 363.078125 294.722656 L 363.078125 262.976562 Z M 343.175781 270.773438 "/><path style=" stroke:none;fill-rule:nonzero;fill:#000000;fill-opacity:1;" d="M 363.078125 296.394531 L 214.421875 296.394531 C 213.617188 296.394531 212.9375 295.839844 212.8125 295.035156 C 212.628906 294.292969 213.0625 293.488281 213.800781 293.238281 L 220.785156 290.453125 L 249.097656 277.582031 C 249.40625 277.457031 249.777344 277.394531 250.085938 277.457031 L 284.886719 283.089844 L 318.574219 271.332031 L 318.945312 271.332031 L 342.742188 269.226562 L 362.460938 261.488281 C 362.953125 261.304688 363.574219 261.367188 364.003906 261.675781 C 364.4375 261.984375 364.6875 262.480469 364.6875 263.039062 L 364.6875 294.785156 C 364.625 295.652344 363.945312 296.332031 363.078125 296.394531 Z M 222.828125 293.117188 L 361.410156 293.117188 L 361.410156 265.390625 L 343.730469 272.320312 L 343.296875 272.445312 L 319.4375 274.488281 L 285.566406 286.308594 C 285.320312 286.429688 285.011719 286.429688 284.761719 286.371094 L 250.023438 280.800781 Z M 222.828125 293.117188 "/><path style=" stroke:none;fill-rule:nonzero;fill:#000000;fill-opacity:1;" d="M 214.730469 294.601562 C 213.863281 294.601562 213.121094 293.859375 213.121094 292.992188 L 213.121094 263.902344 C 212.9375 262.976562 213.554688 262.109375 214.421875 261.921875 C 215.347656 261.738281 216.214844 262.355469 216.398438 263.222656 C 216.460938 263.410156 216.460938 263.65625 216.398438 263.839844 L 216.398438 292.929688 C 216.335938 293.917969 215.65625 294.601562 214.730469 294.601562 Z M 214.730469 294.601562 "/><path style=" stroke:none;fill-rule:nonzero;fill:#a3dfbe;fill-opacity:1;" d="M 181.785156 347.640625 C 179.3125 347.640625 176.777344 347.886719 174.367188 348.382812 L 181.96875 383.289062 L 147.046875 375.675781 C 146.550781 378.152344 146.242188 380.625 146.242188 383.164062 C 146.179688 402.84375 162.066406 418.75 181.722656 418.8125 C 201.378906 418.875 217.265625 402.96875 217.324219 383.289062 C 217.386719 363.605469 201.5 347.703125 181.785156 347.640625 C 181.84375 347.640625 181.785156 347.640625 181.785156 347.640625 Z M 181.785156 347.640625 "/><g clip-rule="nonzero" clip-path="url(#56751ac976)"><path style=" stroke:none;fill-rule:nonzero;fill:#000000;fill-opacity:1;" d="M 181.785156 420.421875 C 161.261719 420.359375 144.632812 403.710938 144.632812 383.164062 C 144.632812 380.503906 144.882812 377.902344 145.5 375.304688 C 145.5625 374.871094 145.808594 374.5 146.179688 374.253906 C 146.550781 374.066406 146.984375 373.941406 147.417969 374.066406 L 179.804688 381.121094 L 172.820312 348.753906 C 172.695312 348.320312 172.757812 347.886719 173.007812 347.515625 C 173.253906 347.144531 173.625 346.898438 174.058594 346.835938 C 176.589844 346.277344 179.1875 345.96875 181.785156 345.96875 C 202.304688 346.835938 218.316406 364.164062 217.449219 384.710938 C 216.644531 404.082031 201.128906 419.617188 181.785156 420.421875 Z M 148.34375 377.71875 C 148.035156 379.511719 147.910156 381.308594 147.910156 383.164062 C 147.910156 401.484375 162.746094 416.273438 180.980469 416.273438 C 199.214844 416.273438 214.050781 401.421875 214.050781 383.164062 C 214.050781 364.84375 199.214844 350.054688 180.980469 350.054688 C 179.1875 350.054688 177.457031 350.238281 175.664062 350.488281 L 182.710938 382.917969 C 182.894531 383.78125 182.402344 384.585938 181.535156 384.773438 C 181.289062 384.835938 181.042969 384.835938 180.792969 384.773438 Z M 148.34375 377.71875 "/></g><path style=" stroke:none;fill-rule:nonzero;fill:#6293f1;fill-opacity:1;" d="M 174.367188 348.320312 C 160.707031 351.230469 149.949219 361.9375 146.984375 375.613281 L 181.96875 383.289062 Z M 174.367188 348.320312 "/><path style=" stroke:none;fill-rule:nonzero;fill:#000000;fill-opacity:1;" d="M 181.96875 384.898438 L 181.597656 384.898438 L 146.613281 377.222656 C 145.746094 377.035156 145.191406 376.171875 145.375 375.304688 C 148.46875 360.945312 159.714844 349.742188 174.058594 346.710938 C 174.921875 346.527344 175.789062 347.082031 175.972656 347.949219 L 183.578125 382.917969 C 183.699219 383.472656 183.515625 384.03125 183.144531 384.402344 C 182.835938 384.710938 182.402344 384.898438 181.96875 384.898438 Z M 148.960938 374.375 L 179.804688 381.121094 L 173.128906 350.300781 C 161.324219 353.394531 152.113281 362.617188 148.960938 374.375 Z M 148.960938 374.375 "/><path style=" stroke:none;fill-rule:nonzero;fill:#000000;fill-opacity:1;" d="M 147.046875 375.675781 L 146.425781 380.75 C 146.425781 380.75 175.480469 382.855469 179.25 383.351562 Z M 147.046875 375.675781 "/><path style=" stroke:none;fill-rule:nonzero;fill:#000000;fill-opacity:1;" d="M 179.25 383.351562 L 179.621094 383.472656 C 179.621094 383.472656 179.496094 383.410156 179.25 383.351562 Z M 179.25 383.351562 "/><path style=" stroke:none;fill-rule:nonzero;fill:#ffffff;fill-opacity:1;" d="M 284.667969 520.445312 C 285.203125 520.816406 285.722656 521.210938 286.226562 521.625 C 286.730469 522.039062 287.210938 522.472656 287.675781 522.925781 C 288.140625 523.382812 288.582031 523.851562 289 524.34375 C 289.421875 524.832031 289.820312 525.335938 290.191406 525.859375 C 290.566406 526.378906 290.910156 526.914062 291.234375 527.457031 C 291.554688 528.003906 291.851562 528.5625 292.117188 529.128906 C 292.386719 529.695312 292.625 530.269531 292.839844 530.851562 C 293.050781 531.433594 293.230469 532.019531 293.382812 532.609375 C 293.535156 533.203125 293.660156 533.796875 293.75 534.390625 C 293.84375 534.984375 293.90625 535.578125 293.9375 536.171875 C 293.96875 536.765625 293.96875 537.355469 293.941406 537.9375 C 293.910156 538.523438 293.847656 539.101562 293.757812 539.675781 C 293.667969 540.246094 293.546875 540.808594 293.394531 541.363281 C 293.246094 541.914062 293.0625 542.457031 292.855469 542.984375 C 292.644531 543.515625 292.40625 544.027344 292.140625 544.527344 C 291.871094 545.027344 291.578125 545.511719 291.257812 545.976562 C 290.9375 546.441406 290.589844 546.886719 290.21875 547.3125 C 289.847656 547.742188 289.453125 548.148438 289.03125 548.53125 C 288.613281 548.914062 288.171875 549.277344 287.710938 549.613281 C 287.246094 549.953125 286.765625 550.265625 286.261719 550.554688 C 285.761719 550.839844 285.242188 551.101562 284.707031 551.339844 C 284.171875 551.574219 283.621094 551.785156 283.058594 551.964844 C 282.492188 552.144531 281.914062 552.300781 281.328125 552.421875 C 280.738281 552.546875 280.140625 552.644531 279.535156 552.710938 C 278.929688 552.777344 278.316406 552.816406 277.699219 552.824219 C 277.082031 552.835938 276.460938 552.8125 275.835938 552.765625 C 275.210938 552.714844 274.585938 552.636719 273.960938 552.527344 C 273.335938 552.421875 272.714844 552.285156 272.097656 552.121094 C 271.480469 551.957031 270.867188 551.765625 270.257812 551.546875 C 269.652344 551.324219 269.054688 551.078125 268.464844 550.808594 C 267.878906 550.535156 267.300781 550.238281 266.734375 549.914062 C 266.167969 549.589844 265.617188 549.242188 265.082031 548.871094 C 264.546875 548.503906 264.027344 548.109375 263.523438 547.695312 C 263.019531 547.28125 262.539062 546.847656 262.074219 546.390625 C 261.609375 545.9375 261.167969 545.464844 260.746094 544.976562 C 260.328125 544.484375 259.929688 543.980469 259.558594 543.460938 C 259.183594 542.941406 258.835938 542.40625 258.515625 541.859375 C 258.191406 541.3125 257.898438 540.757812 257.628906 540.191406 C 257.363281 539.625 257.121094 539.050781 256.910156 538.46875 C 256.699219 537.886719 256.519531 537.300781 256.367188 536.707031 C 256.214844 536.117188 256.089844 535.523438 255.996094 534.929688 C 255.90625 534.335938 255.84375 533.738281 255.8125 533.148438 C 255.78125 532.554688 255.78125 531.964844 255.808594 531.378906 C 255.839844 530.792969 255.898438 530.214844 255.992188 529.644531 C 256.082031 529.070312 256.203125 528.507812 256.355469 527.957031 C 256.503906 527.402344 256.6875 526.863281 256.894531 526.332031 C 257.105469 525.804688 257.34375 525.289062 257.609375 524.792969 C 257.878906 524.292969 258.171875 523.808594 258.492188 523.34375 C 258.8125 522.878906 259.160156 522.433594 259.53125 522.003906 C 259.902344 521.578125 260.296875 521.171875 260.714844 520.789062 C 261.136719 520.402344 261.578125 520.042969 262.039062 519.703125 C 262.503906 519.367188 262.984375 519.054688 263.484375 518.765625 C 263.988281 518.476562 264.507812 518.214844 265.042969 517.980469 C 265.578125 517.742188 266.128906 517.535156 266.691406 517.355469 C 267.257812 517.171875 267.835938 517.019531 268.421875 516.894531 C 269.011719 516.769531 269.609375 516.675781 270.214844 516.609375 C 270.820312 516.539062 271.433594 516.503906 272.050781 516.492188 C 272.667969 516.484375 273.289062 516.503906 273.914062 516.554688 C 274.539062 516.605469 275.164062 516.683594 275.789062 516.789062 C 276.414062 516.898438 277.035156 517.035156 277.652344 517.199219 C 278.269531 517.363281 278.882812 517.554688 279.488281 517.773438 C 280.097656 517.992188 280.695312 518.238281 281.28125 518.511719 C 281.871094 518.785156 282.449219 519.082031 283.015625 519.40625 C 283.578125 519.730469 284.128906 520.074219 284.667969 520.445312 Z M 284.667969 520.445312 "/><path style=" stroke:none;fill-rule:nonzero;fill:#000000;fill-opacity:1;" d="M 277.34375 554.84375 C 266.09375 554.84375 255.773438 545.996094 254.226562 535.226562 C 253.546875 529.964844 254.90625 525.015625 258.183594 521.238281 C 261.769531 517.277344 266.898438 515.050781 272.277344 515.175781 C 283.527344 515.175781 293.847656 523.960938 295.332031 534.792969 C 296.136719 539.804688 294.652344 544.878906 291.375 548.71875 C 287.976562 552.679688 282.96875 554.84375 277.34375 554.84375 Z M 272.277344 518.453125 C 267.578125 518.453125 263.4375 520.1875 260.65625 523.40625 C 257.996094 526.5625 256.824219 530.707031 257.503906 534.792969 C 258.800781 544.015625 267.703125 551.566406 277.34375 551.566406 C 282.042969 551.566406 286.121094 549.769531 288.902344 546.550781 C 291.625 543.457031 292.796875 539.3125 292.117188 535.226562 C 290.820312 525.941406 281.917969 518.453125 272.277344 518.453125 Z M 272.277344 518.453125 "/></g></svg>